<svg xmlns="http://www.w3.org/2000/svg" viewBox="0 0 437.02 553.5"><title>Recurso 3</title><g id="edcf555f-2ad1-4f36-ace2-f8f981ca5175" data-name="Capa 2"><g id="a9aa7aed-d519-41ff-b1e9-d9083d199117" data-name="Layer 1"><path d="M362.25,0H0V471.67c0,45.19,33.48,81.83,74.78,81.83H362.25c41.29,0,74.77-36.64,74.77-81.83V0Zm62,471.67c0,38.09-27.82,69.07-62,69.07H74.78c-34.2,0-62-31-62-69.07V12.75H424.26Z"/><path d="M20.06,349.35C22.57,363,33.57,370.26,45.9,370.26h.6c12.33,0,23.33-7.29,25.84-20.91a30.12,30.12,0,0,0,.54-5.7s0-.1,0-.15,0-.15,0-.22a18.51,18.51,0,0,0-2.18-9.6,19.57,19.57,0,0,1-1.5-4.53c0-2,1.57-2.71,3.45-3.46v-2H55.07v1.87c6.54,2.63,15.33,8.95,15.33,17.52a12.13,12.13,0,0,1-1.17,5.39,21.22,21.22,0,0,1-1.38,2.12C63.77,355.45,55.29,357,46.2,357,33.5,357,22,354,22,343.06c0-.29,0-.57,0-.86.56-8.13,9-14.12,15.3-16.66v-1.87H19.75v2c1.87.75,3.45,1.43,3.45,3.46A14.58,14.58,0,0,1,22,332.89c-1.64,2.5-2.49,5.53-2.49,10.39v.37A29.32,29.32,0,0,0,20.06,349.35Z"/><path d="M27.86,306.19H64.24c4.58,0,4.81,2.25,5.33,6.47h1.88V269.21l-17.06-3.08v2.18c8.49,3.46,14.73,7.67,14.73,19,0,5-.6,6.69-4.21,6.69H29.44c-6.61,0-6.69-2.33-6.91-7.6H20.65v26.24h1.88C22.75,309.27,22.9,306.19,27.86,306.19Z"/><path d="M29.44,254.24h25.1c8.12,0,10.75-2,13.6-5.19,4.29-4.88,4.74-12,4.74-15.25,0-4.51-1.43-11.05-5.49-14.81-3.38-3.15-10.07-4.21-14.5-4.21h-24c-5,0-5.79-1.72-6.38-5.86H20.65v16.53h1.88c.3-6.46,2.85-7.36,7.44-7.36H52.89c4.81,0,16.31.15,16.31,13.38,0,10.82-10.38,10.82-14.66,10.82H29.44c-6.61,0-6.69-2.33-6.91-7.29H20.65v25.4h1.88C23,256.19,23.12,254.24,29.44,254.24Z"/><path d="M27.86,195.56H64.24c4.58,0,4.88,2.4,5.33,6.61h1.88V178c-.3-15.86-7.66-21.12-14-21.12-8.57,0-12.32,7.89-13.37,14.21h-.16C43,167.9,41,159.4,32.67,159.4c-11.72,0-12,15.34-12,19.54v23.23h1.88C22.75,198.71,22.9,195.56,27.86,195.56Zm17.81-14.28c.23-4.89,1.35-11.5,12.1-11.5,4.58,0,11.28,1,11.28,9.24,0,3.16-1.21,4.51-4.59,4.51H45.67ZM32.6,171.81c7.66,0,10.82,1.65,10.82,11.72H26.58c-1.72-.07-3.68-.15-3.68-4C22.9,173.46,27.34,171.81,32.6,171.81Z"/><path d="M367.52,157.83h-1.88v43.44l17.06,3.08v-2.18c-8.5-3.46-14.74-7.66-14.74-19,0-5,.61-6.69,4.21-6.69h35.47c6.62,0,6.7,2.33,6.93,7.59h1.87V157.83h-1.87c-.23,3.38-.39,6.46-5.35,6.46H372.85C368.27,164.29,368,162,367.52,157.83Z"/><path d="M372.85,230.63h36.37c5.12,0,5.19,3.61,5.35,7.14h1.87V211.46h-1.87c-.23,3.46-.39,7-5.35,7H372.85c-4.65,0-5-2.93-5.33-7h-1.88v26.31h1.88C367.81,233.63,368,230.63,372.85,230.63Z"/><path d="M373.15,294.67c-4.95,0-5.19-2.18-5.63-6.69h-1.88v24.95h1.88c.68-5,.9-6.62,6.91-6.62h33.21c6.47,0,6.62,2.41,6.93,6.62h1.87V294L381,279l35.47-15v-19h-1.87c-.39,5.34-1.43,6.7-5.35,6.7H373.53c-4.36,0-5.49-1-6-6.85h-1.88v17.59h1.88c.37-6.24,2.17-7.59,7.44-7.59H409.9v.15L365.64,273.7v2L411,294.52v.15Z"/><path d="M367.52,318.23h-1.88v15.25h1.88c.15-2.56.37-6.16,3.23-6.16,1.2,0,4.28,1.19,9.69,3.3v16.91c-2.4,1.06-8,3.46-10,3.46-2.49,0-2.56-1.36-2.93-6h-1.88v24.35h1.88c-.15-3.61,2.4-4.82,10.44-8.19l39.54-16.76v-2.11l-41.19-16.69C370.67,323.33,368.12,322.28,367.52,318.23Zm15.85,13.52,18.27,7.07-18.27,7.58Z"/><path d="M174.75,523.29V484.83H173.6l-17.14,7.35v1.76a24.33,24.33,0,0,1,5.57-1.69c2.66,0,2.66,3,2.66,4.66v26c0,4.18-.21,6.81-8.09,6.75v1.62h25.5v-1.62C175.36,529.63,174.75,527.81,174.75,523.29Z"/><path d="M200.43,484.83c-12.24,0-14.82,11.47-14.82,15.12,0,11.61,7.62,14.16,12.31,14.16a15.81,15.81,0,0,0,3.26-.27,8.61,8.61,0,0,0,3-1C200.71,525.58,192.75,529,186,530.38v1.75c20.4-2,30.06-15,30.06-27.26C216,488.67,206.55,484.83,200.43,484.83Zm4.29,25.37c-.07.54-1.91.88-3,.88-4.69,0-5.78-5.13-5.78-14.85,0-5.33,0-9.58,4.15-9.58s5.24,4.18,5.24,17.48A50.11,50.11,0,0,1,204.72,510.2Z"/><path d="M237.15,484.83c-6.87,0-15.43,7-15.43,24,0,13.56,6.66,23.28,15.37,23.28,9.52,0,15.36-11.13,15.36-23.28C252.45,492.65,244.29,484.83,237.15,484.83Zm4.56,31.44a53.76,53.76,0,0,1-1,10.19c-.34,1.35-1.09,3.78-3.61,3.78-3.53,0-4.68-4.32-4.68-14V500.82c0-5.59,0-14.1,4.55-14.1,3.26,0,4.69,3.91,4.69,14.1Z"/><path d="M272.51,523.29V484.83h-1.16l-17.13,7.35v1.76a24.33,24.33,0,0,1,5.57-1.69c2.65,0,2.65,3,2.65,4.66v26c0,4.18-.2,6.81-8.09,6.75v1.62h25.5v-1.62C273.12,529.63,272.51,527.81,272.51,523.29Z"/><path d="M64.81,62.88c-2.43-.14-5.87-.36-5.87-3.08,0-1.14,1.15-4.08,3.15-9.23h16.1c1,2.29,3.29,7.59,3.29,9.52,0,2.36-1.29,2.43-5.73,2.79v1.79H98.94V62.88c-3.44.14-4.58-2.29-7.8-10l-16-37.63h-2L57.3,54.51c-2.15,5.36-3.15,7.8-7,8.37v1.79H64.81ZM69.89,30.4l7.23,17.38h-14Z"/><path d="M149.45,48.43h-2.07c-3.3,8.08-7.3,14-18.11,14-4.79,0-6.36-.57-6.36-4V24.68c0-6.3,2.22-6.37,7.22-6.58V16.31h-25V18.1c3.22.21,6.15.35,6.15,5.07V57.8c0,4.36-2.14,4.58-6.15,5.08v1.79h41.36Z"/><path d="M178.44,62.88c-3.94-.29-6.8-.5-6.8-5.08V23.17c0-4.86,3.44-4.93,6.8-5.07V16.31h-25V18.1c3.29.21,6.65.35,6.65,5.07V57.8c0,4.43-2.78,4.72-6.65,5.08v1.79h25Z"/><path d="M198,62.88c-2.43-.14-5.87-.36-5.87-3.08,0-1.14,1.15-4.08,3.15-9.23h16.1c1,2.29,3.29,7.59,3.29,9.52,0,2.36-1.29,2.43-5.72,2.79v1.79h23.17V62.88c-3.43.14-4.57-2.29-7.79-10l-16-37.63h-2L190.48,54.51c-2.15,5.36-3.15,7.8-7,8.37v1.79H198Zm5.08-32.48,7.23,17.38h-14Z"/><path d="M251.79,62.88C246.5,62.31,245,61,245,55.8V27.18h.14L277,66h2V23.82c0-3.44.42-5.08,5.58-5.72V16.31H269.17V18.1c5.81.42,6.66,2.78,6.66,7.08V46.85h-.14L250.86,16.31H235.77V18.1c.92,0,2.07.21,6.08,5.14V57.16c0,4.72-2,5.22-6.3,5.72v1.79h16.24Z"/><path d="M332.89,47.43H331c-3.72,15-11.44,15-27.4,14.73l27.12-44.71V16.31H293.26L291.76,31h2c1.29-3.64,3.29-9.51,8.66-11.16,2.36-.71,2.36-.71,14.45-1.07L289.54,63.53v1.14H331Z"/><path d="M351.9,62.88c-2.43-.14-5.87-.36-5.87-3.08,0-1.14,1.15-4.08,3.15-9.23h16.09c1,2.29,3.3,7.59,3.3,9.52,0,2.36-1.29,2.43-5.72,2.79v1.79H386V62.88c-3.44.14-4.58-2.29-7.8-10l-16-37.63h-2L344.39,54.51c-2.15,5.36-3.15,7.8-7,8.37v1.79H351.9ZM357,30.4l7.22,17.38H350.25Z"/><path d="M116.55,116a2,2,0,0,0,.82-.17l3.73,9.82c1.64,4.32,9.75,7.61,19.55,7.67s17.92-3.35,19.56-7.67h0l3.73-9.81a2,2,0,0,0,.81.17,2.06,2.06,0,1,0-2.06-2.06,2,2,0,0,0,.1.6l-7.41,3.29-.2-.1,0-10.33a2.07,2.07,0,1,0-1.71-.79l-7.67,6.22-4.49-12.45a2.07,2.07,0,1,0-1.39,0l-4.5,12.45-7.6-6.17a2,2,0,0,0,.49-1.31,2.07,2.07,0,1,0-2.27,2l0,10.34-.21.1-7.41-3.29a2,2,0,0,0,.1-.61,2.06,2.06,0,1,0-2.06,2.06Zm24.1,4.36c9.39,0,15.92,2.75,15.92,5.22s-6.53,5.22-15.92,5.22-15.92-2.75-15.92-5.22S131.27,120.35,140.65,120.35Z"/><path d="M272.26,116a2,2,0,0,0,.82-.17l3.73,9.82c1.64,4.32,9.75,7.61,19.55,7.67s17.92-3.35,19.56-7.67h0l3.73-9.81a2,2,0,0,0,.81.17,2.06,2.06,0,1,0-2.06-2.06,1.73,1.73,0,0,0,.11.6l-7.42,3.29-.2-.1,0-10.33a2.07,2.07,0,1,0-1.71-.79l-7.67,6.22-4.49-12.45a2.07,2.07,0,1,0-1.39,0l-4.49,12.45-7.61-6.17a2,2,0,0,0,.49-1.31,2.06,2.06,0,1,0-4.12,0,2,2,0,0,0,1.86,2l0,10.34-.2.1-7.42-3.29a2,2,0,0,0,.11-.61,2.06,2.06,0,1,0-2.07,2.06Zm24.1,4.36c9.39,0,15.92,2.75,15.92,5.22s-6.53,5.22-15.92,5.22-15.92-2.75-15.92-5.22S287,120.35,296.36,120.35Z"/><path d="M194.65,158a2,2,0,0,0,.82-.17l3.73,9.82c1.64,4.32,9.75,7.61,19.55,7.67s17.91-3.35,19.55-7.67h0l3.72-9.81a2.06,2.06,0,1,0-1.24-1.89,2.11,2.11,0,0,0,.1.61l-7.41,3.28-.2-.1,0-10.33a2.07,2.07,0,1,0-1.71-.79l-7.67,6.22-4.49-12.45a2.06,2.06,0,1,0-1.4,0l-4.49,12.45-7.6-6.17a2,2,0,0,0,.48-1.31,2.06,2.06,0,1,0-2.26,2l0,10.34-.21.1-7.41-3.28a2.12,2.12,0,0,0,.1-.62,2.06,2.06,0,1,0-2.06,2.06Zm24.1,4.36c9.38,0,15.92,2.75,15.92,5.22s-6.54,5.22-15.92,5.22-15.92-2.75-15.92-5.22S209.37,162.35,218.75,162.35Z"/><path d="M116.06,68.26H77.79V436.84a38.26,38.26,0,0,0,38.27,38.26H321a38.26,38.26,0,0,0,38.26-38.26V68.26H116.06Zm6.8,396.64h-6.8A28.09,28.09,0,0,1,88,436.84V190.7h34.86Zm76.52,0H161.12V190.7h38.26Zm76.52,0H237.64V190.7H275.9ZM349,436.84A28.09,28.09,0,0,1,321,464.9h-6.8V190.7H349Zm0-256.35H88v-102H349Z"/><polygon points="205 130.91 218.75 120.93 232.51 130.91 227.27 114.75 241.01 104.75 224.01 104.74 218.75 88.58 213.49 104.74 196.5 104.75 210.24 114.75 205 130.91"/></g></g></svg>