<svg xmlns="http://www.w3.org/2000/svg" viewBox="0 0 151.85 54.65"><title>Recurso 3</title><g id="e1e6c927-9266-42fa-a126-d779a62418e9" data-name="Capa 2"><g id="ba7c2ab0-850a-4c5e-8734-45dd2bff754e" data-name="Layer 1"><path d="M19.45,2.42C9.57,14,.1,28.42,0,39.17A12.76,12.76,0,0,0,4.35,49.43a21.18,21.18,0,0,0,14.27,5.22c7.14,0,14.24-2.87,19.8-5.1C47.77,45.81,151.21.89,151.21.89c1-.49.81-1.12-.44-.81L38.17,30.59a24.64,24.64,0,0,1-6.53.93c-8.61.05-16.28-4.73-16.22-14.81,0-3.94,1.23-8.69,4-14.29Z" fill-rule="evenodd"/></g></g></svg>