<?xml version="1.0" standalone="no"?>
<!DOCTYPE svg PUBLIC "-//W3C//DTD SVG 1.1//EN" "http://www.w3.org/Graphics/SVG/1.1/DTD/svg11.dtd" >
<svg xmlns="http://www.w3.org/2000/svg" xmlns:xlink="http://www.w3.org/1999/xlink" version="1.1">
<metadata>
Created by FontForge 20170812 at Tue Feb  9 19:41:48 2021
 By www-data
Typeface (c) (chan sarath). 2021. All Rights Reserved
</metadata>
<defs>
<font id="CroatiaNikeEuro2021" horiz-adv-x="684" >
  <font-face 
    font-family="Croatia Nike Euro 2021"
    font-weight="400"
    font-stretch="normal"
    units-per-em="2048"
    panose-1="2 0 5 0 0 0 0 0 0 0"
    ascent="1638"
    descent="-410"
    x-height="1430"
    cap-height="1430"
    bbox="0 -303 2161 1577"
    underline-thickness="150"
    underline-position="-292"
    unicode-range="U+0009-25FC"
  />
<missing-glyph horiz-adv-x="748" 
d="M68 0v1365h544v-1365h-544zM136 68h408v1229h-408v-1229z" />
    <glyph glyph-name=".notdef" horiz-adv-x="748" 
d="M68 0v1365h544v-1365h-544zM136 68h408v1229h-408v-1229z" />
    <glyph glyph-name=".null" horiz-adv-x="0" 
 />
    <glyph glyph-name="glyph2" horiz-adv-x="682" 
 />
    <glyph glyph-name="uni001D" horiz-adv-x="0" 
 />
    <glyph glyph-name="uni001D" horiz-adv-x="0" 
 />
    <glyph glyph-name="uni0009" unicode="&#x9;" horiz-adv-x="508" 
 />
    <glyph glyph-name="space" unicode=" " horiz-adv-x="508" 
 />
    <glyph glyph-name="exclam" unicode="!" horiz-adv-x="459" 
d="M427 0v0v1430h-367l142 -224v0v-1206h225z" />
    <glyph glyph-name="quotedbl" unicode="&#x22;" horiz-adv-x="672" 
d="M197 1108h-30l-62 359q-4 23 -4 33q0 37 20.5 57t59.5 20t60.5 -19.5t21.5 -56.5q0 -8 -4 -34zM509 1108h-30l-62 359q-4 23 -4 33q0 37 20.5 57t59.5 20t60.5 -19.5t21.5 -56.5q0 -8 -4 -34z" />
    <glyph glyph-name="numbersign" unicode="#" horiz-adv-x="656" 
d="M497 0v0l133 184v716h-43l39 72v444h-566l159 -228h172v-197l-202 -315h206v-454l-3 -4h-170l-162 -218h437z" />
    <glyph glyph-name="dollar" unicode="$" horiz-adv-x="622" 
d="M364 1417v0h223v-602v-134v-681h-223v681h-177l-127 173v563h223v-512v-1h81v513z" />
    <glyph glyph-name="percent" unicode="%" horiz-adv-x="658" 
d="M645 1195v0h-336v-291l1 -2h174l133 -178v-567l-124 -157h-433l148 223h177l9 12v437l-5 7h-180l-123 175v564h409z" />
    <glyph glyph-name="ampersand" unicode="&#x26;" horiz-adv-x="677" 
d="M469 0v0l181 1247l-119 170h-471l159 -223h196l2 -3l-173 -1191h225z" />
    <glyph glyph-name="quotesingle" unicode="'" horiz-adv-x="346" 
d="M197 1108h-30l-62 359q-4 23 -4 33q0 37 20.5 57t59.5 20t60.5 -19.5t21.5 -56.5q0 -8 -4 -34z" />
    <glyph glyph-name="parenleft" unicode="(" horiz-adv-x="651" 
d="M495 1410v0l124 -174v-1091l-118 -145h-441l153 223h182l1 2v446h-177l-127 181v558h403zM396 894v0v289l-3 4h-78v-283l7 -10h74z" />
    <glyph glyph-name="parenright" unicode=")" horiz-adv-x="627" 
d="M469 1424v0l120 -143v-1131l-125 -150h-287l-117 158v1266h409zM366 231v0v969l-1 1h-82v-969l6 -9h70z" />
    <glyph glyph-name="asterisk" unicode="*" horiz-adv-x="626" 
d="M586 1258v0v-411l-38 -57l38 -58v-588l-120 -144h-279l-127 143v591l44 54l-44 54v568h401zM356 1187v0h-73v-286h80v277zM361 223v0l2 2v453h-79l-1 -2v-448l4 -5h74z" />
    <glyph glyph-name="plus" unicode="+" horiz-adv-x="1014" 
d="M437 647h-350v140h350v369l1 1h139v-370h349l1 -1v-139h-350v-370h-140v370z" />
    <glyph glyph-name="comma" unicode="," horiz-adv-x="557" 
d="M238 258q44 0 88.5 -65.5t44.5 -151.5q0 -109 -71 -226.5t-139 -117.5v43q73 43 87 190q0 119 -129 161v42z" />
    <glyph glyph-name="hyphen" unicode="-" horiz-adv-x="519" 
d="M465 540h-352v113h352v-113z" />
    <glyph glyph-name="period" unicode="." horiz-adv-x="212" 
d="M175 0h-127v127h127v-127z" />
    <glyph glyph-name="slash" unicode="/" horiz-adv-x="569" 
d="M93 -50h-80l541 1484h80z" />
    <glyph glyph-name="zero" unicode="0" horiz-adv-x="634" 
d="M178 1312v0h238l57 -69v-1050l-62 -75h-174l-59 80v1114zM367 232v0v973l-1 1h-82v-973l6 -9h71zM471 1430v0l120 -144v-1135l-125 -151h-288l-118 159v1271h411zM485 189v0v1059l-64 76h-255v-1130l65 -88h185z" />
    <glyph glyph-name="one" unicode="1" horiz-adv-x="461" 
d="M133 1312v0h174v-1312h-106v1206v0zM60 1430v0h365v-1430h-106v1324h-193z" />
    <glyph glyph-name="two" unicode="2" horiz-adv-x="691" 
d="M522 1318v0h-392l-70 100h562v-578l-121 -158h-179l-15 -22v-435l10 -13h335l-74 -100h-311l-60 80v498l61 92h184l70 92v444zM261 100v0h308l-74 -100h-285l-115 155v569l112 170h189l14 18v294h-202l-70 100h372v-428l-64 -84h-185l-65 -100v-506z" />
    <glyph glyph-name="three" unicode="3" horiz-adv-x="658" 
d="M589 904v0h44v-719l-135 -185h-438l83 111h309l69 84v608h-116l110 188l1 1v325h-382l-74 105h568v-446zM394 219v0l3 4v456h-207l202 316v198h-172l-78 112h362v-309l-119 -205h124v-592l-62 -76h-296l72 96h171z" />
    <glyph glyph-name="four" unicode="4" horiz-adv-x="622" 
d="M483 1423v0h106v-605v-134v-684h-106v790v28v605zM365 908v0v515h106v-605v-16h-243l-50 75v546h106v-514v-1h81zM166 873v0l55 -83h250v-790h-106v684h-178l-127 174v565h106v-550z" />
    <glyph glyph-name="five" unicode="5" horiz-adv-x="670" 
d="M390 682v0h-180l-124 175v567h410l72 -106h-376v-444l54 -86h199l56 -79v-510l-64 -81h-299l70 106h178l9 12v439zM311 906v0h175l133 -179v-569l-124 -158h-435l70 106h313l70 89v518l-62 87h-198l-49 77v429h372l72 -106h-338v-292z" />
    <glyph glyph-name="six" unicode="6" horiz-adv-x="650" 
d="M622 1193v0h-338v-294h181l126 -176v-541l-128 -182h-277l-126 188l4 1233h413l70 -110h-381v-1116l64 -89h183l72 87v520l-57 80h-250v506h377zM408 118v0h-172l-58 81v582h243l52 -72v-512zM284 675v0v-442l6 -9h68l9 11v440h-83z" />
    <glyph glyph-name="seven" unicode="7" horiz-adv-x="679" 
d="M352 0v0h-107l174 1196l-2 3h-197l-76 106h328l58 -82zM533 1423v0l120 -171l-182 -1252h-107l178 1223v3l-64 91h-342l-76 106h473z" />
    <glyph glyph-name="eight" unicode="8" horiz-adv-x="624" 
d="M222 787v0h207l42 -72v-527l-59 -70h-171l-63 70v518zM365 226v0v455h-80l-1 -2v-450l4 -5h75zM178 1298v0h229l64 -77v-349l-42 -73h-208l-43 77v422zM365 905v0v278l-8 9h-73v-287h81zM588 1249v0v-399l-38 -57l38 -58v-561l-121 -174h-279l-128 174v563l45 54l-45 55
v570h402zM482 869v0v356l-69 85h-247v-437l45 -81l-45 -83v-525l69 -78h183l64 77v535l-43 75z" />
    <glyph glyph-name="nine" unicode="9" horiz-adv-x="643" 
d="M497 1416v0l124 -174v-1096l-118 -146h-443l73 106h319l63 78v1041l-60 85h-256v-439l62 -91h243v-592l-57 -70h-306l73 106h182l2 1v449h-178l-128 182v560h405zM210 1298v0h239l55 -76v-430h-237l-57 83v423zM398 898v0v290l-3 4h-79v-284l7 -10h75z" />
    <glyph glyph-name="colon" unicode=":" horiz-adv-x="1229" 
d="M799 264v0l1 1l1 1q5 6 10 11q10 12 21 25q58 73 104 154q65 116 113 239q47 118 82 240q30 101 53 205q2 8 3 16q3 15 6 29q2 6 0 12h-5q-6 1 -11 1q-8 1 -15 2q-20 1 -39 3q-35 5 -70 14q-61 16 -113 52q-56 37 -85 97q-14 27 -18 57v5v2h-419v-2q-1 -1 -1 -3t-1 -5
q0 -5 -1 -11q-10 -42 -36 -77q-37 -51 -94 -81q-51 -27 -107 -39q-25 -6 -51 -9q-6 -1 -12 -1q-10 -2 -21 -3q-10 0 -20 -1q-6 0 -12 -1h-1h-1v-2v-1q0 -9 2 -17q1 -2 2 -5q13 -65 29 -129q41 -161 100 -316q41 -110 95 -215q45 -87 102 -167q29 -41 62 -78q2 -2 2.5 -3
t-0.5 -3q-10 -24 -14 -50q-1 -7 -1 -13q0 -7 7 -7q4 -1 8 -1q3 -1 6 -1q5 -1 7 4v3v1q1 3 1 5q1 5 2 9q8 36 23 70q8 18 17 36q3 7 7 14v0q1 2 1 4t-1 3q-2 0 -4 -1t-3 -3l-4 -2q-23 45 -41 93q29 -4 57 -8l1 -1q0 -2 1 -3q0 -4 1 -8q1 -5 2 -9q0 -5 1 -10q3 -16 6 -33
q1 -4 -1 -8q-15 -24 -27 -50q-21 -50 -32 -102q-1 -5 0 -7t6 -3q14 -4 28 -4h31q9 0 9 10v1q0 3 1 6q7 45 26 86q21 44 50 83q2 2 3 5l2 2h7v-1v0l-8 -12q-39 -52 -61 -113q-10 -28 -13 -58q-1 -6 1 -8t8 -1q28 2 53 11q8 3 10 11q12 46 38 86q21 32 47 61q2 2 5 2q2 0 3 2
v4q1 3 1 6q4 23 9 47q0 3 1 5v3q30 4 58 8q-1 -5 -6.5 -19t-13 -30t-13.5 -28.5t-9 -14.5h-1l-2 2l-6 4q-6 4 -12 9q-3 1 -4.5 1t-3.5 -2l-12 -14q-3 -4 -3 -6t4 -5q15 -12 28 -26q39 -40 68 -89q1 -3 3 -6t5 -7v0q0 -1 1 -1.5t2 -0.5v1q1 2 1 3q-1 35 -16 68zM626 372v0
l-2 -2q-1 -2 -1 -3q-29 -39 -50 -83q-20 -41 -27 -86q-1 -3 -1 -6v-4q0 -6 -6 -6h-3q-23 -1 -46 2q-5 1 -9 2t-4.5 2t0.5 4q7 32 18 63q15 47 41 90q3 4 2 8q-3 14 -6 29q0 2 -1 5q-2 14 -5 28q0 5 -5 6l-20 2q-12 2 -24 3l-10 2h-1h-2q-4 0 -3 -4q0 -1 1 -2v0
q18 -44 39 -87v-1q1 -1 2 -3q3 -4 7 -1q0 1 1 1q0 1 1 2q1 -1 0.5 -2t-0.5 -2l-1 -1q-17 -34 -31 -70q-11 -29 -16 -60v-2v0q-1 -3 -2 -3.5t-4 -0.5l-10 2q-4 0 -5 1t-1 5q1 7 2 15q4 23 13 45q2 4 -1 8q-95 108 -161 237q-50 96 -89 197q-60 152 -101 309q-21 80 -38 160
q-2 9 -4 17v4v2h1h1q6 1 12 1q10 1 21 2q92 5 176 44q65 31 108 89q25 35 35 77q1 5 2 11q1 2 1 4t1 3v2h412q1 -3 1 -6q1 -6 3 -13q11 -50 44 -90q40 -48 96 -75q46 -23 98 -34q26 -6 52 -9q16 -2 32 -3q6 -1 12 -1q6 -1 13 -1q3 -1 6 -1v-3v-6q-3 -17 -7 -33q0 -2 -1 -4
q-22 -102 -51 -202q-30 -105 -68 -208q-39 -103 -88 -202q-50 -100 -115 -191q-26 -37 -56 -70q-1 -1 -2 -3l-4 -4q-3 -3 -1 -8q8 -18 12 -39l2 -14q1 -4 1 -7h-1l-1 1q-1 2 -2 3q-25 44 -59 82q-18 21 -40 38q-3 2 -3 3.5t2 3.5l10 10q2 3 4 5q1 -1 3 -2t5 -3l2 -2
q6 -4 11 -8q4 -2 6 -1.5t4 4.5l26 56q5 11 9 21l4 10v0q0 1 1 2q0 5 -5 5q-4 -1 -9 -1q-6 -1 -13 -2q-2 -1 -3 -1q-13 -2 -26 -3q-6 0 -7.5 -1.5t-2.5 -7.5q-2 -11 -4 -21q-2 -14 -5 -28q0 -4 -1 -6v-2q-1 -1 -3 -1l-3 -3q-28 -30 -50 -64q-25 -40 -37 -85q-2 -7 -8 -9
q-26 -10 -53 -11h-3h-2v5q1 5 1 10q6 35 20 68q21 51 54 95q1 1 2 3q3 3 5 6t6 3q19 -3 38 -8q1 -1 3 -1q1 0 2 -1v2q1 2 1 4q1 8 3 15l8 50q5 30 9 59q4 27 8 55l6 40q0 2 1 5v6q3 20 6 41q1 11 2 21q1 8 2 15q1 9 2 17l2 18q2 12 3 25q1 6 2 13q0 6 1 12q1 13 3 25
q2 18 4 35v5l2 16l6 54l2 22l2 18q0 7 1 14l2 16q0 8 1 15t1 14q1 10 2 21q2 12 3 25q1 9 2 19q0 8 1 15q1 9 1 18q1 8 2 17q2 19 3 38l1 1v5q2 24 4 47q1 12 2 25q1 12 2 25l2 22q1 14 3 28q1 14 2 27v1q1 11 1 23q1 17 3 33v4q1 2 1 3q0 3 -1 4.5t-4 1.5h-3h-1h-337
q-6 0 -7 -1t0 -7l2 -26q1 -16 2 -33t3 -34q1 -11 2 -21q0 -9 1 -18l2 -22l2 -30q1 -10 2 -21l2 -16q0 -10 1 -20q1 -11 2 -21q1 -8 2 -15q0 -7 1 -13q0 -8 1 -16q1 -13 3 -27q1 -10 1 -20l2 -14q1 -10 2 -21l2 -24l2 -18l2 -24l4 -42l4 -36q1 -10 3 -21q0 -7 1 -15
q1 -11 3 -23l6 -52l4 -36q1 -9 2 -17q1 -13 3 -27q1 -10 3 -21l2 -16l2 -20q2 -12 3 -23q3 -23 6 -45l10 -62q5 -34 11 -67q2 -14 5 -29l2 -12v-1v-2q1 -3 2.5 -4t4.5 0l8 2q7 2 15 3q15 4 32 3zM454 1393v0h346v-6q-1 -8 -1 -16q-1 -3 -1 -6q0 -8 -1 -15q-1 -15 -2 -29
q-2 -18 -3 -37q-1 -8 -1 -15l-2 -16q-1 -16 -2 -31l-2 -20q-1 -8 -1 -16l-2 -22l-4 -42q-1 -15 -3 -29q0 -8 -1 -15q-1 -10 -2 -19l-2 -24l-2 -20q-1 -8 -1 -16q-1 -10 -2 -21l-2 -20l-2 -12q0 -6 -1 -12q0 -6 -1 -13q-2 -20 -4 -41l-4 -32l-2 -22q-1 -9 -2 -17q0 -6 -1 -12
l-2 -20q-2 -11 -3 -23q-1 -6 -1 -13l-2 -14q-1 -12 -3 -24q-1 -14 -3 -27q-1 -5 -1 -9q-1 -7 -2 -15q-2 -17 -4 -35q-5 -34 -10 -69q-5 -40 -12 -79q-3 -24 -7 -48q-2 -11 -4 -23q-1 -7 -3 -15q-1 -5 -2 -11v-4q0 -1 -1 -2q-59 18 -118 0v2q-1 2 -1 3q-2 13 -5 25l-10 64
q-4 23 -7 46q-2 11 -3 22q-2 9 -3 17l-4 32q-2 9 -3 19q-1 7 -2 15q-1 11 -3 22q-1 12 -3 24q-1 10 -2 21q-1 8 -2 15q-1 10 -2 19q-2 12 -3 23q-1 10 -2 19l-2 12q-1 11 -2 21q-1 8 -2 17q-1 13 -3 26v5q-1 5 -1 10q-2 14 -3 28q-1 10 -2 19t-2 17q-1 7 -1 13q-1 7 -2 15
q-1 7 -1 15q-1 7 -2 13q-1 11 -2 21t-2 21q-1 16 -3 31v7q-2 23 -5 47q-2 22 -4 45q0 7 -1 15q-1 9 -1 17q-2 22 -4 43l-2 22q-1 9 -1 18l-2 22q-2 14 -3 28t-2 27q0 7 -1 14q0 6 -1 13l-2 26v7v4zM816 175v0q-1 1 -1 2q-1 3 -2 5q-1 3 -2 5t-2 3q-21 39 -48 72
q-26 30 -54 57l-2 2t-2 1q-3 2 -6 0q-1 -1 -3 -2q-22 -23 -35 -53q-1 -2 -0.5 -3.5t2.5 -3.5l2 -2q1 0 1 -1q29 -21 52 -49q41 -51 66 -113v0l2 -4q3 -3 5 0l2 4q0 1 1 2q20 36 24 78zM700 320v0q1 0 1 -1q1 0 2 -1l4 -4q26 -25 50 -53q27 -32 47 -68q0 -1 1 -2q2 -4 5 -9
q2 -4 1 -8q-2 -39 -21 -73q-1 -2 -2 -5q-1 -1 -2 -3q0 2 -1 3q-1 2 -1 3q-25 60 -65 111q-23 29 -53 50l-1 1h-1q-2 2 -2.5 3t1.5 3q7 17 17 31l12 14q2 3 5 5l2 2q0 1 1 1zM462 100v0q0 -2 1 -4l2 -4v0q20 -34 53 -57q6 -5 15 -5h9h3q26 0 51 2q29 3 57 10q26 6 51 13
q2 1 4 1q4 1 5 3t-1 7l-2 4q-4 8 -8 15q-8 16 -18 31q-3 6 -6 6.5t-9 -1.5q-1 0 -2 -1l-6 -2q-47 -19 -99 -21q-44 -3 -88 3l-1 1h-5t-6 -1zM466 98v0h4q4 -1 8 -1q32 -5 64 -4q23 1 47 3q37 4 72 18q5 3 11 5q3 1 4.5 0.5t3.5 -3.5l1 -1q7 -11 13 -22q6 -10 11 -20l4 -8
q0 -1 1 -3v-1l-1 -1q-2 -1 -3 -1q-39 -12 -78 -19q-37 -7 -74 -6q-10 0 -19 -1q-9 0 -16 5q-31 22 -51 55q0 1 -1 3q-1 1 -1 2zM633 196v0q-1 -7 6 -13q46 -46 71 -106q6 -14 11 -28q3 -7 5 -14t8 -2q26 18 45 43q4 6 1 13q-22 54 -56 100q-27 39 -65 66q-4 3 -6 2.5
t-3 -4.5q-6 -12 -11 -24q-5 -15 -6 -33zM730 35v0q-1 3 -3 7q-2 8 -5 16q-15 41 -40 78q-18 27 -41 50q-5 4 -5 11q1 16 6 30q4 9 7 18l4 6q0 1 1 2v1q4 -2 7 -5q7 -5 14 -11q37 -32 63 -74q22 -36 39 -76q2 -5 -1 -11q-19 -24 -44 -42h-1h-1zM539 102v0q22 0 45 2
q26 3 51 10q18 5 34 13q4 1 4.5 3t-1.5 5q-1 1 -2 3q-6 11 -13 21q-10 14 -25 23q-5 3 -10 1l-18 -4q-27 -6 -54 -7q-43 -1 -84 8q-2 1 -5 1q-9 2 -17 3q-3 1 -4 0t-1 -4v-4q1 -2 1 -4q2 -30 14 -57q2 -7 9 -7q6 -1 13 -2l24 -2q14 -1 27 -2h12zM671 131v0q-4 -2 -7 -3
q-6 -3 -13 -5q-27 -10 -55 -14q-39 -5 -78 -3q-27 0 -55 5q-5 1 -6 5q-7 15 -10 32q-2 9 -3 19q-1 3 -1 7q0 2 -1 5v3q2 -1 4 -1q3 -1 7 -2l14 -2l34 -6q30 -4 59 -2q31 2 62 11q5 2 9 -1q2 -2 5 -4l12 -10q13 -15 23 -34zM627 0v0q15 -1 31 2q32 6 61 21q4 2 4.5 4t-1.5 6
q-2 5 -3 9q-1 3 -3 5q-1 3 -2.5 4t-4.5 -1q-2 -1 -5 -2l-6 -2q-56 -18 -116 -21q-10 0 -21 -1h-12v0q-2 -1 -3 -1t-1.5 -0.5t-0.5 -1.5v-1t1 -2h0.5h1.5v-1q36 -17 77 -17h2h1zM713 48v0q1 -2 2 -5q2 -5 4 -11q1 -2 1 -3.5t-3 -2.5q-22 -12 -45 -18q-5 -1 -11 -2q-4 0 -7 -1
q-24 -4 -47 -1q-22 1 -42 9q-3 2 -7 3q-3 1 -6 3q-1 0 -2 1h-1q3 1 6 1q6 0 12 1h12q16 1 31 3q51 4 99 22q1 0 2 1h2zM807 1013v0v0v0q5 0 9 1q10 1 19 2q13 1 25 2q19 2 38 3q18 2 35 4q5 1 10 1q3 1 4.5 2t2.5 4q3 18 6 35q6 37 13 74q4 27 9 54q1 6 -1 8t-8 1
q-11 -2 -23 -3q-8 -1 -17 -1q-4 -1 -8 -1q-7 -1 -13 -1l-28 -2l-30 -2q-9 -1 -19 -1q-2 -1 -4 -1h-5t-4.5 -1t-1.5 -5q-1 -9 -1 -18l-2 -20l-2 -28q-2 -23 -5 -47q-1 -17 -3 -34q0 -4 -1 -8q-1 -7 -1 -14q0 -2 1 -3t3 -1h2v0zM804 1016v0l8 90l8 82q5 1 9 1q10 1 21 2
q12 1 23 1l30 2q20 2 39 4q11 1 23 2q5 0 10 1v-2v-4q-9 -52 -18 -105q-3 -14 -5 -28q-3 -14 -5 -28q-1 -4 -5 -4q-7 -1 -13 -2q-4 0 -8 -1h-5q-12 -2 -24 -3t-24 -3q-10 0 -20 -1l-20 -2q-7 -1 -13 -1q-4 -1 -8 -1h-2h-1zM453 1019v0v1v2q-1 5 -1 11q-2 12 -3 24l-2 24
q0 5 -1 10q0 8 -1 16q-2 17 -3 35q-1 8 -2 15q0 10 -1 20q-1 4 -1 8q-1 2 -1 3q0 3 -3 4h-2q-4 0 -8 1q-10 0 -20 1l-28 2q-16 1 -33 2q-7 1 -13 1q-2 1 -5 1q-5 0 -10 1q-7 0 -14 1q-10 1 -19 2q-8 1 -6 -6q1 -6 2 -11q0 -4 1 -8q2 -10 3 -20q3 -20 7 -40l10 -56
q2 -13 5 -26q0 -5 1 -7t3 -2.5t7 -1.5v0v0q8 -1 15 -2q18 -1 37 -3q2 -1 5 -1q18 -2 35 -4q20 -1 40 -3q4 0 5 1t1 5zM450 1016v0h-3t-4 1q-8 0 -17 1q-14 1 -29 3q-12 1 -25 2l-16 2q-15 1 -29 3q-6 0 -11 1h-1h-1q-3 0 -4 0.5t-1.5 2t-1.5 3.5l-2 14q-7 38 -14 75
q-4 27 -8 53q-2 9 -4 19v3v2l24 -2q27 -3 53 -5l54 -4q12 -1 24 -1q0 -3 1 -5q0 -5 1 -10q1 -10 2 -21q0 -8 1 -16q2 -23 4 -47v-1v-3q2 -17 3 -34q1 -9 2 -19q1 -6 2 -13v-3v-1zM310 836v0q5 0 4 4q-3 11 -5 23q-2 11 -5 22q-9 44 -18 87l-4 22q-1 7 -8 8q-5 0 -10 1h-3
l-10 2q-12 1 -24 3q-12 1 -24 3l-12 2q-10 1 -20 3q-9 1 -17 2q-3 1 -6 1q-4 1 -8 1q-7 1 -5 -5q0 -1 1 -3v0q1 -5 2 -9l6 -20q7 -25 15 -51q11 -35 21 -70q2 -8 10 -8q3 0 6 -1h2q7 -1 15 -3q19 -3 38 -5l26 -4l10 -2q9 -1 17 -2q3 -1 6 -1zM310 839v0q-4 1 -8 1
q-10 2 -18 3q-5 1 -10 1q-13 2 -27 4q-20 3 -40 7q-6 0 -11 1q-2 0 -3 1q-2 0 -5 1q-3 0 -4 4q-3 8 -5 16l-4 12q-19 61 -36 123q0 1 -1 2v2h4q5 -1 9 -1q25 -4 51 -8q7 -1 13 -2q12 -2 23 -3q10 -1 19 -2q4 -1 8 -1q1 -1 3 -1h4q4 -1 5.5 -2t1.5 -5q2 -11 4 -21l6 -30
q4 -19 8 -37q3 -13 5 -26l6 -26q1 -4 1 -8q1 -2 1 -3v-2zM1120 1021v0q-1 0 -3 -1h-5q-13 -2 -27 -4l-16 -2q-4 -1 -9 -2q-14 -2 -27 -3q-15 -2 -29 -4q-3 0 -5 -1q-4 0 -9 -1q-5 0 -11 -1t-7 -7q-2 -12 -5 -24v-3q-9 -43 -17 -85q-3 -13 -6 -25q-1 -8 -3 -15q-2 -9 6 -7
l10 2v0l16 2l26 4l42 6l14 2l10 2t8 5l2 6q24 75 44 151q1 1 1 3v2zM1116 1017v0l-2 -8q-2 -7 -4 -15q-18 -65 -38 -129q-2 -8 -10 -8q-1 0 -2 -1h-1q-8 -1 -15 -2q-27 -4 -55 -8q-16 -3 -32 -5q-5 -1 -11 -1q0 -1 -1 -1h-1q0 4 1 7q1 6 3 12l4 20q8 43 17 86l4 20l2 10
q0 2 1 3t5 2q7 1 15 2q7 1 14 1l38 6q12 1 23 3l14 2q12 2 25 3q2 1 4 1h1h1zM469 819v0q5 -1 4 7v0q-1 3 -1 6l-2 14q-1 11 -2 21l-2 24q-1 8 -2 15v2q-2 20 -4 39q-1 9 -2 17q0 7 -1 14q0 2 -1 3.5t-4 1.5q-6 1 -12 1h-1q-5 1 -10 1l-18 2q-13 1 -25 2q-4 1 -8 1l-20 2
l-20 2q-1 1 -2 1q-9 1 -18 1q-7 1 -6 -5q0 -2 1 -3q2 -12 5 -25q7 -34 13 -67q5 -24 11 -48l2 -12q1 -3 2 -4t4 -1q5 0 10 -1l16 -2q13 -1 25 -2q6 -1 12 -1q2 -1 5 -1q10 -1 19 -2q10 -1 21 -2q5 -1 11 -1zM315 993v0h1h1q63 -6 126 -13q5 0 11 -1q0 -8 1 -16l4 -36
q1 -12 2 -25q2 -14 3 -27q2 -18 4 -37q1 -8 1 -16q-60 6 -121 12q-17 79 -33 159zM943 995v0q-5 2 -9 1q-6 0 -11 -1q-3 0 -7 -1q-16 -1 -32 -3q-7 -1 -14 -1q-6 -1 -11 -1q-11 -1 -21 -2l-14 -2q-4 0 -9 -1q-6 0 -13 -1q-2 0 -3 -1t-2 -4v-2v-1q-1 -6 -1 -12q-1 -13 -3 -26
q-1 -10 -2 -21l-2 -16l-2 -24q-2 -15 -3 -29q0 -4 -1 -8q-1 -7 -1 -14q-1 -7 6 -6q4 0 8 1h4q4 1 8 1q12 1 23 3q9 0 18 1l16 2q7 0 14 1q11 1 21 2q6 1 8 3t3 7l10 50l16 74q2 11 4 21zM785 823v0l14 136l2 20l1 1h4l58 6q8 1 16 1l20 2q9 1 19 3q4 0 8 1v0q6 1 12 0
q-1 -4 -1 -7q-2 -8 -3 -15q-12 -55 -23 -110l-4 -20v0q0 -1 -1 -3q-1 -4 -4 -4l-34 -4h-4l-20 -2l-22 -2l-36 -4h-1q-1 0 -1 1zM980 1036v0q-1 -5 3 -5q6 1 11 1h1q7 2 15 3q11 1 22 3q7 1 14 1q9 2 17 3l30 4q3 1 6 1l24 4q6 1 7 6q1 2 1 3v1q1 5 2 9l6 26q1 2 1 5l14 58
q1 4 0 5.5t-6 2.5q-3 0 -6 1h-6q-5 1 -9 1q-16 2 -32 5q-41 7 -81 21q-4 1 -5.5 0t-2.5 -5q-1 -8 -3 -17q-1 -8 -2 -15q-8 -46 -16 -91l-2 -12q-1 -7 -2 -13q-1 -3 -1 -6zM1010 1193v0q35 -12 70 -20q35 -6 71 -9q0 -4 -1 -8q-1 -7 -3 -13q-7 -31 -14 -61q-2 -10 -5 -20v-1
q0 -1 -1 -2q-1 -5 -5 -5l-10 -2q-14 -2 -27 -4q-31 -4 -62 -9q-7 0 -13 -1q-11 -2 -21 -3h-4h-2q14 79 27 158zM274 1037v0v0v2q-3 15 -6 31l-12 70q-2 15 -5 30q-2 10 -3 21q-1 4 -2.5 4.5t-4.5 -0.5q-39 -13 -78 -20q-28 -6 -56 -8q-5 0 -6.5 -2t-0.5 -7q2 -7 4 -15
q2 -11 5 -22q4 -20 9 -40l6 -24q1 -6 7 -6q6 -1 11 -2h5l12 -2q14 -2 28 -5l44 -6l38 -4q6 -1 5 5zM244 1193v0q9 -54 18 -107q5 -26 9 -51h-4q-3 0 -7 1q-4 0 -9 1q-13 2 -27 3q-19 3 -37 6q-13 2 -27 4q-7 1 -15 2h-3l-10 2q-4 0 -5 5q-4 14 -7 29l-10 40l-4 18
q-1 6 -2 13q-1 3 -0.5 4t4.5 1q64 5 125 25q4 1 7 2zM357 653v0v3q0 2 -1 4q-18 69 -33 139q-1 4 -2.5 5.5t-5.5 1.5q-5 1 -10 1q-14 2 -27 4q-29 4 -58 9q-10 1 -21 3q-6 1 -4 -5q1 -3 2 -5q3 -9 6 -17q21 -61 45 -120q2 -5 8 -6q10 -1 20 -3l8 -2l14 -2q25 -4 49 -9h6
q2 -1 4 -1zM354 657v0q-3 0 -6 1q-6 0 -12 1q-13 3 -27 5q-26 5 -51 9q-6 1 -7 6q-26 64 -49 129q-1 4 -3 8q0 2 -1 4q2 0 3 -1h7q17 -3 35 -6q6 -1 13 -2q5 -1 11 -2q15 -2 29 -4l18 -2q3 0 4 -1t2 -4q1 -7 3 -15q4 -17 8 -35q8 -30 15 -60q3 -13 7 -26v-3q1 -1 1 -2z
M897 654v0h1q2 -1 3 -1v1q5 0 9 1q16 2 32 5l54 10q8 1 10 8l16 40q9 24 19 48q7 19 13 38q3 6 5 13q3 8 -6 6q-3 0 -5 -1l-28 -4l-38 -6q-10 -1 -20 -3q-4 0 -9 -1l-16 -2q-4 -1 -5 -5v-1l-1 -1q-1 -7 -3 -13q-3 -14 -6 -27q-8 -33 -16 -65q-4 -18 -8 -35q-1 -2 -1 -3v-2z
M900 657v0q1 3 2 5q1 6 3 12q14 62 29 124v0l1.5 3t1.5 1.5t3 0.5q10 1 19 2q18 3 36 5l38 6q9 2 17 3q2 1 4 1h2v-1q0 -1 -1 -2q-23 -70 -52 -138q-1 -5 -8 -6q-24 -4 -49 -9q-9 -2 -18 -3q-2 -1 -4 -1q-8 -1 -15 -2q-3 -1 -6 -1h-3zM358 800v0q-4 1 -5 0t0 -5v0q0 -1 1 -2
q1 -7 3 -14q15 -62 30 -123q1 -5 3.5 -7t7.5 -2q11 -1 21 -2q28 -4 55 -7q4 0 9 -1h2q2 0 3 -1q7 -1 6 6v1v1q-1 4 -1 9l-4 26l-2 24q-2 12 -3 23t-3 23q-1 11 -2 21q-1 3 -1 5q0 4 -1 8q0 4 -2 5.5t-6 1.5h-3h-6l-40 4q-10 1 -19 2q-6 1 -13 1q-10 1 -21 3h-9zM490 639v0
q-9 1 -19 2q-23 3 -45 6q-14 1 -28 3h-1q-3 0 -4.5 1.5t-1.5 4.5q-18 69 -35 139v1v1h1h3q10 -1 19 -2q22 -2 43 -4l18 -2q5 0 10 -1h8q6 -1 12 -1q2 0 3 -1.5t1 -2.5q1 -3 1 -7q0 -5 1 -9q1 -14 3 -27l2 -18q3 -21 5 -43l2 -10v-5l2 -20q1 -1 0 -3v-2zM766 636v0q4 1 8 1
q10 1 20 3l20 2q5 0 9 1q5 0 10 1q12 1 24 3q7 0 9 7q0 1 1 2v4q3 9 5 18q12 46 23 91q3 14 6 27q1 6 -4 5q-12 -1 -25 -3q-6 0 -13 -1q-12 -2 -24 -3l-28 -2q-6 -1 -12 -1q-5 0 -10 -1q-4 0 -6 -1.5t-2 -6.5v-3q0 -1 -1 -1q-1 -9 -1 -17q-3 -18 -5 -37q0 -5 -1 -9
q-2 -17 -4 -35q-1 -10 -3 -21l-2 -16q-1 -4 0.5 -5.5t5.5 -1.5zM898 798v0l-2 -8q-1 -8 -3 -16q-12 -46 -23 -91q-3 -11 -5 -22q-1 -2 -1 -3q-2 -5 -3.5 -6.5t-6.5 -1.5q-15 -2 -31 -4l-22 -2q-12 -2 -24 -3l-12 -2h-1h-1v1v2q2 16 4 31q3 25 6 51q3 18 5 36q1 11 2 21
q0 4 1 5t5 1q5 1 9 1h8q24 3 49 5q14 1 29 3q5 0 11 1q2 0 4 1h2zM989 636v0q-2 2 -4 2h-3h-1l-8 -2q-26 -4 -51 -9l-28 -4q-5 0 -7 -4l-2 -6q-19 -71 -44 -140q-1 -5 4 -6q1 0 2 1h1q5 1 9 2q8 1 17 3h1l30 6q6 2 10 8q38 69 70 140l2 6q1 2 2 3zM844 471v0q2 3 3 6l4 14
q20 60 37 120q0 2 1 4q1 4 6 5q28 5 55 9q15 3 29 5h3h2q0 -1 -1 -1q0 -2 -1 -3q-32 -72 -70 -142q-3 -5 -8 -5l-38 -8q-10 -2 -19 -4h-2h-1zM407 468v0q7 -1 5 5q0 1 -1 3v2q-4 13 -9 26q-10 33 -20 65q-7 22 -13 43q0 3 -1 5q-1 5 -6 6q-4 0 -9 1q-2 0 -3 1q-6 1 -13 2
l-28 4q-13 2 -26 5q-5 1 -11 2h-2t-2 -1t-1 -2.5t1 -2.5q2 -5 4 -9l6 -16q23 -49 49 -97q4 -7 7 -13l4 -8q5 -9 15 -10h2q7 -2 14 -3q11 -3 21 -5l12 -2q3 -1 5 -1zM270 635v0q3 -1 6 -1l10 -2l50 -8q2 -1 5 -1q10 -2 20 -3q2 0 3 -1.5t1 -3.5v0q3 -11 7 -22q7 -26 15 -51
l14 -46q4 -10 7 -20q0 -2 1 -3q0 -1 1 -2h-2h-2l-26 6q-12 2 -23 5q-3 0 -5 1q-7 0 -11 6q-1 4 -3 7q-1 1 -1 3q-5 9 -10 19q-12 21 -23 43q-11 24 -23 49q-4 10 -9 20q-1 1 -1 3q-1 1 -1 2zM740 451v0h2q3 0 5 1q5 0 9 1q22 3 43 6q8 1 11 9q19 55 35 112q1 3 2 7
q4 11 7 23q2 8 -6 7q-4 0 -7 -1l-16 -2q-19 -2 -37 -4h-2l-10 -2q-8 0 -15 -1q-3 -1 -4.5 -2t-1.5 -5q-1 -6 -1 -11q-3 -17 -5 -33q-1 -9 -3 -18l-2 -14q-2 -16 -4 -31l-4 -22l-2 -12q-1 -9 6 -8zM851 614v0v-2q0 -2 -1 -3q-19 -70 -43 -139q-2 -7 -10 -8q-17 -2 -35 -5
q-10 -1 -20 -3h-3h-2v1q0 2 1 3q1 9 3 18q2 18 5 36q2 11 3 22q1 7 2 15l4 24l2 20q1 2 1 4v3t1 3t3 1q8 1 17 2l38 4q10 1 21 2l10 2h2h1zM513 451v0q4 -1 5.5 0.5t1.5 5.5q-1 4 -1 7q-1 2 -1 5v3l-6 40q-2 14 -4 29q-2 10 -3 21l-6 40q-1 3 -2 4t-3 1q-4 0 -7 1h-6
q-15 2 -30 3q-13 2 -27 4l-16 2v0h-4q-5 0 -5 -5q1 -2 1 -4q1 0 1 -1l6 -22q8 -27 17 -54l14 -42q4 -11 8 -23q1 -6 7 -7q12 -1 25 -3l12 -2l16 -2q4 -1 7 -1zM402 614v0q20 -2 40 -5q27 -3 53 -6q4 -24 7 -47q7 -51 15 -102q-2 -1 -4 -0.5t-4 0.5q-2 1 -3 1q-14 2 -27 4
q-12 1 -23 3q-6 0 -8 6q-20 56 -36 112q0 1 -1 2q-3 12 -7 24v3q-1 1 -1 3q0 1 -1 2zM474 293v0q2 1 3 2q2 3 4 5q3 4 1 9q-2 4 -4 7q-26 51 -46 105q-2 3 -3 7q-4 7 -12 8q-3 1 -6 1q-5 1 -9 2l-32 6v0q-1 1 -2 1t-2 -1v-2v-2v0q0 -1 1 -2v0q2 -4 4 -7q43 -70 96 -131
q2 -3 5 -5q1 -2 2 -3zM369 442v0q3 0 6 -1q7 -2 13 -3l26 -4q9 -1 12 -9q3 -5 5 -11q0 -1 1 -3q19 -49 44 -96v-1q1 -1 1 -2q3 -5 2.5 -7.5t-5.5 -6.5q0 1 -1 2q-2 2 -4 3q-23 27 -44 56q-29 39 -55 81v1t-1 1zM780 294v0q12 11 37 44t47 65.5t25 41.5q-1 1 -2.5 1h-2.5
t-1 -1q-6 -1 -13 -2q-17 -4 -35 -7q-8 -2 -11 -10q-18 -48 -40 -94q-2 -4 -5 -8l-6 -12q-5 -12 7 -18zM780 298v0q-4 3 -5 5.5t1 5.5q1 3 2 5q28 54 49 110q2 8 10 9q16 3 31 6q6 1 13 3h2h2q-46 -77 -105 -144zM424 1338v0q-4 -3 -6 -7q0 -1 -1 -2q-36 -57 -93 -94v0
l-1.5 -1.5t-0.5 -2.5q0 -1 1.5 -1.5t2.5 -0.5h2q7 -1 14 -1q7 -1 15 -2q12 -1 23 -2q17 -1 35 -2q7 -1 14 -1h1h2q3 0 3 3t-1 5v11q-1 6 -2 13l-2 20l-2 38q-1 9 -1 18q0 4 -3 9zM423 1331v0q1 -17 3 -34q3 -36 5 -73q-41 2 -83 6l-22 2q1 1 2 1l2 2q26 18 49 40
q24 24 41 52q1 2 2 3v1h1zM831 1337v0l-1 -1q-1 0 -1 -1v-2q-1 -4 -1 -9q-2 -16 -3 -33q-1 -7 -1 -15q-1 -24 -5 -48q-1 -6 6 -6h2h1h9l30 2q9 1 18 1q11 1 23 2q5 1 10 1h3q4 0 7 1q2 0 3.5 0.5t1.5 3.5q-63 40 -102 104zM928 1232v0q-20 -1 -39 -3q-33 -3 -66 -4
q3 38 6 75l2 28l1 1v0q12 -19 27 -37q15 -17 33 -32l24 -20zM602 908v0h2v-1q1 -2 2 -3q14 -36 28 -73q2 -3 3 -7q5 -13 10 -27q2 -5 8 -6h14h26q6 0 6 5v2v1v205v1v2q0 2 -1.5 3.5t-3.5 1.5h-2h-1h-10h-27q-6 0 -7 -6v-2v-1v-6v-13q1 -29 1 -58v-27v-3v-2l-2 4v0
q-5 12 -9 24q-16 42 -33 83q-1 5 -3 6t-7 1h-31h-2h-5q-5 0 -5 -5v-2v-1v-18v-25v-133v-12v-16q0 -5 1.5 -7t7.5 -2h18h15h1h3q5 1 5 5v3v1v11v30v18q0 1 -1 3v32q0 7 -1 14zM654 882v0v2v3v18q-1 16 -1 32v36v16v5v11q0 3 1 3.5t3 0.5h16h12h8h1q4 0 4 -3v-3v-13v-31
q0 -19 -1 -38v-63v-36q1 -11 1 -21q0 -2 -1 -4v-2h-2h-3h-34h-4.5t-2 1.5t-1.5 3.5l-22 56q-11 29 -22 57q-1 0 -1 1l-2 4q0 1 -1 2l-1 1q-1 -1 -1 -2v-2v-1v-16v-38v-37q1 -13 1 -27v-2v-1h-2h-3h-35q-3 0 -4 0.5t-1 4.5v8v6v159v26v4q0 4 1 5t5 1h4h17h12q4 0 5.5 -1
t2.5 -5l20 -50q12 -30 24 -61q1 -4 3 -8q1 -1 2 -1v-1h2zM607 1240v0v1q-1 2 -1 3v39v21v1q1 1 0 3q0 4 -4 5h-3h-1h-11h-24q-6 0 -8 -1.5t-2 -8.5v-35v-40v-91v-29v-4v-6q0 -6 6 -6h41q6 0 6 6v3v1v20v50q0 3 1 4t4 0q16 1 32 0q3 1 4 0t1 -5v-2v-1v-13q-1 -27 -1 -55
q0 -2 1 -4q0 -3 3 -4h3h1h34h2h5q5 0 5 5v3v1v33v75v36v61q0 4 -1.5 5.5t-5.5 1.5h-32h-7h-3q-2 -1 -3 -2t-2 -4v-3v-1v-19q0 -20 1 -39q0 -4 -1 -5t-5 -1h-31h-3q0 1 -1 1zM603 1309v0v-2v-4v-59v-1v-1q0 -6 6 -6h16h11h6h2q4 0 5.5 1.5t1.5 5.5v29v12v6v16q0 2 0.5 3
t2.5 1h38h3q1 0 1 -1h1v0v-2q1 -1 1 -2v-207q0 -1 -1 -2v0h-46v2v3v44v26q0 6 -2 7.5t-7 1.5q-11 -1 -21 0h-9h-1h-2q-6 -1 -6 -6v-3v-1v-51v-18v-3v-2q-2 0 -8 -0.5t-14.5 -0.5t-15 0.5t-8.5 0.5q0 1 -1 1v4v137v57v4v6t1 4t4 1h8q4 -1 8 -1q6 0 12 1h8h4q1 -1 2 -1z
M692 645v0v1v2q0 16 -6 31q-11 29 -43 37q-19 4 -39 -2q-26 -6 -37 -31q-15 -36 0 -72q6 -17 23 -25l22 -10l10 -4t9 -3q7 -3 12 -10q5 -10 -4 -16q-9 -5 -17.5 -2t-11.5 13v2q-1 4 -3 5.5t-6 1.5h-30h-3h-5q-6 -1 -6 -6q0 -3 1 -5v-2q2 -21 13 -38q12 -18 32 -25
q18 -5 37 -2q38 5 51 40q9 27 4 55q-6 31 -34 43q-7 4 -15 7h-2l-8 4q-5 1 -10 3q-7 3 -12 8q-3 5 -2 10t6 7q15 6 22 -9q1 -2 2 -3q1 -4 1.5 -4.5t4.5 -0.5h39h3h2zM689 649v0h-43q-1 0 -1 1q0 2 -1 3q-9 20 -28 12q-6 -2 -7.5 -9t3.5 -13q6 -7 14 -10q5 -2 10 -3
q7 -3 13 -5q8 -3 16 -8q21 -11 26 -34q6 -27 -2 -54q-11 -35 -47 -41q-21 -3 -40 3q-16 6 -26 19q-14 21 -15 46v2v0v1h2h3h35h3t1.5 -1l1.5 -3q0 -2 1 -4q5 -11 15.5 -13.5t19.5 4.5q8 8 3 18q-3 6 -8 9q-6 3 -12 5l-14 6q-10 4 -20 9q-17 7 -23 25q-12 32 0 64
q10 27 38 34q22 5 43 -2q20 -7 30 -26q8 -17 9 -35z" />
    <glyph glyph-name="semicolon" unicode=";" horiz-adv-x="1229" 
d="M799 264v0l1 1l1 1q5 6 10 11q10 12 21 25q58 73 104 154q65 116 113 239q47 118 82 240q30 101 53 205q2 8 3 16q3 15 6 29q2 6 0 12h-5q-6 1 -11 1q-8 1 -15 2q-20 1 -39 3q-35 5 -70 14q-61 16 -113 52q-56 37 -85 97q-14 27 -18 57v5v2h-419v-2q-1 -1 -1 -3t-1 -5
q0 -5 -1 -11q-10 -42 -36 -77q-37 -51 -94 -81q-51 -27 -107 -39q-25 -6 -51 -9q-6 -1 -12 -1q-10 -2 -21 -3q-10 0 -20 -1q-6 0 -12 -1h-1h-1v-2v-1q0 -9 2 -17q1 -2 2 -5q13 -65 29 -129q41 -161 100 -316q41 -110 95 -215q45 -87 102 -167q29 -41 62 -78q2 -2 2.5 -3
t-0.5 -3q-10 -24 -14 -50q-1 -7 -1 -13q0 -7 7 -7q4 -1 8 -1q3 -1 6 -1q5 -1 7 4v3v1q1 3 1 5q1 5 2 9q8 36 23 70q8 18 17 36q3 7 7 14v0q1 2 1 4t-1 3q-2 0 -4 -1t-3 -3l-4 -2q-23 45 -41 93q29 -4 57 -8l1 -1q0 -2 1 -3q0 -4 1 -8q1 -5 2 -9q0 -5 1 -10q3 -16 6 -33
q1 -4 -1 -8q-15 -24 -27 -50q-21 -50 -32 -102q-1 -5 0 -7t6 -3q14 -4 28 -4h31q9 0 9 10v1q0 3 1 6q7 45 26 86q21 44 50 83q2 2 3 5l2 2h7v-1v0l-8 -12q-39 -52 -61 -113q-10 -28 -13 -58q-1 -6 1 -8t8 -1q28 2 53 11q8 3 10 11q12 46 38 86q21 32 47 61q2 2 5 2q2 0 3 2
v4q1 3 1 6q4 23 9 47q0 3 1 5v3q30 4 58 8q-1 -5 -6.5 -19t-13 -30t-13.5 -28.5t-9 -14.5h-1l-2 2l-6 4q-6 4 -12 9q-3 1 -4.5 1t-3.5 -2l-12 -14q-3 -4 -3 -6t4 -5q15 -12 28 -26q39 -40 68 -89q1 -3 3 -6t5 -7v0q0 -1 1 -1.5t2 -0.5v1q1 2 1 3q-1 35 -16 68zM626 372v0
l-2 -2q-1 -2 -1 -3q-29 -39 -50 -83q-20 -41 -27 -86q-1 -3 -1 -6v-4q0 -6 -6 -6h-3q-23 -1 -46 2q-5 1 -9 2t-4.5 2t0.5 4q7 32 18 63q15 47 41 90q3 4 2 8q-3 14 -6 29q0 2 -1 5q-2 14 -5 28q0 5 -5 6l-20 2q-12 2 -24 3l-10 2h-1h-2q-4 0 -3 -4q0 -1 1 -2v0
q18 -44 39 -87v-1q1 -1 2 -3q3 -4 7 -1q0 1 1 1q0 1 1 2q1 -1 0.5 -2t-0.5 -2l-1 -1q-17 -34 -31 -70q-11 -29 -16 -60v-2v0q-1 -3 -2 -3.5t-4 -0.5l-10 2q-4 0 -5 1t-1 5q1 7 2 15q4 23 13 45q2 4 -1 8q-95 108 -161 237q-50 96 -89 197q-60 152 -101 309q-21 80 -38 160
q-2 9 -4 17v4v2h1h1q6 1 12 1q10 1 21 2q92 5 176 44q65 31 108 89q25 35 35 77q1 5 2 11q1 2 1 4t1 3v2h412q1 -3 1 -6q1 -6 3 -13q11 -50 44 -90q40 -48 96 -75q46 -23 98 -34q26 -6 52 -9q16 -2 32 -3q6 -1 12 -1q6 -1 13 -1q3 -1 6 -1v-3v-6q-3 -17 -7 -33q0 -2 -1 -4
q-22 -102 -51 -202q-30 -105 -68 -208q-39 -103 -88 -202q-50 -100 -115 -191q-26 -37 -56 -70q-1 -1 -2 -3l-4 -4q-3 -3 -1 -8q8 -18 12 -39l2 -14q1 -4 1 -7h-1l-1 1q-1 2 -2 3q-25 44 -59 82q-18 21 -40 38q-3 2 -3 3.5t2 3.5l10 10q2 3 4 5q1 -1 3 -2t5 -3l2 -2
q6 -4 11 -8q4 -2 6 -1.5t4 4.5l26 56q5 11 9 21l4 10v0q0 1 1 2q0 5 -5 5q-4 -1 -9 -1q-6 -1 -13 -2q-2 -1 -3 -1q-13 -2 -26 -3q-6 0 -7.5 -1.5t-2.5 -7.5q-2 -11 -4 -21q-2 -14 -5 -28q0 -4 -1 -6v-2q-1 -1 -3 -1l-3 -3q-28 -30 -50 -64q-25 -40 -37 -85q-2 -7 -8 -9
q-26 -10 -53 -11h-3h-2v5q1 5 1 10q6 35 20 68q21 51 54 95q1 1 2 3q3 3 5 6t6 3q19 -3 38 -8q1 -1 3 -1q1 0 2 -1v2q1 2 1 4q1 8 3 15l8 50q5 30 9 59q4 27 8 55l6 40q0 2 1 5v6q3 20 6 41q1 11 2 21q1 8 2 15q1 9 2 17l2 18q2 12 3 25q1 6 2 13q0 6 1 12q1 13 3 25
q2 18 4 35v5l2 16l6 54l2 22l2 18q0 7 1 14l2 16q0 8 1 15t1 14q1 10 2 21q2 12 3 25q1 9 2 19q0 8 1 15q1 9 1 18q1 8 2 17q2 19 3 38l1 1v5q2 24 4 47q1 12 2 25q1 12 2 25l2 22q1 14 3 28q1 14 2 27v1q1 11 1 23q1 17 3 33v4q1 2 1 3q0 3 -1 4.5t-4 1.5h-3h-1h-337
q-6 0 -7 -1t0 -7l2 -26q1 -16 2 -33t3 -34q1 -11 2 -21q0 -9 1 -18l2 -22l2 -30q1 -10 2 -21l2 -16q0 -10 1 -20q1 -11 2 -21q1 -8 2 -15q0 -7 1 -13q0 -8 1 -16q1 -13 3 -27q1 -10 1 -20l2 -14q1 -10 2 -21l2 -24l2 -18l2 -24l4 -42l4 -36q1 -10 3 -21q0 -7 1 -15
q1 -11 3 -23l6 -52l4 -36q1 -9 2 -17q1 -13 3 -27q1 -10 3 -21l2 -16l2 -20q2 -12 3 -23q3 -23 6 -45l10 -62q5 -34 11 -67q2 -14 5 -29l2 -12v-1v-2q1 -3 2.5 -4t4.5 0l8 2q7 2 15 3q15 4 32 3zM454 1393v0h346v-6q-1 -8 -1 -16q-1 -3 -1 -6q0 -8 -1 -15q-1 -15 -2 -29
q-2 -18 -3 -37q-1 -8 -1 -15l-2 -16q-1 -16 -2 -31l-2 -20q-1 -8 -1 -16l-2 -22l-4 -42q-1 -15 -3 -29q0 -8 -1 -15q-1 -10 -2 -19l-2 -24l-2 -20q-1 -8 -1 -16q-1 -10 -2 -21l-2 -20l-2 -12q0 -6 -1 -12q0 -6 -1 -13q-2 -20 -4 -41l-4 -32l-2 -22q-1 -9 -2 -17q0 -6 -1 -12
l-2 -20q-2 -11 -3 -23q-1 -6 -1 -13l-2 -14q-1 -12 -3 -24q-1 -14 -3 -27q-1 -5 -1 -9q-1 -7 -2 -15q-2 -17 -4 -35q-5 -34 -10 -69q-5 -40 -12 -79q-3 -24 -7 -48q-2 -11 -4 -23q-1 -7 -3 -15q-1 -5 -2 -11v-4q0 -1 -1 -2q-59 18 -118 0v2q-1 2 -1 3q-2 13 -5 25l-10 64
q-4 23 -7 46q-2 11 -3 22q-2 9 -3 17l-4 32q-2 9 -3 19q-1 7 -2 15q-1 11 -3 22q-1 12 -3 24q-1 10 -2 21q-1 8 -2 15q-1 10 -2 19q-2 12 -3 23q-1 10 -2 19l-2 12q-1 11 -2 21q-1 8 -2 17q-1 13 -3 26v5q-1 5 -1 10q-2 14 -3 28q-1 10 -2 19t-2 17q-1 7 -1 13q-1 7 -2 15
q-1 7 -1 15q-1 7 -2 13q-1 11 -2 21t-2 21q-1 16 -3 31v7q-2 23 -5 47q-2 22 -4 45q0 7 -1 15q-1 9 -1 17q-2 22 -4 43l-2 22q-1 9 -1 18l-2 22q-2 14 -3 28t-2 27q0 7 -1 14q0 6 -1 13l-2 26v7v4zM816 175v0q-1 1 -1 2q-1 3 -2 5q-1 3 -2 5t-2 3q-21 39 -48 72
q-26 30 -54 57l-2 2t-2 1q-3 2 -6 0q-1 -1 -3 -2q-22 -23 -35 -53q-1 -2 -0.5 -3.5t2.5 -3.5l2 -2q1 0 1 -1q29 -21 52 -49q41 -51 66 -113v0l2 -4q3 -3 5 0l2 4q0 1 1 2q20 36 24 78zM700 320v0q1 0 1 -1q1 0 2 -1l4 -4q26 -25 50 -53q27 -32 47 -68q0 -1 1 -2q2 -4 5 -9
q2 -4 1 -8q-2 -39 -21 -73q-1 -2 -2 -5q-1 -1 -2 -3q0 2 -1 3q-1 2 -1 3q-25 60 -65 111q-23 29 -53 50l-1 1h-1q-2 2 -2.5 3t1.5 3q7 17 17 31l12 14q2 3 5 5l2 2q0 1 1 1zM462 100v0q0 -2 1 -4l2 -4v0q20 -34 53 -57q6 -5 15 -5h9h3q26 0 51 2q29 3 57 10q26 6 51 13
q2 1 4 1q4 1 5 3t-1 7l-2 4q-4 8 -8 15q-8 16 -18 31q-3 6 -6 6.5t-9 -1.5q-1 0 -2 -1l-6 -2q-47 -19 -99 -21q-44 -3 -88 3l-1 1h-5t-6 -1zM466 98v0h4q4 -1 8 -1q32 -5 64 -4q23 1 47 3q37 4 72 18q5 3 11 5q3 1 4.5 0.5t3.5 -3.5l1 -1q7 -11 13 -22q6 -10 11 -20l4 -8
q0 -1 1 -3v-1l-1 -1q-2 -1 -3 -1q-39 -12 -78 -19q-37 -7 -74 -6q-10 0 -19 -1q-9 0 -16 5q-31 22 -51 55q0 1 -1 3q-1 1 -1 2zM633 196v0q-1 -7 6 -13q46 -46 71 -106q6 -14 11 -28q3 -7 5 -14t8 -2q26 18 45 43q4 6 1 13q-22 54 -56 100q-27 39 -65 66q-4 3 -6 2.5
t-3 -4.5q-6 -12 -11 -24q-5 -15 -6 -33zM730 35v0q-1 3 -3 7q-2 8 -5 16q-15 41 -40 78q-18 27 -41 50q-5 4 -5 11q1 16 6 30q4 9 7 18l4 6q0 1 1 2v1q4 -2 7 -5q7 -5 14 -11q37 -32 63 -74q22 -36 39 -76q2 -5 -1 -11q-19 -24 -44 -42h-1h-1zM539 102v0q22 0 45 2
q26 3 51 10q18 5 34 13q4 1 4.5 3t-1.5 5q-1 1 -2 3q-6 11 -13 21q-10 14 -25 23q-5 3 -10 1l-18 -4q-27 -6 -54 -7q-43 -1 -84 8q-2 1 -5 1q-9 2 -17 3q-3 1 -4 0t-1 -4v-4q1 -2 1 -4q2 -30 14 -57q2 -7 9 -7q6 -1 13 -2l24 -2q14 -1 27 -2h12zM671 131v0q-4 -2 -7 -3
q-6 -3 -13 -5q-27 -10 -55 -14q-39 -5 -78 -3q-27 0 -55 5q-5 1 -6 5q-7 15 -10 32q-2 9 -3 19q-1 3 -1 7q0 2 -1 5v3q2 -1 4 -1q3 -1 7 -2l14 -2l34 -6q30 -4 59 -2q31 2 62 11q5 2 9 -1q2 -2 5 -4l12 -10q13 -15 23 -34zM627 0v0q15 -1 31 2q32 6 61 21q4 2 4.5 4t-1.5 6
q-2 5 -3 9q-1 3 -3 5q-1 3 -2.5 4t-4.5 -1q-2 -1 -5 -2l-6 -2q-56 -18 -116 -21q-10 0 -21 -1h-12v0q-2 -1 -3 -1t-1.5 -0.5t-0.5 -1.5v-1t1 -2h0.5h1.5v-1q36 -17 77 -17h2h1zM713 48v0q1 -2 2 -5q2 -5 4 -11q1 -2 1 -3.5t-3 -2.5q-22 -12 -45 -18q-5 -1 -11 -2q-4 0 -7 -1
q-24 -4 -47 -1q-22 1 -42 9q-3 2 -7 3q-3 1 -6 3q-1 0 -2 1h-1q3 1 6 1q6 0 12 1h12q16 1 31 3q51 4 99 22q1 0 2 1h2zM807 1013v0v0v0q5 0 9 1q10 1 19 2q13 1 25 2q19 2 38 3q18 2 35 4q5 1 10 1q3 1 4.5 2t2.5 4q3 18 6 35q6 37 13 74q4 27 9 54q1 6 -1 8t-8 1
q-11 -2 -23 -3q-8 -1 -17 -1q-4 -1 -8 -1q-7 -1 -13 -1l-28 -2l-30 -2q-9 -1 -19 -1q-2 -1 -4 -1h-5t-4.5 -1t-1.5 -5q-1 -9 -1 -18l-2 -20l-2 -28q-2 -23 -5 -47q-1 -17 -3 -34q0 -4 -1 -8q-1 -7 -1 -14q0 -2 1 -3t3 -1h2v0zM804 1016v0l8 90l8 82q5 1 9 1q10 1 21 2
q12 1 23 1l30 2q20 2 39 4q11 1 23 2q5 0 10 1v-2v-4q-9 -52 -18 -105q-3 -14 -5 -28q-3 -14 -5 -28q-1 -4 -5 -4q-7 -1 -13 -2q-4 0 -8 -1h-5q-12 -2 -24 -3t-24 -3q-10 0 -20 -1l-20 -2q-7 -1 -13 -1q-4 -1 -8 -1h-2h-1zM453 1019v0v1v2q-1 5 -1 11q-2 12 -3 24l-2 24
q0 5 -1 10q0 8 -1 16q-2 17 -3 35q-1 8 -2 15q0 10 -1 20q-1 4 -1 8q-1 2 -1 3q0 3 -3 4h-2q-4 0 -8 1q-10 0 -20 1l-28 2q-16 1 -33 2q-7 1 -13 1q-2 1 -5 1q-5 0 -10 1q-7 0 -14 1q-10 1 -19 2q-8 1 -6 -6q1 -6 2 -11q0 -4 1 -8q2 -10 3 -20q3 -20 7 -40l10 -56
q2 -13 5 -26q0 -5 1 -7t3 -2.5t7 -1.5v0v0q8 -1 15 -2q18 -1 37 -3q2 -1 5 -1q18 -2 35 -4q20 -1 40 -3q4 0 5 1t1 5zM450 1016v0h-3t-4 1q-8 0 -17 1q-14 1 -29 3q-12 1 -25 2l-16 2q-15 1 -29 3q-6 0 -11 1h-1h-1q-3 0 -4 0.5t-1.5 2t-1.5 3.5l-2 14q-7 38 -14 75
q-4 27 -8 53q-2 9 -4 19v3v2l24 -2q27 -3 53 -5l54 -4q12 -1 24 -1q0 -3 1 -5q0 -5 1 -10q1 -10 2 -21q0 -8 1 -16q2 -23 4 -47v-1v-3q2 -17 3 -34q1 -9 2 -19q1 -6 2 -13v-3v-1zM310 836v0q5 0 4 4q-3 11 -5 23q-2 11 -5 22q-9 44 -18 87l-4 22q-1 7 -8 8q-5 0 -10 1h-3
l-10 2q-12 1 -24 3q-12 1 -24 3l-12 2q-10 1 -20 3q-9 1 -17 2q-3 1 -6 1q-4 1 -8 1q-7 1 -5 -5q0 -1 1 -3v0q1 -5 2 -9l6 -20q7 -25 15 -51q11 -35 21 -70q2 -8 10 -8q3 0 6 -1h2q7 -1 15 -3q19 -3 38 -5l26 -4l10 -2q9 -1 17 -2q3 -1 6 -1zM310 839v0q-4 1 -8 1
q-10 2 -18 3q-5 1 -10 1q-13 2 -27 4q-20 3 -40 7q-6 0 -11 1q-2 0 -3 1q-2 0 -5 1q-3 0 -4 4q-3 8 -5 16l-4 12q-19 61 -36 123q0 1 -1 2v2h4q5 -1 9 -1q25 -4 51 -8q7 -1 13 -2q12 -2 23 -3q10 -1 19 -2q4 -1 8 -1q1 -1 3 -1h4q4 -1 5.5 -2t1.5 -5q2 -11 4 -21l6 -30
q4 -19 8 -37q3 -13 5 -26l6 -26q1 -4 1 -8q1 -2 1 -3v-2zM1120 1021v0q-1 0 -3 -1h-5q-13 -2 -27 -4l-16 -2q-4 -1 -9 -2q-14 -2 -27 -3q-15 -2 -29 -4q-3 0 -5 -1q-4 0 -9 -1q-5 0 -11 -1t-7 -7q-2 -12 -5 -24v-3q-9 -43 -17 -85q-3 -13 -6 -25q-1 -8 -3 -15q-2 -9 6 -7
l10 2v0l16 2l26 4l42 6l14 2l10 2t8 5l2 6q24 75 44 151q1 1 1 3v2zM1116 1017v0l-2 -8q-2 -7 -4 -15q-18 -65 -38 -129q-2 -8 -10 -8q-1 0 -2 -1h-1q-8 -1 -15 -2q-27 -4 -55 -8q-16 -3 -32 -5q-5 -1 -11 -1q0 -1 -1 -1h-1q0 4 1 7q1 6 3 12l4 20q8 43 17 86l4 20l2 10
q0 2 1 3t5 2q7 1 15 2q7 1 14 1l38 6q12 1 23 3l14 2q12 2 25 3q2 1 4 1h1h1zM469 819v0q5 -1 4 7v0q-1 3 -1 6l-2 14q-1 11 -2 21l-2 24q-1 8 -2 15v2q-2 20 -4 39q-1 9 -2 17q0 7 -1 14q0 2 -1 3.5t-4 1.5q-6 1 -12 1h-1q-5 1 -10 1l-18 2q-13 1 -25 2q-4 1 -8 1l-20 2
l-20 2q-1 1 -2 1q-9 1 -18 1q-7 1 -6 -5q0 -2 1 -3q2 -12 5 -25q7 -34 13 -67q5 -24 11 -48l2 -12q1 -3 2 -4t4 -1q5 0 10 -1l16 -2q13 -1 25 -2q6 -1 12 -1q2 -1 5 -1q10 -1 19 -2q10 -1 21 -2q5 -1 11 -1zM315 993v0h1h1q63 -6 126 -13q5 0 11 -1q0 -8 1 -16l4 -36
q1 -12 2 -25q2 -14 3 -27q2 -18 4 -37q1 -8 1 -16q-60 6 -121 12q-17 79 -33 159zM943 995v0q-5 2 -9 1q-6 0 -11 -1q-3 0 -7 -1q-16 -1 -32 -3q-7 -1 -14 -1q-6 -1 -11 -1q-11 -1 -21 -2l-14 -2q-4 0 -9 -1q-6 0 -13 -1q-2 0 -3 -1t-2 -4v-2v-1q-1 -6 -1 -12q-1 -13 -3 -26
q-1 -10 -2 -21l-2 -16l-2 -24q-2 -15 -3 -29q0 -4 -1 -8q-1 -7 -1 -14q-1 -7 6 -6q4 0 8 1h4q4 1 8 1q12 1 23 3q9 0 18 1l16 2q7 0 14 1q11 1 21 2q6 1 8 3t3 7l10 50l16 74q2 11 4 21zM785 823v0l14 136l2 20l1 1h4l58 6q8 1 16 1l20 2q9 1 19 3q4 0 8 1v0q6 1 12 0
q-1 -4 -1 -7q-2 -8 -3 -15q-12 -55 -23 -110l-4 -20v0q0 -1 -1 -3q-1 -4 -4 -4l-34 -4h-4l-20 -2l-22 -2l-36 -4h-1q-1 0 -1 1zM980 1036v0q-1 -5 3 -5q6 1 11 1h1q7 2 15 3q11 1 22 3q7 1 14 1q9 2 17 3l30 4q3 1 6 1l24 4q6 1 7 6q1 2 1 3v1q1 5 2 9l6 26q1 2 1 5l14 58
q1 4 0 5.5t-6 2.5q-3 0 -6 1h-6q-5 1 -9 1q-16 2 -32 5q-41 7 -81 21q-4 1 -5.5 0t-2.5 -5q-1 -8 -3 -17q-1 -8 -2 -15q-8 -46 -16 -91l-2 -12q-1 -7 -2 -13q-1 -3 -1 -6zM1010 1193v0q35 -12 70 -20q35 -6 71 -9q0 -4 -1 -8q-1 -7 -3 -13q-7 -31 -14 -61q-2 -10 -5 -20v-1
q0 -1 -1 -2q-1 -5 -5 -5l-10 -2q-14 -2 -27 -4q-31 -4 -62 -9q-7 0 -13 -1q-11 -2 -21 -3h-4h-2q14 79 27 158zM274 1037v0v0v2q-3 15 -6 31l-12 70q-2 15 -5 30q-2 10 -3 21q-1 4 -2.5 4.5t-4.5 -0.5q-39 -13 -78 -20q-28 -6 -56 -8q-5 0 -6.5 -2t-0.5 -7q2 -7 4 -15
q2 -11 5 -22q4 -20 9 -40l6 -24q1 -6 7 -6q6 -1 11 -2h5l12 -2q14 -2 28 -5l44 -6l38 -4q6 -1 5 5zM244 1193v0q9 -54 18 -107q5 -26 9 -51h-4q-3 0 -7 1q-4 0 -9 1q-13 2 -27 3q-19 3 -37 6q-13 2 -27 4q-7 1 -15 2h-3l-10 2q-4 0 -5 5q-4 14 -7 29l-10 40l-4 18
q-1 6 -2 13q-1 3 -0.5 4t4.5 1q64 5 125 25q4 1 7 2zM357 653v0v3q0 2 -1 4q-18 69 -33 139q-1 4 -2.5 5.5t-5.5 1.5q-5 1 -10 1q-14 2 -27 4q-29 4 -58 9q-10 1 -21 3q-6 1 -4 -5q1 -3 2 -5q3 -9 6 -17q21 -61 45 -120q2 -5 8 -6q10 -1 20 -3l8 -2l14 -2q25 -4 49 -9h6
q2 -1 4 -1zM354 657v0q-3 0 -6 1q-6 0 -12 1q-13 3 -27 5q-26 5 -51 9q-6 1 -7 6q-26 64 -49 129q-1 4 -3 8q0 2 -1 4q2 0 3 -1h7q17 -3 35 -6q6 -1 13 -2q5 -1 11 -2q15 -2 29 -4l18 -2q3 0 4 -1t2 -4q1 -7 3 -15q4 -17 8 -35q8 -30 15 -60q3 -13 7 -26v-3q1 -1 1 -2z
M897 654v0h1q2 -1 3 -1v1q5 0 9 1q16 2 32 5l54 10q8 1 10 8l16 40q9 24 19 48q7 19 13 38q3 6 5 13q3 8 -6 6q-3 0 -5 -1l-28 -4l-38 -6q-10 -1 -20 -3q-4 0 -9 -1l-16 -2q-4 -1 -5 -5v-1l-1 -1q-1 -7 -3 -13q-3 -14 -6 -27q-8 -33 -16 -65q-4 -18 -8 -35q-1 -2 -1 -3v-2z
M900 657v0q1 3 2 5q1 6 3 12q14 62 29 124v0l1.5 3t1.5 1.5t3 0.5q10 1 19 2q18 3 36 5l38 6q9 2 17 3q2 1 4 1h2v-1q0 -1 -1 -2q-23 -70 -52 -138q-1 -5 -8 -6q-24 -4 -49 -9q-9 -2 -18 -3q-2 -1 -4 -1q-8 -1 -15 -2q-3 -1 -6 -1h-3zM358 800v0q-4 1 -5 0t0 -5v0q0 -1 1 -2
q1 -7 3 -14q15 -62 30 -123q1 -5 3.5 -7t7.5 -2q11 -1 21 -2q28 -4 55 -7q4 0 9 -1h2q2 0 3 -1q7 -1 6 6v1v1q-1 4 -1 9l-4 26l-2 24q-2 12 -3 23t-3 23q-1 11 -2 21q-1 3 -1 5q0 4 -1 8q0 4 -2 5.5t-6 1.5h-3h-6l-40 4q-10 1 -19 2q-6 1 -13 1q-10 1 -21 3h-9zM490 639v0
q-9 1 -19 2q-23 3 -45 6q-14 1 -28 3h-1q-3 0 -4.5 1.5t-1.5 4.5q-18 69 -35 139v1v1h1h3q10 -1 19 -2q22 -2 43 -4l18 -2q5 0 10 -1h8q6 -1 12 -1q2 0 3 -1.5t1 -2.5q1 -3 1 -7q0 -5 1 -9q1 -14 3 -27l2 -18q3 -21 5 -43l2 -10v-5l2 -20q1 -1 0 -3v-2zM766 636v0q4 1 8 1
q10 1 20 3l20 2q5 0 9 1q5 0 10 1q12 1 24 3q7 0 9 7q0 1 1 2v4q3 9 5 18q12 46 23 91q3 14 6 27q1 6 -4 5q-12 -1 -25 -3q-6 0 -13 -1q-12 -2 -24 -3l-28 -2q-6 -1 -12 -1q-5 0 -10 -1q-4 0 -6 -1.5t-2 -6.5v-3q0 -1 -1 -1q-1 -9 -1 -17q-3 -18 -5 -37q0 -5 -1 -9
q-2 -17 -4 -35q-1 -10 -3 -21l-2 -16q-1 -4 0.5 -5.5t5.5 -1.5zM898 798v0l-2 -8q-1 -8 -3 -16q-12 -46 -23 -91q-3 -11 -5 -22q-1 -2 -1 -3q-2 -5 -3.5 -6.5t-6.5 -1.5q-15 -2 -31 -4l-22 -2q-12 -2 -24 -3l-12 -2h-1h-1v1v2q2 16 4 31q3 25 6 51q3 18 5 36q1 11 2 21
q0 4 1 5t5 1q5 1 9 1h8q24 3 49 5q14 1 29 3q5 0 11 1q2 0 4 1h2zM989 636v0q-2 2 -4 2h-3h-1l-8 -2q-26 -4 -51 -9l-28 -4q-5 0 -7 -4l-2 -6q-19 -71 -44 -140q-1 -5 4 -6q1 0 2 1h1q5 1 9 2q8 1 17 3h1l30 6q6 2 10 8q38 69 70 140l2 6q1 2 2 3zM844 471v0q2 3 3 6l4 14
q20 60 37 120q0 2 1 4q1 4 6 5q28 5 55 9q15 3 29 5h3h2q0 -1 -1 -1q0 -2 -1 -3q-32 -72 -70 -142q-3 -5 -8 -5l-38 -8q-10 -2 -19 -4h-2h-1zM407 468v0q7 -1 5 5q0 1 -1 3v2q-4 13 -9 26q-10 33 -20 65q-7 22 -13 43q0 3 -1 5q-1 5 -6 6q-4 0 -9 1q-2 0 -3 1q-6 1 -13 2
l-28 4q-13 2 -26 5q-5 1 -11 2h-2t-2 -1t-1 -2.5t1 -2.5q2 -5 4 -9l6 -16q23 -49 49 -97q4 -7 7 -13l4 -8q5 -9 15 -10h2q7 -2 14 -3q11 -3 21 -5l12 -2q3 -1 5 -1zM270 635v0q3 -1 6 -1l10 -2l50 -8q2 -1 5 -1q10 -2 20 -3q2 0 3 -1.5t1 -3.5v0q3 -11 7 -22q7 -26 15 -51
l14 -46q4 -10 7 -20q0 -2 1 -3q0 -1 1 -2h-2h-2l-26 6q-12 2 -23 5q-3 0 -5 1q-7 0 -11 6q-1 4 -3 7q-1 1 -1 3q-5 9 -10 19q-12 21 -23 43q-11 24 -23 49q-4 10 -9 20q-1 1 -1 3q-1 1 -1 2zM740 451v0h2q3 0 5 1q5 0 9 1q22 3 43 6q8 1 11 9q19 55 35 112q1 3 2 7
q4 11 7 23q2 8 -6 7q-4 0 -7 -1l-16 -2q-19 -2 -37 -4h-2l-10 -2q-8 0 -15 -1q-3 -1 -4.5 -2t-1.5 -5q-1 -6 -1 -11q-3 -17 -5 -33q-1 -9 -3 -18l-2 -14q-2 -16 -4 -31l-4 -22l-2 -12q-1 -9 6 -8zM851 614v0v-2q0 -2 -1 -3q-19 -70 -43 -139q-2 -7 -10 -8q-17 -2 -35 -5
q-10 -1 -20 -3h-3h-2v1q0 2 1 3q1 9 3 18q2 18 5 36q2 11 3 22q1 7 2 15l4 24l2 20q1 2 1 4v3t1 3t3 1q8 1 17 2l38 4q10 1 21 2l10 2h2h1zM513 451v0q4 -1 5.5 0.5t1.5 5.5q-1 4 -1 7q-1 2 -1 5v3l-6 40q-2 14 -4 29q-2 10 -3 21l-6 40q-1 3 -2 4t-3 1q-4 0 -7 1h-6
q-15 2 -30 3q-13 2 -27 4l-16 2v0h-4q-5 0 -5 -5q1 -2 1 -4q1 0 1 -1l6 -22q8 -27 17 -54l14 -42q4 -11 8 -23q1 -6 7 -7q12 -1 25 -3l12 -2l16 -2q4 -1 7 -1zM402 614v0q20 -2 40 -5q27 -3 53 -6q4 -24 7 -47q7 -51 15 -102q-2 -1 -4 -0.5t-4 0.5q-2 1 -3 1q-14 2 -27 4
q-12 1 -23 3q-6 0 -8 6q-20 56 -36 112q0 1 -1 2q-3 12 -7 24v3q-1 1 -1 3q0 1 -1 2zM474 293v0q2 1 3 2q2 3 4 5q3 4 1 9q-2 4 -4 7q-26 51 -46 105q-2 3 -3 7q-4 7 -12 8q-3 1 -6 1q-5 1 -9 2l-32 6v0q-1 1 -2 1t-2 -1v-2v-2v0q0 -1 1 -2v0q2 -4 4 -7q43 -70 96 -131
q2 -3 5 -5q1 -2 2 -3zM369 442v0q3 0 6 -1q7 -2 13 -3l26 -4q9 -1 12 -9q3 -5 5 -11q0 -1 1 -3q19 -49 44 -96v-1q1 -1 1 -2q3 -5 2.5 -7.5t-5.5 -6.5q0 1 -1 2q-2 2 -4 3q-23 27 -44 56q-29 39 -55 81v1t-1 1zM780 294v0q12 11 37 44t47 65.5t25 41.5q-1 1 -2.5 1h-2.5
t-1 -1q-6 -1 -13 -2q-17 -4 -35 -7q-8 -2 -11 -10q-18 -48 -40 -94q-2 -4 -5 -8l-6 -12q-5 -12 7 -18zM780 298v0q-4 3 -5 5.5t1 5.5q1 3 2 5q28 54 49 110q2 8 10 9q16 3 31 6q6 1 13 3h2h2q-46 -77 -105 -144zM424 1338v0q-4 -3 -6 -7q0 -1 -1 -2q-36 -57 -93 -94v0
l-1.5 -1.5t-0.5 -2.5q0 -1 1.5 -1.5t2.5 -0.5h2q7 -1 14 -1q7 -1 15 -2q12 -1 23 -2q17 -1 35 -2q7 -1 14 -1h1h2q3 0 3 3t-1 5v11q-1 6 -2 13l-2 20l-2 38q-1 9 -1 18q0 4 -3 9zM423 1331v0q1 -17 3 -34q3 -36 5 -73q-41 2 -83 6l-22 2q1 1 2 1l2 2q26 18 49 40
q24 24 41 52q1 2 2 3v1h1zM831 1337v0l-1 -1q-1 0 -1 -1v-2q-1 -4 -1 -9q-2 -16 -3 -33q-1 -7 -1 -15q-1 -24 -5 -48q-1 -6 6 -6h2h1h9l30 2q9 1 18 1q11 1 23 2q5 1 10 1h3q4 0 7 1q2 0 3.5 0.5t1.5 3.5q-63 40 -102 104zM928 1232v0q-20 -1 -39 -3q-33 -3 -66 -4
q3 38 6 75l2 28l1 1v0q12 -19 27 -37q15 -17 33 -32l24 -20zM602 908v0h2v-1q1 -2 2 -3q14 -36 28 -73q2 -3 3 -7q5 -13 10 -27q2 -5 8 -6h14h26q6 0 6 5v2v1v205v1v2q0 2 -1.5 3.5t-3.5 1.5h-2h-1h-10h-27q-6 0 -7 -6v-2v-1v-6v-13q1 -29 1 -58v-27v-3v-2l-2 4v0
q-5 12 -9 24q-16 42 -33 83q-1 5 -3 6t-7 1h-31h-2h-5q-5 0 -5 -5v-2v-1v-18v-25v-133v-12v-16q0 -5 1.5 -7t7.5 -2h18h15h1h3q5 1 5 5v3v1v11v30v18q0 1 -1 3v32q0 7 -1 14zM654 882v0v2v3v18q-1 16 -1 32v36v16v5v11q0 3 1 3.5t3 0.5h16h12h8h1q4 0 4 -3v-3v-13v-31
q0 -19 -1 -38v-63v-36q1 -11 1 -21q0 -2 -1 -4v-2h-2h-3h-34h-4.5t-2 1.5t-1.5 3.5l-22 56q-11 29 -22 57q-1 0 -1 1l-2 4q0 1 -1 2l-1 1q-1 -1 -1 -2v-2v-1v-16v-38v-37q1 -13 1 -27v-2v-1h-2h-3h-35q-3 0 -4 0.5t-1 4.5v8v6v159v26v4q0 4 1 5t5 1h4h17h12q4 0 5.5 -1
t2.5 -5l20 -50q12 -30 24 -61q1 -4 3 -8q1 -1 2 -1v-1h2zM607 1240v0v1q-1 2 -1 3v39v21v1q1 1 0 3q0 4 -4 5h-3h-1h-11h-24q-6 0 -8 -1.5t-2 -8.5v-35v-40v-91v-29v-4v-6q0 -6 6 -6h41q6 0 6 6v3v1v20v50q0 3 1 4t4 0q16 1 32 0q3 1 4 0t1 -5v-2v-1v-13q-1 -27 -1 -55
q0 -2 1 -4q0 -3 3 -4h3h1h34h2h5q5 0 5 5v3v1v33v75v36v61q0 4 -1.5 5.5t-5.5 1.5h-32h-7h-3q-2 -1 -3 -2t-2 -4v-3v-1v-19q0 -20 1 -39q0 -4 -1 -5t-5 -1h-31h-3q0 1 -1 1zM603 1309v0v-2v-4v-59v-1v-1q0 -6 6 -6h16h11h6h2q4 0 5.5 1.5t1.5 5.5v29v12v6v16q0 2 0.5 3
t2.5 1h38h3q1 0 1 -1h1v0v-2q1 -1 1 -2v-207q0 -1 -1 -2v0h-46v2v3v44v26q0 6 -2 7.5t-7 1.5q-11 -1 -21 0h-9h-1h-2q-6 -1 -6 -6v-3v-1v-51v-18v-3v-2q-2 0 -8 -0.5t-14.5 -0.5t-15 0.5t-8.5 0.5q0 1 -1 1v4v137v57v4v6t1 4t4 1h8q4 -1 8 -1q6 0 12 1h8h4q1 -1 2 -1z
M692 645v0v1v2q0 16 -6 31q-11 29 -43 37q-19 4 -39 -2q-26 -6 -37 -31q-15 -36 0 -72q6 -17 23 -25l22 -10l10 -4t9 -3q7 -3 12 -10q5 -10 -4 -16q-9 -5 -17.5 -2t-11.5 13v2q-1 4 -3 5.5t-6 1.5h-30h-3h-5q-6 -1 -6 -6q0 -3 1 -5v-2q2 -21 13 -38q12 -18 32 -25
q18 -5 37 -2q38 5 51 40q9 27 4 55q-6 31 -34 43q-7 4 -15 7h-2l-8 4q-5 1 -10 3q-7 3 -12 8q-3 5 -2 10t6 7q15 6 22 -9q1 -2 2 -3q1 -4 1.5 -4.5t4.5 -0.5h39h3h2zM689 649v0h-43q-1 0 -1 1q0 2 -1 3q-9 20 -28 12q-6 -2 -7.5 -9t3.5 -13q6 -7 14 -10q5 -2 10 -3
q7 -3 13 -5q8 -3 16 -8q21 -11 26 -34q6 -27 -2 -54q-11 -35 -47 -41q-21 -3 -40 3q-16 6 -26 19q-14 21 -15 46v2v0v1h2h3h35h3t1.5 -1l1.5 -3q0 -2 1 -4q5 -11 15.5 -13.5t19.5 4.5q8 8 3 18q-3 6 -8 9q-6 3 -12 5l-14 6q-10 4 -20 9q-17 7 -23 25q-12 32 0 64
q10 27 38 34q22 5 43 -2q20 -7 30 -26q8 -17 9 -35z" />
    <glyph glyph-name="less" unicode="&#x3c;" horiz-adv-x="1229" 
d="M799 264v0l1 1l1 1q5 6 10 11q10 12 21 25q58 73 104 154q65 116 113 239q47 118 82 240q30 101 53 205q2 8 3 16q3 15 6 29q2 6 0 12h-5q-6 1 -11 1q-8 1 -15 2q-20 1 -39 3q-35 5 -70 14q-61 16 -113 52q-56 37 -85 97q-14 27 -18 57v5v2h-419v-2q-1 -1 -1 -3t-1 -5
q0 -5 -1 -11q-10 -42 -36 -77q-37 -51 -94 -81q-51 -27 -107 -39q-25 -6 -51 -9q-6 -1 -12 -1q-10 -2 -21 -3q-10 0 -20 -1q-6 0 -12 -1h-1h-1v-2v-1q0 -9 2 -17q1 -2 2 -5q13 -65 29 -129q41 -161 100 -316q41 -110 95 -215q45 -87 102 -167q29 -41 62 -78q2 -2 2.5 -3
t-0.5 -3q-10 -24 -14 -50q-1 -7 -1 -13q0 -7 7 -7q4 -1 8 -1q3 -1 6 -1q5 -1 7 4v3v1q1 3 1 5q1 5 2 9q8 36 23 70q8 18 17 36q3 7 7 14v0q1 2 1 4t-1 3q-2 0 -4 -1t-3 -3l-4 -2q-23 45 -41 93q29 -4 57 -8l1 -1q0 -2 1 -3q0 -4 1 -8q1 -5 2 -9q0 -5 1 -10q3 -16 6 -33
q1 -4 -1 -8q-15 -24 -27 -50q-21 -50 -32 -102q-1 -5 0 -7t6 -3q14 -4 28 -4h31q9 0 9 10v1q0 3 1 6q7 45 26 86q21 44 50 83q2 2 3 5l2 2h7v-1v0l-8 -12q-39 -52 -61 -113q-10 -28 -13 -58q-1 -6 1 -8t8 -1q28 2 53 11q8 3 10 11q12 46 38 86q21 32 47 61q2 2 5 2q2 0 3 2
v4q1 3 1 6q4 23 9 47q0 3 1 5v3q30 4 58 8q-1 -5 -6.5 -19t-13 -30t-13.5 -28.5t-9 -14.5h-1l-2 2l-6 4q-6 4 -12 9q-3 1 -4.5 1t-3.5 -2l-12 -14q-3 -4 -3 -6t4 -5q15 -12 28 -26q39 -40 68 -89q1 -3 3 -6t5 -7v0q0 -1 1 -1.5t2 -0.5v1q1 2 1 3q-1 35 -16 68zM626 372v0
l-2 -2q-1 -2 -1 -3q-29 -39 -50 -83q-20 -41 -27 -86q-1 -3 -1 -6v-4q0 -6 -6 -6h-3q-23 -1 -46 2q-5 1 -9 2t-4.5 2t0.5 4q7 32 18 63q15 47 41 90q3 4 2 8q-3 14 -6 29q0 2 -1 5q-2 14 -5 28q0 5 -5 6l-20 2q-12 2 -24 3l-10 2h-1h-2q-4 0 -3 -4q0 -1 1 -2v0
q18 -44 39 -87v-1q1 -1 2 -3q3 -4 7 -1q0 1 1 1q0 1 1 2q1 -1 0.5 -2t-0.5 -2l-1 -1q-17 -34 -31 -70q-11 -29 -16 -60v-2v0q-1 -3 -2 -3.5t-4 -0.5l-10 2q-4 0 -5 1t-1 5q1 7 2 15q4 23 13 45q2 4 -1 8q-95 108 -161 237q-50 96 -89 197q-60 152 -101 309q-21 80 -38 160
q-2 9 -4 17v4v2h1h1q6 1 12 1q10 1 21 2q92 5 176 44q65 31 108 89q25 35 35 77q1 5 2 11q1 2 1 4t1 3v2h412q1 -3 1 -6q1 -6 3 -13q11 -50 44 -90q40 -48 96 -75q46 -23 98 -34q26 -6 52 -9q16 -2 32 -3q6 -1 12 -1q6 -1 13 -1q3 -1 6 -1v-3v-6q-3 -17 -7 -33q0 -2 -1 -4
q-22 -102 -51 -202q-30 -105 -68 -208q-39 -103 -88 -202q-50 -100 -115 -191q-26 -37 -56 -70q-1 -1 -2 -3l-4 -4q-3 -3 -1 -8q8 -18 12 -39l2 -14q1 -4 1 -7h-1l-1 1q-1 2 -2 3q-25 44 -59 82q-18 21 -40 38q-3 2 -3 3.5t2 3.5l10 10q2 3 4 5q1 -1 3 -2t5 -3l2 -2
q6 -4 11 -8q4 -2 6 -1.5t4 4.5l26 56q5 11 9 21l4 10v0q0 1 1 2q0 5 -5 5q-4 -1 -9 -1q-6 -1 -13 -2q-2 -1 -3 -1q-13 -2 -26 -3q-6 0 -7.5 -1.5t-2.5 -7.5q-2 -11 -4 -21q-2 -14 -5 -28q0 -4 -1 -6v-2q-1 -1 -3 -1l-3 -3q-28 -30 -50 -64q-25 -40 -37 -85q-2 -7 -8 -9
q-26 -10 -53 -11h-3h-2v5q1 5 1 10q6 35 20 68q21 51 54 95q1 1 2 3q3 3 5 6t6 3q19 -3 38 -8q1 -1 3 -1q1 0 2 -1v2q1 2 1 4q1 8 3 15l8 50q5 30 9 59q4 27 8 55l6 40q0 2 1 5v6q3 20 6 41q1 11 2 21q1 8 2 15q1 9 2 17l2 18q2 12 3 25q1 6 2 13q0 6 1 12q1 13 3 25
q2 18 4 35v5l2 16l6 54l2 22l2 18q0 7 1 14l2 16q0 8 1 15t1 14q1 10 2 21q2 12 3 25q1 9 2 19q0 8 1 15q1 9 1 18q1 8 2 17q2 19 3 38l1 1v5q2 24 4 47q1 12 2 25q1 12 2 25l2 22q1 14 3 28q1 14 2 27v1q1 11 1 23q1 17 3 33v4q1 2 1 3q0 3 -1 4.5t-4 1.5h-3h-1h-337
q-6 0 -7 -1t0 -7l2 -26q1 -16 2 -33t3 -34q1 -11 2 -21q0 -9 1 -18l2 -22l2 -30q1 -10 2 -21l2 -16q0 -10 1 -20q1 -11 2 -21q1 -8 2 -15q0 -7 1 -13q0 -8 1 -16q1 -13 3 -27q1 -10 1 -20l2 -14q1 -10 2 -21l2 -24l2 -18l2 -24l4 -42l4 -36q1 -10 3 -21q0 -7 1 -15
q1 -11 3 -23l6 -52l4 -36q1 -9 2 -17q1 -13 3 -27q1 -10 3 -21l2 -16l2 -20q2 -12 3 -23q3 -23 6 -45l10 -62q5 -34 11 -67q2 -14 5 -29l2 -12v-1v-2q1 -3 2.5 -4t4.5 0l8 2q7 2 15 3q15 4 32 3zM454 1393v0h346v-6q-1 -8 -1 -16q-1 -3 -1 -6q0 -8 -1 -15q-1 -15 -2 -29
q-2 -18 -3 -37q-1 -8 -1 -15l-2 -16q-1 -16 -2 -31l-2 -20q-1 -8 -1 -16l-2 -22l-4 -42q-1 -15 -3 -29q0 -8 -1 -15q-1 -10 -2 -19l-2 -24l-2 -20q-1 -8 -1 -16q-1 -10 -2 -21l-2 -20l-2 -12q0 -6 -1 -12q0 -6 -1 -13q-2 -20 -4 -41l-4 -32l-2 -22q-1 -9 -2 -17q0 -6 -1 -12
l-2 -20q-2 -11 -3 -23q-1 -6 -1 -13l-2 -14q-1 -12 -3 -24q-1 -14 -3 -27q-1 -5 -1 -9q-1 -7 -2 -15q-2 -17 -4 -35q-5 -34 -10 -69q-5 -40 -12 -79q-3 -24 -7 -48q-2 -11 -4 -23q-1 -7 -3 -15q-1 -5 -2 -11v-4q0 -1 -1 -2q-59 18 -118 0v2q-1 2 -1 3q-2 13 -5 25l-10 64
q-4 23 -7 46q-2 11 -3 22q-2 9 -3 17l-4 32q-2 9 -3 19q-1 7 -2 15q-1 11 -3 22q-1 12 -3 24q-1 10 -2 21q-1 8 -2 15q-1 10 -2 19q-2 12 -3 23q-1 10 -2 19l-2 12q-1 11 -2 21q-1 8 -2 17q-1 13 -3 26v5q-1 5 -1 10q-2 14 -3 28q-1 10 -2 19t-2 17q-1 7 -1 13q-1 7 -2 15
q-1 7 -1 15q-1 7 -2 13q-1 11 -2 21t-2 21q-1 16 -3 31v7q-2 23 -5 47q-2 22 -4 45q0 7 -1 15q-1 9 -1 17q-2 22 -4 43l-2 22q-1 9 -1 18l-2 22q-2 14 -3 28t-2 27q0 7 -1 14q0 6 -1 13l-2 26v7v4zM816 175v0q-1 1 -1 2q-1 3 -2 5q-1 3 -2 5t-2 3q-21 39 -48 72
q-26 30 -54 57l-2 2t-2 1q-3 2 -6 0q-1 -1 -3 -2q-22 -23 -35 -53q-1 -2 -0.5 -3.5t2.5 -3.5l2 -2q1 0 1 -1q29 -21 52 -49q41 -51 66 -113v0l2 -4q3 -3 5 0l2 4q0 1 1 2q20 36 24 78zM700 320v0q1 0 1 -1q1 0 2 -1l4 -4q26 -25 50 -53q27 -32 47 -68q0 -1 1 -2q2 -4 5 -9
q2 -4 1 -8q-2 -39 -21 -73q-1 -2 -2 -5q-1 -1 -2 -3q0 2 -1 3q-1 2 -1 3q-25 60 -65 111q-23 29 -53 50l-1 1h-1q-2 2 -2.5 3t1.5 3q7 17 17 31l12 14q2 3 5 5l2 2q0 1 1 1zM462 100v0q0 -2 1 -4l2 -4v0q20 -34 53 -57q6 -5 15 -5h9h3q26 0 51 2q29 3 57 10q26 6 51 13
q2 1 4 1q4 1 5 3t-1 7l-2 4q-4 8 -8 15q-8 16 -18 31q-3 6 -6 6.5t-9 -1.5q-1 0 -2 -1l-6 -2q-47 -19 -99 -21q-44 -3 -88 3l-1 1h-5t-6 -1zM466 98v0h4q4 -1 8 -1q32 -5 64 -4q23 1 47 3q37 4 72 18q5 3 11 5q3 1 4.5 0.5t3.5 -3.5l1 -1q7 -11 13 -22q6 -10 11 -20l4 -8
q0 -1 1 -3v-1l-1 -1q-2 -1 -3 -1q-39 -12 -78 -19q-37 -7 -74 -6q-10 0 -19 -1q-9 0 -16 5q-31 22 -51 55q0 1 -1 3q-1 1 -1 2zM633 196v0q-1 -7 6 -13q46 -46 71 -106q6 -14 11 -28q3 -7 5 -14t8 -2q26 18 45 43q4 6 1 13q-22 54 -56 100q-27 39 -65 66q-4 3 -6 2.5
t-3 -4.5q-6 -12 -11 -24q-5 -15 -6 -33zM730 35v0q-1 3 -3 7q-2 8 -5 16q-15 41 -40 78q-18 27 -41 50q-5 4 -5 11q1 16 6 30q4 9 7 18l4 6q0 1 1 2v1q4 -2 7 -5q7 -5 14 -11q37 -32 63 -74q22 -36 39 -76q2 -5 -1 -11q-19 -24 -44 -42h-1h-1zM539 102v0q22 0 45 2
q26 3 51 10q18 5 34 13q4 1 4.5 3t-1.5 5q-1 1 -2 3q-6 11 -13 21q-10 14 -25 23q-5 3 -10 1l-18 -4q-27 -6 -54 -7q-43 -1 -84 8q-2 1 -5 1q-9 2 -17 3q-3 1 -4 0t-1 -4v-4q1 -2 1 -4q2 -30 14 -57q2 -7 9 -7q6 -1 13 -2l24 -2q14 -1 27 -2h12zM671 131v0q-4 -2 -7 -3
q-6 -3 -13 -5q-27 -10 -55 -14q-39 -5 -78 -3q-27 0 -55 5q-5 1 -6 5q-7 15 -10 32q-2 9 -3 19q-1 3 -1 7q0 2 -1 5v3q2 -1 4 -1q3 -1 7 -2l14 -2l34 -6q30 -4 59 -2q31 2 62 11q5 2 9 -1q2 -2 5 -4l12 -10q13 -15 23 -34zM627 0v0q15 -1 31 2q32 6 61 21q4 2 4.5 4t-1.5 6
q-2 5 -3 9q-1 3 -3 5q-1 3 -2.5 4t-4.5 -1q-2 -1 -5 -2l-6 -2q-56 -18 -116 -21q-10 0 -21 -1h-12v0q-2 -1 -3 -1t-1.5 -0.5t-0.5 -1.5v-1t1 -2h0.5h1.5v-1q36 -17 77 -17h2h1zM713 48v0q1 -2 2 -5q2 -5 4 -11q1 -2 1 -3.5t-3 -2.5q-22 -12 -45 -18q-5 -1 -11 -2q-4 0 -7 -1
q-24 -4 -47 -1q-22 1 -42 9q-3 2 -7 3q-3 1 -6 3q-1 0 -2 1h-1q3 1 6 1q6 0 12 1h12q16 1 31 3q51 4 99 22q1 0 2 1h2zM807 1013v0v0v0q5 0 9 1q10 1 19 2q13 1 25 2q19 2 38 3q18 2 35 4q5 1 10 1q3 1 4.5 2t2.5 4q3 18 6 35q6 37 13 74q4 27 9 54q1 6 -1 8t-8 1
q-11 -2 -23 -3q-8 -1 -17 -1q-4 -1 -8 -1q-7 -1 -13 -1l-28 -2l-30 -2q-9 -1 -19 -1q-2 -1 -4 -1h-5t-4.5 -1t-1.5 -5q-1 -9 -1 -18l-2 -20l-2 -28q-2 -23 -5 -47q-1 -17 -3 -34q0 -4 -1 -8q-1 -7 -1 -14q0 -2 1 -3t3 -1h2v0zM804 1016v0l8 90l8 82q5 1 9 1q10 1 21 2
q12 1 23 1l30 2q20 2 39 4q11 1 23 2q5 0 10 1v-2v-4q-9 -52 -18 -105q-3 -14 -5 -28q-3 -14 -5 -28q-1 -4 -5 -4q-7 -1 -13 -2q-4 0 -8 -1h-5q-12 -2 -24 -3t-24 -3q-10 0 -20 -1l-20 -2q-7 -1 -13 -1q-4 -1 -8 -1h-2h-1zM453 1019v0v1v2q-1 5 -1 11q-2 12 -3 24l-2 24
q0 5 -1 10q0 8 -1 16q-2 17 -3 35q-1 8 -2 15q0 10 -1 20q-1 4 -1 8q-1 2 -1 3q0 3 -3 4h-2q-4 0 -8 1q-10 0 -20 1l-28 2q-16 1 -33 2q-7 1 -13 1q-2 1 -5 1q-5 0 -10 1q-7 0 -14 1q-10 1 -19 2q-8 1 -6 -6q1 -6 2 -11q0 -4 1 -8q2 -10 3 -20q3 -20 7 -40l10 -56
q2 -13 5 -26q0 -5 1 -7t3 -2.5t7 -1.5v0v0q8 -1 15 -2q18 -1 37 -3q2 -1 5 -1q18 -2 35 -4q20 -1 40 -3q4 0 5 1t1 5zM450 1016v0h-3t-4 1q-8 0 -17 1q-14 1 -29 3q-12 1 -25 2l-16 2q-15 1 -29 3q-6 0 -11 1h-1h-1q-3 0 -4 0.5t-1.5 2t-1.5 3.5l-2 14q-7 38 -14 75
q-4 27 -8 53q-2 9 -4 19v3v2l24 -2q27 -3 53 -5l54 -4q12 -1 24 -1q0 -3 1 -5q0 -5 1 -10q1 -10 2 -21q0 -8 1 -16q2 -23 4 -47v-1v-3q2 -17 3 -34q1 -9 2 -19q1 -6 2 -13v-3v-1zM310 836v0q5 0 4 4q-3 11 -5 23q-2 11 -5 22q-9 44 -18 87l-4 22q-1 7 -8 8q-5 0 -10 1h-3
l-10 2q-12 1 -24 3q-12 1 -24 3l-12 2q-10 1 -20 3q-9 1 -17 2q-3 1 -6 1q-4 1 -8 1q-7 1 -5 -5q0 -1 1 -3v0q1 -5 2 -9l6 -20q7 -25 15 -51q11 -35 21 -70q2 -8 10 -8q3 0 6 -1h2q7 -1 15 -3q19 -3 38 -5l26 -4l10 -2q9 -1 17 -2q3 -1 6 -1zM310 839v0q-4 1 -8 1
q-10 2 -18 3q-5 1 -10 1q-13 2 -27 4q-20 3 -40 7q-6 0 -11 1q-2 0 -3 1q-2 0 -5 1q-3 0 -4 4q-3 8 -5 16l-4 12q-19 61 -36 123q0 1 -1 2v2h4q5 -1 9 -1q25 -4 51 -8q7 -1 13 -2q12 -2 23 -3q10 -1 19 -2q4 -1 8 -1q1 -1 3 -1h4q4 -1 5.5 -2t1.5 -5q2 -11 4 -21l6 -30
q4 -19 8 -37q3 -13 5 -26l6 -26q1 -4 1 -8q1 -2 1 -3v-2zM1120 1021v0q-1 0 -3 -1h-5q-13 -2 -27 -4l-16 -2q-4 -1 -9 -2q-14 -2 -27 -3q-15 -2 -29 -4q-3 0 -5 -1q-4 0 -9 -1q-5 0 -11 -1t-7 -7q-2 -12 -5 -24v-3q-9 -43 -17 -85q-3 -13 -6 -25q-1 -8 -3 -15q-2 -9 6 -7
l10 2v0l16 2l26 4l42 6l14 2l10 2t8 5l2 6q24 75 44 151q1 1 1 3v2zM1116 1017v0l-2 -8q-2 -7 -4 -15q-18 -65 -38 -129q-2 -8 -10 -8q-1 0 -2 -1h-1q-8 -1 -15 -2q-27 -4 -55 -8q-16 -3 -32 -5q-5 -1 -11 -1q0 -1 -1 -1h-1q0 4 1 7q1 6 3 12l4 20q8 43 17 86l4 20l2 10
q0 2 1 3t5 2q7 1 15 2q7 1 14 1l38 6q12 1 23 3l14 2q12 2 25 3q2 1 4 1h1h1zM469 819v0q5 -1 4 7v0q-1 3 -1 6l-2 14q-1 11 -2 21l-2 24q-1 8 -2 15v2q-2 20 -4 39q-1 9 -2 17q0 7 -1 14q0 2 -1 3.5t-4 1.5q-6 1 -12 1h-1q-5 1 -10 1l-18 2q-13 1 -25 2q-4 1 -8 1l-20 2
l-20 2q-1 1 -2 1q-9 1 -18 1q-7 1 -6 -5q0 -2 1 -3q2 -12 5 -25q7 -34 13 -67q5 -24 11 -48l2 -12q1 -3 2 -4t4 -1q5 0 10 -1l16 -2q13 -1 25 -2q6 -1 12 -1q2 -1 5 -1q10 -1 19 -2q10 -1 21 -2q5 -1 11 -1zM315 993v0h1h1q63 -6 126 -13q5 0 11 -1q0 -8 1 -16l4 -36
q1 -12 2 -25q2 -14 3 -27q2 -18 4 -37q1 -8 1 -16q-60 6 -121 12q-17 79 -33 159zM943 995v0q-5 2 -9 1q-6 0 -11 -1q-3 0 -7 -1q-16 -1 -32 -3q-7 -1 -14 -1q-6 -1 -11 -1q-11 -1 -21 -2l-14 -2q-4 0 -9 -1q-6 0 -13 -1q-2 0 -3 -1t-2 -4v-2v-1q-1 -6 -1 -12q-1 -13 -3 -26
q-1 -10 -2 -21l-2 -16l-2 -24q-2 -15 -3 -29q0 -4 -1 -8q-1 -7 -1 -14q-1 -7 6 -6q4 0 8 1h4q4 1 8 1q12 1 23 3q9 0 18 1l16 2q7 0 14 1q11 1 21 2q6 1 8 3t3 7l10 50l16 74q2 11 4 21zM785 823v0l14 136l2 20l1 1h4l58 6q8 1 16 1l20 2q9 1 19 3q4 0 8 1v0q6 1 12 0
q-1 -4 -1 -7q-2 -8 -3 -15q-12 -55 -23 -110l-4 -20v0q0 -1 -1 -3q-1 -4 -4 -4l-34 -4h-4l-20 -2l-22 -2l-36 -4h-1q-1 0 -1 1zM980 1036v0q-1 -5 3 -5q6 1 11 1h1q7 2 15 3q11 1 22 3q7 1 14 1q9 2 17 3l30 4q3 1 6 1l24 4q6 1 7 6q1 2 1 3v1q1 5 2 9l6 26q1 2 1 5l14 58
q1 4 0 5.5t-6 2.5q-3 0 -6 1h-6q-5 1 -9 1q-16 2 -32 5q-41 7 -81 21q-4 1 -5.5 0t-2.5 -5q-1 -8 -3 -17q-1 -8 -2 -15q-8 -46 -16 -91l-2 -12q-1 -7 -2 -13q-1 -3 -1 -6zM1010 1193v0q35 -12 70 -20q35 -6 71 -9q0 -4 -1 -8q-1 -7 -3 -13q-7 -31 -14 -61q-2 -10 -5 -20v-1
q0 -1 -1 -2q-1 -5 -5 -5l-10 -2q-14 -2 -27 -4q-31 -4 -62 -9q-7 0 -13 -1q-11 -2 -21 -3h-4h-2q14 79 27 158zM274 1037v0v0v2q-3 15 -6 31l-12 70q-2 15 -5 30q-2 10 -3 21q-1 4 -2.5 4.5t-4.5 -0.5q-39 -13 -78 -20q-28 -6 -56 -8q-5 0 -6.5 -2t-0.5 -7q2 -7 4 -15
q2 -11 5 -22q4 -20 9 -40l6 -24q1 -6 7 -6q6 -1 11 -2h5l12 -2q14 -2 28 -5l44 -6l38 -4q6 -1 5 5zM244 1193v0q9 -54 18 -107q5 -26 9 -51h-4q-3 0 -7 1q-4 0 -9 1q-13 2 -27 3q-19 3 -37 6q-13 2 -27 4q-7 1 -15 2h-3l-10 2q-4 0 -5 5q-4 14 -7 29l-10 40l-4 18
q-1 6 -2 13q-1 3 -0.5 4t4.5 1q64 5 125 25q4 1 7 2zM357 653v0v3q0 2 -1 4q-18 69 -33 139q-1 4 -2.5 5.5t-5.5 1.5q-5 1 -10 1q-14 2 -27 4q-29 4 -58 9q-10 1 -21 3q-6 1 -4 -5q1 -3 2 -5q3 -9 6 -17q21 -61 45 -120q2 -5 8 -6q10 -1 20 -3l8 -2l14 -2q25 -4 49 -9h6
q2 -1 4 -1zM354 657v0q-3 0 -6 1q-6 0 -12 1q-13 3 -27 5q-26 5 -51 9q-6 1 -7 6q-26 64 -49 129q-1 4 -3 8q0 2 -1 4q2 0 3 -1h7q17 -3 35 -6q6 -1 13 -2q5 -1 11 -2q15 -2 29 -4l18 -2q3 0 4 -1t2 -4q1 -7 3 -15q4 -17 8 -35q8 -30 15 -60q3 -13 7 -26v-3q1 -1 1 -2z
M897 654v0h1q2 -1 3 -1v1q5 0 9 1q16 2 32 5l54 10q8 1 10 8l16 40q9 24 19 48q7 19 13 38q3 6 5 13q3 8 -6 6q-3 0 -5 -1l-28 -4l-38 -6q-10 -1 -20 -3q-4 0 -9 -1l-16 -2q-4 -1 -5 -5v-1l-1 -1q-1 -7 -3 -13q-3 -14 -6 -27q-8 -33 -16 -65q-4 -18 -8 -35q-1 -2 -1 -3v-2z
M900 657v0q1 3 2 5q1 6 3 12q14 62 29 124v0l1.5 3t1.5 1.5t3 0.5q10 1 19 2q18 3 36 5l38 6q9 2 17 3q2 1 4 1h2v-1q0 -1 -1 -2q-23 -70 -52 -138q-1 -5 -8 -6q-24 -4 -49 -9q-9 -2 -18 -3q-2 -1 -4 -1q-8 -1 -15 -2q-3 -1 -6 -1h-3zM358 800v0q-4 1 -5 0t0 -5v0q0 -1 1 -2
q1 -7 3 -14q15 -62 30 -123q1 -5 3.5 -7t7.5 -2q11 -1 21 -2q28 -4 55 -7q4 0 9 -1h2q2 0 3 -1q7 -1 6 6v1v1q-1 4 -1 9l-4 26l-2 24q-2 12 -3 23t-3 23q-1 11 -2 21q-1 3 -1 5q0 4 -1 8q0 4 -2 5.5t-6 1.5h-3h-6l-40 4q-10 1 -19 2q-6 1 -13 1q-10 1 -21 3h-9zM490 639v0
q-9 1 -19 2q-23 3 -45 6q-14 1 -28 3h-1q-3 0 -4.5 1.5t-1.5 4.5q-18 69 -35 139v1v1h1h3q10 -1 19 -2q22 -2 43 -4l18 -2q5 0 10 -1h8q6 -1 12 -1q2 0 3 -1.5t1 -2.5q1 -3 1 -7q0 -5 1 -9q1 -14 3 -27l2 -18q3 -21 5 -43l2 -10v-5l2 -20q1 -1 0 -3v-2zM766 636v0q4 1 8 1
q10 1 20 3l20 2q5 0 9 1q5 0 10 1q12 1 24 3q7 0 9 7q0 1 1 2v4q3 9 5 18q12 46 23 91q3 14 6 27q1 6 -4 5q-12 -1 -25 -3q-6 0 -13 -1q-12 -2 -24 -3l-28 -2q-6 -1 -12 -1q-5 0 -10 -1q-4 0 -6 -1.5t-2 -6.5v-3q0 -1 -1 -1q-1 -9 -1 -17q-3 -18 -5 -37q0 -5 -1 -9
q-2 -17 -4 -35q-1 -10 -3 -21l-2 -16q-1 -4 0.5 -5.5t5.5 -1.5zM898 798v0l-2 -8q-1 -8 -3 -16q-12 -46 -23 -91q-3 -11 -5 -22q-1 -2 -1 -3q-2 -5 -3.5 -6.5t-6.5 -1.5q-15 -2 -31 -4l-22 -2q-12 -2 -24 -3l-12 -2h-1h-1v1v2q2 16 4 31q3 25 6 51q3 18 5 36q1 11 2 21
q0 4 1 5t5 1q5 1 9 1h8q24 3 49 5q14 1 29 3q5 0 11 1q2 0 4 1h2zM989 636v0q-2 2 -4 2h-3h-1l-8 -2q-26 -4 -51 -9l-28 -4q-5 0 -7 -4l-2 -6q-19 -71 -44 -140q-1 -5 4 -6q1 0 2 1h1q5 1 9 2q8 1 17 3h1l30 6q6 2 10 8q38 69 70 140l2 6q1 2 2 3zM844 471v0q2 3 3 6l4 14
q20 60 37 120q0 2 1 4q1 4 6 5q28 5 55 9q15 3 29 5h3h2q0 -1 -1 -1q0 -2 -1 -3q-32 -72 -70 -142q-3 -5 -8 -5l-38 -8q-10 -2 -19 -4h-2h-1zM407 468v0q7 -1 5 5q0 1 -1 3v2q-4 13 -9 26q-10 33 -20 65q-7 22 -13 43q0 3 -1 5q-1 5 -6 6q-4 0 -9 1q-2 0 -3 1q-6 1 -13 2
l-28 4q-13 2 -26 5q-5 1 -11 2h-2t-2 -1t-1 -2.5t1 -2.5q2 -5 4 -9l6 -16q23 -49 49 -97q4 -7 7 -13l4 -8q5 -9 15 -10h2q7 -2 14 -3q11 -3 21 -5l12 -2q3 -1 5 -1zM270 635v0q3 -1 6 -1l10 -2l50 -8q2 -1 5 -1q10 -2 20 -3q2 0 3 -1.5t1 -3.5v0q3 -11 7 -22q7 -26 15 -51
l14 -46q4 -10 7 -20q0 -2 1 -3q0 -1 1 -2h-2h-2l-26 6q-12 2 -23 5q-3 0 -5 1q-7 0 -11 6q-1 4 -3 7q-1 1 -1 3q-5 9 -10 19q-12 21 -23 43q-11 24 -23 49q-4 10 -9 20q-1 1 -1 3q-1 1 -1 2zM740 451v0h2q3 0 5 1q5 0 9 1q22 3 43 6q8 1 11 9q19 55 35 112q1 3 2 7
q4 11 7 23q2 8 -6 7q-4 0 -7 -1l-16 -2q-19 -2 -37 -4h-2l-10 -2q-8 0 -15 -1q-3 -1 -4.5 -2t-1.5 -5q-1 -6 -1 -11q-3 -17 -5 -33q-1 -9 -3 -18l-2 -14q-2 -16 -4 -31l-4 -22l-2 -12q-1 -9 6 -8zM851 614v0v-2q0 -2 -1 -3q-19 -70 -43 -139q-2 -7 -10 -8q-17 -2 -35 -5
q-10 -1 -20 -3h-3h-2v1q0 2 1 3q1 9 3 18q2 18 5 36q2 11 3 22q1 7 2 15l4 24l2 20q1 2 1 4v3t1 3t3 1q8 1 17 2l38 4q10 1 21 2l10 2h2h1zM513 451v0q4 -1 5.5 0.5t1.5 5.5q-1 4 -1 7q-1 2 -1 5v3l-6 40q-2 14 -4 29q-2 10 -3 21l-6 40q-1 3 -2 4t-3 1q-4 0 -7 1h-6
q-15 2 -30 3q-13 2 -27 4l-16 2v0h-4q-5 0 -5 -5q1 -2 1 -4q1 0 1 -1l6 -22q8 -27 17 -54l14 -42q4 -11 8 -23q1 -6 7 -7q12 -1 25 -3l12 -2l16 -2q4 -1 7 -1zM402 614v0q20 -2 40 -5q27 -3 53 -6q4 -24 7 -47q7 -51 15 -102q-2 -1 -4 -0.5t-4 0.5q-2 1 -3 1q-14 2 -27 4
q-12 1 -23 3q-6 0 -8 6q-20 56 -36 112q0 1 -1 2q-3 12 -7 24v3q-1 1 -1 3q0 1 -1 2zM474 293v0q2 1 3 2q2 3 4 5q3 4 1 9q-2 4 -4 7q-26 51 -46 105q-2 3 -3 7q-4 7 -12 8q-3 1 -6 1q-5 1 -9 2l-32 6v0q-1 1 -2 1t-2 -1v-2v-2v0q0 -1 1 -2v0q2 -4 4 -7q43 -70 96 -131
q2 -3 5 -5q1 -2 2 -3zM369 442v0q3 0 6 -1q7 -2 13 -3l26 -4q9 -1 12 -9q3 -5 5 -11q0 -1 1 -3q19 -49 44 -96v-1q1 -1 1 -2q3 -5 2.5 -7.5t-5.5 -6.5q0 1 -1 2q-2 2 -4 3q-23 27 -44 56q-29 39 -55 81v1t-1 1zM780 294v0q12 11 37 44t47 65.5t25 41.5q-1 1 -2.5 1h-2.5
t-1 -1q-6 -1 -13 -2q-17 -4 -35 -7q-8 -2 -11 -10q-18 -48 -40 -94q-2 -4 -5 -8l-6 -12q-5 -12 7 -18zM780 298v0q-4 3 -5 5.5t1 5.5q1 3 2 5q28 54 49 110q2 8 10 9q16 3 31 6q6 1 13 3h2h2q-46 -77 -105 -144zM424 1338v0q-4 -3 -6 -7q0 -1 -1 -2q-36 -57 -93 -94v0
l-1.5 -1.5t-0.5 -2.5q0 -1 1.5 -1.5t2.5 -0.5h2q7 -1 14 -1q7 -1 15 -2q12 -1 23 -2q17 -1 35 -2q7 -1 14 -1h1h2q3 0 3 3t-1 5v11q-1 6 -2 13l-2 20l-2 38q-1 9 -1 18q0 4 -3 9zM423 1331v0q1 -17 3 -34q3 -36 5 -73q-41 2 -83 6l-22 2q1 1 2 1l2 2q26 18 49 40
q24 24 41 52q1 2 2 3v1h1zM831 1337v0l-1 -1q-1 0 -1 -1v-2q-1 -4 -1 -9q-2 -16 -3 -33q-1 -7 -1 -15q-1 -24 -5 -48q-1 -6 6 -6h2h1h9l30 2q9 1 18 1q11 1 23 2q5 1 10 1h3q4 0 7 1q2 0 3.5 0.5t1.5 3.5q-63 40 -102 104zM928 1232v0q-20 -1 -39 -3q-33 -3 -66 -4
q3 38 6 75l2 28l1 1v0q12 -19 27 -37q15 -17 33 -32l24 -20zM602 908v0h2v-1q1 -2 2 -3q14 -36 28 -73q2 -3 3 -7q5 -13 10 -27q2 -5 8 -6h14h26q6 0 6 5v2v1v205v1v2q0 2 -1.5 3.5t-3.5 1.5h-2h-1h-10h-27q-6 0 -7 -6v-2v-1v-6v-13q1 -29 1 -58v-27v-3v-2l-2 4v0
q-5 12 -9 24q-16 42 -33 83q-1 5 -3 6t-7 1h-31h-2h-5q-5 0 -5 -5v-2v-1v-18v-25v-133v-12v-16q0 -5 1.5 -7t7.5 -2h18h15h1h3q5 1 5 5v3v1v11v30v18q0 1 -1 3v32q0 7 -1 14zM654 882v0v2v3v18q-1 16 -1 32v36v16v5v11q0 3 1 3.5t3 0.5h16h12h8h1q4 0 4 -3v-3v-13v-31
q0 -19 -1 -38v-63v-36q1 -11 1 -21q0 -2 -1 -4v-2h-2h-3h-34h-4.5t-2 1.5t-1.5 3.5l-22 56q-11 29 -22 57q-1 0 -1 1l-2 4q0 1 -1 2l-1 1q-1 -1 -1 -2v-2v-1v-16v-38v-37q1 -13 1 -27v-2v-1h-2h-3h-35q-3 0 -4 0.5t-1 4.5v8v6v159v26v4q0 4 1 5t5 1h4h17h12q4 0 5.5 -1
t2.5 -5l20 -50q12 -30 24 -61q1 -4 3 -8q1 -1 2 -1v-1h2zM607 1240v0v1q-1 2 -1 3v39v21v1q1 1 0 3q0 4 -4 5h-3h-1h-11h-24q-6 0 -8 -1.5t-2 -8.5v-35v-40v-91v-29v-4v-6q0 -6 6 -6h41q6 0 6 6v3v1v20v50q0 3 1 4t4 0q16 1 32 0q3 1 4 0t1 -5v-2v-1v-13q-1 -27 -1 -55
q0 -2 1 -4q0 -3 3 -4h3h1h34h2h5q5 0 5 5v3v1v33v75v36v61q0 4 -1.5 5.5t-5.5 1.5h-32h-7h-3q-2 -1 -3 -2t-2 -4v-3v-1v-19q0 -20 1 -39q0 -4 -1 -5t-5 -1h-31h-3q0 1 -1 1zM603 1309v0v-2v-4v-59v-1v-1q0 -6 6 -6h16h11h6h2q4 0 5.5 1.5t1.5 5.5v29v12v6v16q0 2 0.5 3
t2.5 1h38h3q1 0 1 -1h1v0v-2q1 -1 1 -2v-207q0 -1 -1 -2v0h-46v2v3v44v26q0 6 -2 7.5t-7 1.5q-11 -1 -21 0h-9h-1h-2q-6 -1 -6 -6v-3v-1v-51v-18v-3v-2q-2 0 -8 -0.5t-14.5 -0.5t-15 0.5t-8.5 0.5q0 1 -1 1v4v137v57v4v6t1 4t4 1h8q4 -1 8 -1q6 0 12 1h8h4q1 -1 2 -1z
M692 645v0v1v2q0 16 -6 31q-11 29 -43 37q-19 4 -39 -2q-26 -6 -37 -31q-15 -36 0 -72q6 -17 23 -25l22 -10l10 -4t9 -3q7 -3 12 -10q5 -10 -4 -16q-9 -5 -17.5 -2t-11.5 13v2q-1 4 -3 5.5t-6 1.5h-30h-3h-5q-6 -1 -6 -6q0 -3 1 -5v-2q2 -21 13 -38q12 -18 32 -25
q18 -5 37 -2q38 5 51 40q9 27 4 55q-6 31 -34 43q-7 4 -15 7h-2l-8 4q-5 1 -10 3q-7 3 -12 8q-3 5 -2 10t6 7q15 6 22 -9q1 -2 2 -3q1 -4 1.5 -4.5t4.5 -0.5h39h3h2zM689 649v0h-43q-1 0 -1 1q0 2 -1 3q-9 20 -28 12q-6 -2 -7.5 -9t3.5 -13q6 -7 14 -10q5 -2 10 -3
q7 -3 13 -5q8 -3 16 -8q21 -11 26 -34q6 -27 -2 -54q-11 -35 -47 -41q-21 -3 -40 3q-16 6 -26 19q-14 21 -15 46v2v0v1h2h3h35h3t1.5 -1l1.5 -3q0 -2 1 -4q5 -11 15.5 -13.5t19.5 4.5q8 8 3 18q-3 6 -8 9q-6 3 -12 5l-14 6q-10 4 -20 9q-17 7 -23 25q-12 32 0 64
q10 27 38 34q22 5 43 -2q20 -7 30 -26q8 -17 9 -35z" />
    <glyph glyph-name="equal" unicode="=" horiz-adv-x="1229" 
d="M799 264v0l1 1l1 1q5 6 10 11q10 12 21 25q58 73 104 154q65 116 113 239q47 118 82 240q30 101 53 205q2 8 3 16q3 15 6 29q2 6 0 12h-5q-6 1 -11 1q-8 1 -15 2q-20 1 -39 3q-35 5 -70 14q-61 16 -113 52q-56 37 -85 97q-14 27 -18 57v5v2h-419v-2q-1 -1 -1 -3t-1 -5
q0 -5 -1 -11q-10 -42 -36 -77q-37 -51 -94 -81q-51 -27 -107 -39q-25 -6 -51 -9q-6 -1 -12 -1q-10 -2 -21 -3q-10 0 -20 -1q-6 0 -12 -1h-1h-1v-2v-1q0 -9 2 -17q1 -2 2 -5q13 -65 29 -129q41 -161 100 -316q41 -110 95 -215q45 -87 102 -167q29 -41 62 -78q2 -2 2.5 -3
t-0.5 -3q-10 -24 -14 -50q-1 -7 -1 -13q0 -7 7 -7q4 -1 8 -1q3 -1 6 -1q5 -1 7 4v3v1q1 3 1 5q1 5 2 9q8 36 23 70q8 18 17 36q3 7 7 14v0q1 2 1 4t-1 3q-2 0 -4 -1t-3 -3l-4 -2q-23 45 -41 93q29 -4 57 -8l1 -1q0 -2 1 -3q0 -4 1 -8q1 -5 2 -9q0 -5 1 -10q3 -16 6 -33
q1 -4 -1 -8q-15 -24 -27 -50q-21 -50 -32 -102q-1 -5 0 -7t6 -3q14 -4 28 -4h31q9 0 9 10v1q0 3 1 6q7 45 26 86q21 44 50 83q2 2 3 5l2 2h7v-1v0l-8 -12q-39 -52 -61 -113q-10 -28 -13 -58q-1 -6 1 -8t8 -1q28 2 53 11q8 3 10 11q12 46 38 86q21 32 47 61q2 2 5 2q2 0 3 2
v4q1 3 1 6q4 23 9 47q0 3 1 5v3q30 4 58 8q-1 -5 -6.5 -19t-13 -30t-13.5 -28.5t-9 -14.5h-1l-2 2l-6 4q-6 4 -12 9q-3 1 -4.5 1t-3.5 -2l-12 -14q-3 -4 -3 -6t4 -5q15 -12 28 -26q39 -40 68 -89q1 -3 3 -6t5 -7v0q0 -1 1 -1.5t2 -0.5v1q1 2 1 3q-1 35 -16 68zM626 372v0
l-2 -2q-1 -2 -1 -3q-29 -39 -50 -83q-20 -41 -27 -86q-1 -3 -1 -6v-4q0 -6 -6 -6h-3q-23 -1 -46 2q-5 1 -9 2t-4.5 2t0.5 4q7 32 18 63q15 47 41 90q3 4 2 8q-3 14 -6 29q0 2 -1 5q-2 14 -5 28q0 5 -5 6l-20 2q-12 2 -24 3l-10 2h-1h-2q-4 0 -3 -4q0 -1 1 -2v0
q18 -44 39 -87v-1q1 -1 2 -3q3 -4 7 -1q0 1 1 1q0 1 1 2q1 -1 0.5 -2t-0.5 -2l-1 -1q-17 -34 -31 -70q-11 -29 -16 -60v-2v0q-1 -3 -2 -3.5t-4 -0.5l-10 2q-4 0 -5 1t-1 5q1 7 2 15q4 23 13 45q2 4 -1 8q-95 108 -161 237q-50 96 -89 197q-60 152 -101 309q-21 80 -38 160
q-2 9 -4 17v4v2h1h1q6 1 12 1q10 1 21 2q92 5 176 44q65 31 108 89q25 35 35 77q1 5 2 11q1 2 1 4t1 3v2h412q1 -3 1 -6q1 -6 3 -13q11 -50 44 -90q40 -48 96 -75q46 -23 98 -34q26 -6 52 -9q16 -2 32 -3q6 -1 12 -1q6 -1 13 -1q3 -1 6 -1v-3v-6q-3 -17 -7 -33q0 -2 -1 -4
q-22 -102 -51 -202q-30 -105 -68 -208q-39 -103 -88 -202q-50 -100 -115 -191q-26 -37 -56 -70q-1 -1 -2 -3l-4 -4q-3 -3 -1 -8q8 -18 12 -39l2 -14q1 -4 1 -7h-1l-1 1q-1 2 -2 3q-25 44 -59 82q-18 21 -40 38q-3 2 -3 3.5t2 3.5l10 10q2 3 4 5q1 -1 3 -2t5 -3l2 -2
q6 -4 11 -8q4 -2 6 -1.5t4 4.5l26 56q5 11 9 21l4 10v0q0 1 1 2q0 5 -5 5q-4 -1 -9 -1q-6 -1 -13 -2q-2 -1 -3 -1q-13 -2 -26 -3q-6 0 -7.5 -1.5t-2.5 -7.5q-2 -11 -4 -21q-2 -14 -5 -28q0 -4 -1 -6v-2q-1 -1 -3 -1l-3 -3q-28 -30 -50 -64q-25 -40 -37 -85q-2 -7 -8 -9
q-26 -10 -53 -11h-3h-2v5q1 5 1 10q6 35 20 68q21 51 54 95q1 1 2 3q3 3 5 6t6 3q19 -3 38 -8q1 -1 3 -1q1 0 2 -1v2q1 2 1 4q1 8 3 15l8 50q5 30 9 59q4 27 8 55l6 40q0 2 1 5v6q3 20 6 41q1 11 2 21q1 8 2 15q1 9 2 17l2 18q2 12 3 25q1 6 2 13q0 6 1 12q1 13 3 25
q2 18 4 35v5l2 16l6 54l2 22l2 18q0 7 1 14l2 16q0 8 1 15t1 14q1 10 2 21q2 12 3 25q1 9 2 19q0 8 1 15q1 9 1 18q1 8 2 17q2 19 3 38l1 1v5q2 24 4 47q1 12 2 25q1 12 2 25l2 22q1 14 3 28q1 14 2 27v1q1 11 1 23q1 17 3 33v4q1 2 1 3q0 3 -1 4.5t-4 1.5h-3h-1h-337
q-6 0 -7 -1t0 -7l2 -26q1 -16 2 -33t3 -34q1 -11 2 -21q0 -9 1 -18l2 -22l2 -30q1 -10 2 -21l2 -16q0 -10 1 -20q1 -11 2 -21q1 -8 2 -15q0 -7 1 -13q0 -8 1 -16q1 -13 3 -27q1 -10 1 -20l2 -14q1 -10 2 -21l2 -24l2 -18l2 -24l4 -42l4 -36q1 -10 3 -21q0 -7 1 -15
q1 -11 3 -23l6 -52l4 -36q1 -9 2 -17q1 -13 3 -27q1 -10 3 -21l2 -16l2 -20q2 -12 3 -23q3 -23 6 -45l10 -62q5 -34 11 -67q2 -14 5 -29l2 -12v-1v-2q1 -3 2.5 -4t4.5 0l8 2q7 2 15 3q15 4 32 3zM454 1393v0h346v-6q-1 -8 -1 -16q-1 -3 -1 -6q0 -8 -1 -15q-1 -15 -2 -29
q-2 -18 -3 -37q-1 -8 -1 -15l-2 -16q-1 -16 -2 -31l-2 -20q-1 -8 -1 -16l-2 -22l-4 -42q-1 -15 -3 -29q0 -8 -1 -15q-1 -10 -2 -19l-2 -24l-2 -20q-1 -8 -1 -16q-1 -10 -2 -21l-2 -20l-2 -12q0 -6 -1 -12q0 -6 -1 -13q-2 -20 -4 -41l-4 -32l-2 -22q-1 -9 -2 -17q0 -6 -1 -12
l-2 -20q-2 -11 -3 -23q-1 -6 -1 -13l-2 -14q-1 -12 -3 -24q-1 -14 -3 -27q-1 -5 -1 -9q-1 -7 -2 -15q-2 -17 -4 -35q-5 -34 -10 -69q-5 -40 -12 -79q-3 -24 -7 -48q-2 -11 -4 -23q-1 -7 -3 -15q-1 -5 -2 -11v-4q0 -1 -1 -2q-59 18 -118 0v2q-1 2 -1 3q-2 13 -5 25l-10 64
q-4 23 -7 46q-2 11 -3 22q-2 9 -3 17l-4 32q-2 9 -3 19q-1 7 -2 15q-1 11 -3 22q-1 12 -3 24q-1 10 -2 21q-1 8 -2 15q-1 10 -2 19q-2 12 -3 23q-1 10 -2 19l-2 12q-1 11 -2 21q-1 8 -2 17q-1 13 -3 26v5q-1 5 -1 10q-2 14 -3 28q-1 10 -2 19t-2 17q-1 7 -1 13q-1 7 -2 15
q-1 7 -1 15q-1 7 -2 13q-1 11 -2 21t-2 21q-1 16 -3 31v7q-2 23 -5 47q-2 22 -4 45q0 7 -1 15q-1 9 -1 17q-2 22 -4 43l-2 22q-1 9 -1 18l-2 22q-2 14 -3 28t-2 27q0 7 -1 14q0 6 -1 13l-2 26v7v4zM816 175v0q-1 1 -1 2q-1 3 -2 5q-1 3 -2 5t-2 3q-21 39 -48 72
q-26 30 -54 57l-2 2t-2 1q-3 2 -6 0q-1 -1 -3 -2q-22 -23 -35 -53q-1 -2 -0.5 -3.5t2.5 -3.5l2 -2q1 0 1 -1q29 -21 52 -49q41 -51 66 -113v0l2 -4q3 -3 5 0l2 4q0 1 1 2q20 36 24 78zM700 320v0q1 0 1 -1q1 0 2 -1l4 -4q26 -25 50 -53q27 -32 47 -68q0 -1 1 -2q2 -4 5 -9
q2 -4 1 -8q-2 -39 -21 -73q-1 -2 -2 -5q-1 -1 -2 -3q0 2 -1 3q-1 2 -1 3q-25 60 -65 111q-23 29 -53 50l-1 1h-1q-2 2 -2.5 3t1.5 3q7 17 17 31l12 14q2 3 5 5l2 2q0 1 1 1zM462 100v0q0 -2 1 -4l2 -4v0q20 -34 53 -57q6 -5 15 -5h9h3q26 0 51 2q29 3 57 10q26 6 51 13
q2 1 4 1q4 1 5 3t-1 7l-2 4q-4 8 -8 15q-8 16 -18 31q-3 6 -6 6.5t-9 -1.5q-1 0 -2 -1l-6 -2q-47 -19 -99 -21q-44 -3 -88 3l-1 1h-5t-6 -1zM466 98v0h4q4 -1 8 -1q32 -5 64 -4q23 1 47 3q37 4 72 18q5 3 11 5q3 1 4.5 0.5t3.5 -3.5l1 -1q7 -11 13 -22q6 -10 11 -20l4 -8
q0 -1 1 -3v-1l-1 -1q-2 -1 -3 -1q-39 -12 -78 -19q-37 -7 -74 -6q-10 0 -19 -1q-9 0 -16 5q-31 22 -51 55q0 1 -1 3q-1 1 -1 2zM633 196v0q-1 -7 6 -13q46 -46 71 -106q6 -14 11 -28q3 -7 5 -14t8 -2q26 18 45 43q4 6 1 13q-22 54 -56 100q-27 39 -65 66q-4 3 -6 2.5
t-3 -4.5q-6 -12 -11 -24q-5 -15 -6 -33zM730 35v0q-1 3 -3 7q-2 8 -5 16q-15 41 -40 78q-18 27 -41 50q-5 4 -5 11q1 16 6 30q4 9 7 18l4 6q0 1 1 2v1q4 -2 7 -5q7 -5 14 -11q37 -32 63 -74q22 -36 39 -76q2 -5 -1 -11q-19 -24 -44 -42h-1h-1zM539 102v0q22 0 45 2
q26 3 51 10q18 5 34 13q4 1 4.5 3t-1.5 5q-1 1 -2 3q-6 11 -13 21q-10 14 -25 23q-5 3 -10 1l-18 -4q-27 -6 -54 -7q-43 -1 -84 8q-2 1 -5 1q-9 2 -17 3q-3 1 -4 0t-1 -4v-4q1 -2 1 -4q2 -30 14 -57q2 -7 9 -7q6 -1 13 -2l24 -2q14 -1 27 -2h12zM671 131v0q-4 -2 -7 -3
q-6 -3 -13 -5q-27 -10 -55 -14q-39 -5 -78 -3q-27 0 -55 5q-5 1 -6 5q-7 15 -10 32q-2 9 -3 19q-1 3 -1 7q0 2 -1 5v3q2 -1 4 -1q3 -1 7 -2l14 -2l34 -6q30 -4 59 -2q31 2 62 11q5 2 9 -1q2 -2 5 -4l12 -10q13 -15 23 -34zM627 0v0q15 -1 31 2q32 6 61 21q4 2 4.5 4t-1.5 6
q-2 5 -3 9q-1 3 -3 5q-1 3 -2.5 4t-4.5 -1q-2 -1 -5 -2l-6 -2q-56 -18 -116 -21q-10 0 -21 -1h-12v0q-2 -1 -3 -1t-1.5 -0.5t-0.5 -1.5v-1t1 -2h0.5h1.5v-1q36 -17 77 -17h2h1zM713 48v0q1 -2 2 -5q2 -5 4 -11q1 -2 1 -3.5t-3 -2.5q-22 -12 -45 -18q-5 -1 -11 -2q-4 0 -7 -1
q-24 -4 -47 -1q-22 1 -42 9q-3 2 -7 3q-3 1 -6 3q-1 0 -2 1h-1q3 1 6 1q6 0 12 1h12q16 1 31 3q51 4 99 22q1 0 2 1h2zM807 1013v0v0v0q5 0 9 1q10 1 19 2q13 1 25 2q19 2 38 3q18 2 35 4q5 1 10 1q3 1 4.5 2t2.5 4q3 18 6 35q6 37 13 74q4 27 9 54q1 6 -1 8t-8 1
q-11 -2 -23 -3q-8 -1 -17 -1q-4 -1 -8 -1q-7 -1 -13 -1l-28 -2l-30 -2q-9 -1 -19 -1q-2 -1 -4 -1h-5t-4.5 -1t-1.5 -5q-1 -9 -1 -18l-2 -20l-2 -28q-2 -23 -5 -47q-1 -17 -3 -34q0 -4 -1 -8q-1 -7 -1 -14q0 -2 1 -3t3 -1h2v0zM804 1016v0l8 90l8 82q5 1 9 1q10 1 21 2
q12 1 23 1l30 2q20 2 39 4q11 1 23 2q5 0 10 1v-2v-4q-9 -52 -18 -105q-3 -14 -5 -28q-3 -14 -5 -28q-1 -4 -5 -4q-7 -1 -13 -2q-4 0 -8 -1h-5q-12 -2 -24 -3t-24 -3q-10 0 -20 -1l-20 -2q-7 -1 -13 -1q-4 -1 -8 -1h-2h-1zM453 1019v0v1v2q-1 5 -1 11q-2 12 -3 24l-2 24
q0 5 -1 10q0 8 -1 16q-2 17 -3 35q-1 8 -2 15q0 10 -1 20q-1 4 -1 8q-1 2 -1 3q0 3 -3 4h-2q-4 0 -8 1q-10 0 -20 1l-28 2q-16 1 -33 2q-7 1 -13 1q-2 1 -5 1q-5 0 -10 1q-7 0 -14 1q-10 1 -19 2q-8 1 -6 -6q1 -6 2 -11q0 -4 1 -8q2 -10 3 -20q3 -20 7 -40l10 -56
q2 -13 5 -26q0 -5 1 -7t3 -2.5t7 -1.5v0v0q8 -1 15 -2q18 -1 37 -3q2 -1 5 -1q18 -2 35 -4q20 -1 40 -3q4 0 5 1t1 5zM450 1016v0h-3t-4 1q-8 0 -17 1q-14 1 -29 3q-12 1 -25 2l-16 2q-15 1 -29 3q-6 0 -11 1h-1h-1q-3 0 -4 0.5t-1.5 2t-1.5 3.5l-2 14q-7 38 -14 75
q-4 27 -8 53q-2 9 -4 19v3v2l24 -2q27 -3 53 -5l54 -4q12 -1 24 -1q0 -3 1 -5q0 -5 1 -10q1 -10 2 -21q0 -8 1 -16q2 -23 4 -47v-1v-3q2 -17 3 -34q1 -9 2 -19q1 -6 2 -13v-3v-1zM310 836v0q5 0 4 4q-3 11 -5 23q-2 11 -5 22q-9 44 -18 87l-4 22q-1 7 -8 8q-5 0 -10 1h-3
l-10 2q-12 1 -24 3q-12 1 -24 3l-12 2q-10 1 -20 3q-9 1 -17 2q-3 1 -6 1q-4 1 -8 1q-7 1 -5 -5q0 -1 1 -3v0q1 -5 2 -9l6 -20q7 -25 15 -51q11 -35 21 -70q2 -8 10 -8q3 0 6 -1h2q7 -1 15 -3q19 -3 38 -5l26 -4l10 -2q9 -1 17 -2q3 -1 6 -1zM310 839v0q-4 1 -8 1
q-10 2 -18 3q-5 1 -10 1q-13 2 -27 4q-20 3 -40 7q-6 0 -11 1q-2 0 -3 1q-2 0 -5 1q-3 0 -4 4q-3 8 -5 16l-4 12q-19 61 -36 123q0 1 -1 2v2h4q5 -1 9 -1q25 -4 51 -8q7 -1 13 -2q12 -2 23 -3q10 -1 19 -2q4 -1 8 -1q1 -1 3 -1h4q4 -1 5.5 -2t1.5 -5q2 -11 4 -21l6 -30
q4 -19 8 -37q3 -13 5 -26l6 -26q1 -4 1 -8q1 -2 1 -3v-2zM1120 1021v0q-1 0 -3 -1h-5q-13 -2 -27 -4l-16 -2q-4 -1 -9 -2q-14 -2 -27 -3q-15 -2 -29 -4q-3 0 -5 -1q-4 0 -9 -1q-5 0 -11 -1t-7 -7q-2 -12 -5 -24v-3q-9 -43 -17 -85q-3 -13 -6 -25q-1 -8 -3 -15q-2 -9 6 -7
l10 2v0l16 2l26 4l42 6l14 2l10 2t8 5l2 6q24 75 44 151q1 1 1 3v2zM1116 1017v0l-2 -8q-2 -7 -4 -15q-18 -65 -38 -129q-2 -8 -10 -8q-1 0 -2 -1h-1q-8 -1 -15 -2q-27 -4 -55 -8q-16 -3 -32 -5q-5 -1 -11 -1q0 -1 -1 -1h-1q0 4 1 7q1 6 3 12l4 20q8 43 17 86l4 20l2 10
q0 2 1 3t5 2q7 1 15 2q7 1 14 1l38 6q12 1 23 3l14 2q12 2 25 3q2 1 4 1h1h1zM469 819v0q5 -1 4 7v0q-1 3 -1 6l-2 14q-1 11 -2 21l-2 24q-1 8 -2 15v2q-2 20 -4 39q-1 9 -2 17q0 7 -1 14q0 2 -1 3.5t-4 1.5q-6 1 -12 1h-1q-5 1 -10 1l-18 2q-13 1 -25 2q-4 1 -8 1l-20 2
l-20 2q-1 1 -2 1q-9 1 -18 1q-7 1 -6 -5q0 -2 1 -3q2 -12 5 -25q7 -34 13 -67q5 -24 11 -48l2 -12q1 -3 2 -4t4 -1q5 0 10 -1l16 -2q13 -1 25 -2q6 -1 12 -1q2 -1 5 -1q10 -1 19 -2q10 -1 21 -2q5 -1 11 -1zM315 993v0h1h1q63 -6 126 -13q5 0 11 -1q0 -8 1 -16l4 -36
q1 -12 2 -25q2 -14 3 -27q2 -18 4 -37q1 -8 1 -16q-60 6 -121 12q-17 79 -33 159zM943 995v0q-5 2 -9 1q-6 0 -11 -1q-3 0 -7 -1q-16 -1 -32 -3q-7 -1 -14 -1q-6 -1 -11 -1q-11 -1 -21 -2l-14 -2q-4 0 -9 -1q-6 0 -13 -1q-2 0 -3 -1t-2 -4v-2v-1q-1 -6 -1 -12q-1 -13 -3 -26
q-1 -10 -2 -21l-2 -16l-2 -24q-2 -15 -3 -29q0 -4 -1 -8q-1 -7 -1 -14q-1 -7 6 -6q4 0 8 1h4q4 1 8 1q12 1 23 3q9 0 18 1l16 2q7 0 14 1q11 1 21 2q6 1 8 3t3 7l10 50l16 74q2 11 4 21zM785 823v0l14 136l2 20l1 1h4l58 6q8 1 16 1l20 2q9 1 19 3q4 0 8 1v0q6 1 12 0
q-1 -4 -1 -7q-2 -8 -3 -15q-12 -55 -23 -110l-4 -20v0q0 -1 -1 -3q-1 -4 -4 -4l-34 -4h-4l-20 -2l-22 -2l-36 -4h-1q-1 0 -1 1zM980 1036v0q-1 -5 3 -5q6 1 11 1h1q7 2 15 3q11 1 22 3q7 1 14 1q9 2 17 3l30 4q3 1 6 1l24 4q6 1 7 6q1 2 1 3v1q1 5 2 9l6 26q1 2 1 5l14 58
q1 4 0 5.5t-6 2.5q-3 0 -6 1h-6q-5 1 -9 1q-16 2 -32 5q-41 7 -81 21q-4 1 -5.5 0t-2.5 -5q-1 -8 -3 -17q-1 -8 -2 -15q-8 -46 -16 -91l-2 -12q-1 -7 -2 -13q-1 -3 -1 -6zM1010 1193v0q35 -12 70 -20q35 -6 71 -9q0 -4 -1 -8q-1 -7 -3 -13q-7 -31 -14 -61q-2 -10 -5 -20v-1
q0 -1 -1 -2q-1 -5 -5 -5l-10 -2q-14 -2 -27 -4q-31 -4 -62 -9q-7 0 -13 -1q-11 -2 -21 -3h-4h-2q14 79 27 158zM274 1037v0v0v2q-3 15 -6 31l-12 70q-2 15 -5 30q-2 10 -3 21q-1 4 -2.5 4.5t-4.5 -0.5q-39 -13 -78 -20q-28 -6 -56 -8q-5 0 -6.5 -2t-0.5 -7q2 -7 4 -15
q2 -11 5 -22q4 -20 9 -40l6 -24q1 -6 7 -6q6 -1 11 -2h5l12 -2q14 -2 28 -5l44 -6l38 -4q6 -1 5 5zM244 1193v0q9 -54 18 -107q5 -26 9 -51h-4q-3 0 -7 1q-4 0 -9 1q-13 2 -27 3q-19 3 -37 6q-13 2 -27 4q-7 1 -15 2h-3l-10 2q-4 0 -5 5q-4 14 -7 29l-10 40l-4 18
q-1 6 -2 13q-1 3 -0.5 4t4.5 1q64 5 125 25q4 1 7 2zM357 653v0v3q0 2 -1 4q-18 69 -33 139q-1 4 -2.5 5.5t-5.5 1.5q-5 1 -10 1q-14 2 -27 4q-29 4 -58 9q-10 1 -21 3q-6 1 -4 -5q1 -3 2 -5q3 -9 6 -17q21 -61 45 -120q2 -5 8 -6q10 -1 20 -3l8 -2l14 -2q25 -4 49 -9h6
q2 -1 4 -1zM354 657v0q-3 0 -6 1q-6 0 -12 1q-13 3 -27 5q-26 5 -51 9q-6 1 -7 6q-26 64 -49 129q-1 4 -3 8q0 2 -1 4q2 0 3 -1h7q17 -3 35 -6q6 -1 13 -2q5 -1 11 -2q15 -2 29 -4l18 -2q3 0 4 -1t2 -4q1 -7 3 -15q4 -17 8 -35q8 -30 15 -60q3 -13 7 -26v-3q1 -1 1 -2z
M897 654v0h1q2 -1 3 -1v1q5 0 9 1q16 2 32 5l54 10q8 1 10 8l16 40q9 24 19 48q7 19 13 38q3 6 5 13q3 8 -6 6q-3 0 -5 -1l-28 -4l-38 -6q-10 -1 -20 -3q-4 0 -9 -1l-16 -2q-4 -1 -5 -5v-1l-1 -1q-1 -7 -3 -13q-3 -14 -6 -27q-8 -33 -16 -65q-4 -18 -8 -35q-1 -2 -1 -3v-2z
M900 657v0q1 3 2 5q1 6 3 12q14 62 29 124v0l1.5 3t1.5 1.5t3 0.5q10 1 19 2q18 3 36 5l38 6q9 2 17 3q2 1 4 1h2v-1q0 -1 -1 -2q-23 -70 -52 -138q-1 -5 -8 -6q-24 -4 -49 -9q-9 -2 -18 -3q-2 -1 -4 -1q-8 -1 -15 -2q-3 -1 -6 -1h-3zM358 800v0q-4 1 -5 0t0 -5v0q0 -1 1 -2
q1 -7 3 -14q15 -62 30 -123q1 -5 3.5 -7t7.5 -2q11 -1 21 -2q28 -4 55 -7q4 0 9 -1h2q2 0 3 -1q7 -1 6 6v1v1q-1 4 -1 9l-4 26l-2 24q-2 12 -3 23t-3 23q-1 11 -2 21q-1 3 -1 5q0 4 -1 8q0 4 -2 5.5t-6 1.5h-3h-6l-40 4q-10 1 -19 2q-6 1 -13 1q-10 1 -21 3h-9zM490 639v0
q-9 1 -19 2q-23 3 -45 6q-14 1 -28 3h-1q-3 0 -4.5 1.5t-1.5 4.5q-18 69 -35 139v1v1h1h3q10 -1 19 -2q22 -2 43 -4l18 -2q5 0 10 -1h8q6 -1 12 -1q2 0 3 -1.5t1 -2.5q1 -3 1 -7q0 -5 1 -9q1 -14 3 -27l2 -18q3 -21 5 -43l2 -10v-5l2 -20q1 -1 0 -3v-2zM766 636v0q4 1 8 1
q10 1 20 3l20 2q5 0 9 1q5 0 10 1q12 1 24 3q7 0 9 7q0 1 1 2v4q3 9 5 18q12 46 23 91q3 14 6 27q1 6 -4 5q-12 -1 -25 -3q-6 0 -13 -1q-12 -2 -24 -3l-28 -2q-6 -1 -12 -1q-5 0 -10 -1q-4 0 -6 -1.5t-2 -6.5v-3q0 -1 -1 -1q-1 -9 -1 -17q-3 -18 -5 -37q0 -5 -1 -9
q-2 -17 -4 -35q-1 -10 -3 -21l-2 -16q-1 -4 0.5 -5.5t5.5 -1.5zM898 798v0l-2 -8q-1 -8 -3 -16q-12 -46 -23 -91q-3 -11 -5 -22q-1 -2 -1 -3q-2 -5 -3.5 -6.5t-6.5 -1.5q-15 -2 -31 -4l-22 -2q-12 -2 -24 -3l-12 -2h-1h-1v1v2q2 16 4 31q3 25 6 51q3 18 5 36q1 11 2 21
q0 4 1 5t5 1q5 1 9 1h8q24 3 49 5q14 1 29 3q5 0 11 1q2 0 4 1h2zM989 636v0q-2 2 -4 2h-3h-1l-8 -2q-26 -4 -51 -9l-28 -4q-5 0 -7 -4l-2 -6q-19 -71 -44 -140q-1 -5 4 -6q1 0 2 1h1q5 1 9 2q8 1 17 3h1l30 6q6 2 10 8q38 69 70 140l2 6q1 2 2 3zM844 471v0q2 3 3 6l4 14
q20 60 37 120q0 2 1 4q1 4 6 5q28 5 55 9q15 3 29 5h3h2q0 -1 -1 -1q0 -2 -1 -3q-32 -72 -70 -142q-3 -5 -8 -5l-38 -8q-10 -2 -19 -4h-2h-1zM407 468v0q7 -1 5 5q0 1 -1 3v2q-4 13 -9 26q-10 33 -20 65q-7 22 -13 43q0 3 -1 5q-1 5 -6 6q-4 0 -9 1q-2 0 -3 1q-6 1 -13 2
l-28 4q-13 2 -26 5q-5 1 -11 2h-2t-2 -1t-1 -2.5t1 -2.5q2 -5 4 -9l6 -16q23 -49 49 -97q4 -7 7 -13l4 -8q5 -9 15 -10h2q7 -2 14 -3q11 -3 21 -5l12 -2q3 -1 5 -1zM270 635v0q3 -1 6 -1l10 -2l50 -8q2 -1 5 -1q10 -2 20 -3q2 0 3 -1.5t1 -3.5v0q3 -11 7 -22q7 -26 15 -51
l14 -46q4 -10 7 -20q0 -2 1 -3q0 -1 1 -2h-2h-2l-26 6q-12 2 -23 5q-3 0 -5 1q-7 0 -11 6q-1 4 -3 7q-1 1 -1 3q-5 9 -10 19q-12 21 -23 43q-11 24 -23 49q-4 10 -9 20q-1 1 -1 3q-1 1 -1 2zM740 451v0h2q3 0 5 1q5 0 9 1q22 3 43 6q8 1 11 9q19 55 35 112q1 3 2 7
q4 11 7 23q2 8 -6 7q-4 0 -7 -1l-16 -2q-19 -2 -37 -4h-2l-10 -2q-8 0 -15 -1q-3 -1 -4.5 -2t-1.5 -5q-1 -6 -1 -11q-3 -17 -5 -33q-1 -9 -3 -18l-2 -14q-2 -16 -4 -31l-4 -22l-2 -12q-1 -9 6 -8zM851 614v0v-2q0 -2 -1 -3q-19 -70 -43 -139q-2 -7 -10 -8q-17 -2 -35 -5
q-10 -1 -20 -3h-3h-2v1q0 2 1 3q1 9 3 18q2 18 5 36q2 11 3 22q1 7 2 15l4 24l2 20q1 2 1 4v3t1 3t3 1q8 1 17 2l38 4q10 1 21 2l10 2h2h1zM513 451v0q4 -1 5.5 0.5t1.5 5.5q-1 4 -1 7q-1 2 -1 5v3l-6 40q-2 14 -4 29q-2 10 -3 21l-6 40q-1 3 -2 4t-3 1q-4 0 -7 1h-6
q-15 2 -30 3q-13 2 -27 4l-16 2v0h-4q-5 0 -5 -5q1 -2 1 -4q1 0 1 -1l6 -22q8 -27 17 -54l14 -42q4 -11 8 -23q1 -6 7 -7q12 -1 25 -3l12 -2l16 -2q4 -1 7 -1zM402 614v0q20 -2 40 -5q27 -3 53 -6q4 -24 7 -47q7 -51 15 -102q-2 -1 -4 -0.5t-4 0.5q-2 1 -3 1q-14 2 -27 4
q-12 1 -23 3q-6 0 -8 6q-20 56 -36 112q0 1 -1 2q-3 12 -7 24v3q-1 1 -1 3q0 1 -1 2zM474 293v0q2 1 3 2q2 3 4 5q3 4 1 9q-2 4 -4 7q-26 51 -46 105q-2 3 -3 7q-4 7 -12 8q-3 1 -6 1q-5 1 -9 2l-32 6v0q-1 1 -2 1t-2 -1v-2v-2v0q0 -1 1 -2v0q2 -4 4 -7q43 -70 96 -131
q2 -3 5 -5q1 -2 2 -3zM369 442v0q3 0 6 -1q7 -2 13 -3l26 -4q9 -1 12 -9q3 -5 5 -11q0 -1 1 -3q19 -49 44 -96v-1q1 -1 1 -2q3 -5 2.5 -7.5t-5.5 -6.5q0 1 -1 2q-2 2 -4 3q-23 27 -44 56q-29 39 -55 81v1t-1 1zM780 294v0q12 11 37 44t47 65.5t25 41.5q-1 1 -2.5 1h-2.5
t-1 -1q-6 -1 -13 -2q-17 -4 -35 -7q-8 -2 -11 -10q-18 -48 -40 -94q-2 -4 -5 -8l-6 -12q-5 -12 7 -18zM780 298v0q-4 3 -5 5.5t1 5.5q1 3 2 5q28 54 49 110q2 8 10 9q16 3 31 6q6 1 13 3h2h2q-46 -77 -105 -144zM424 1338v0q-4 -3 -6 -7q0 -1 -1 -2q-36 -57 -93 -94v0
l-1.5 -1.5t-0.5 -2.5q0 -1 1.5 -1.5t2.5 -0.5h2q7 -1 14 -1q7 -1 15 -2q12 -1 23 -2q17 -1 35 -2q7 -1 14 -1h1h2q3 0 3 3t-1 5v11q-1 6 -2 13l-2 20l-2 38q-1 9 -1 18q0 4 -3 9zM423 1331v0q1 -17 3 -34q3 -36 5 -73q-41 2 -83 6l-22 2q1 1 2 1l2 2q26 18 49 40
q24 24 41 52q1 2 2 3v1h1zM831 1337v0l-1 -1q-1 0 -1 -1v-2q-1 -4 -1 -9q-2 -16 -3 -33q-1 -7 -1 -15q-1 -24 -5 -48q-1 -6 6 -6h2h1h9l30 2q9 1 18 1q11 1 23 2q5 1 10 1h3q4 0 7 1q2 0 3.5 0.5t1.5 3.5q-63 40 -102 104zM928 1232v0q-20 -1 -39 -3q-33 -3 -66 -4
q3 38 6 75l2 28l1 1v0q12 -19 27 -37q15 -17 33 -32l24 -20zM602 908v0h2v-1q1 -2 2 -3q14 -36 28 -73q2 -3 3 -7q5 -13 10 -27q2 -5 8 -6h14h26q6 0 6 5v2v1v205v1v2q0 2 -1.5 3.5t-3.5 1.5h-2h-1h-10h-27q-6 0 -7 -6v-2v-1v-6v-13q1 -29 1 -58v-27v-3v-2l-2 4v0
q-5 12 -9 24q-16 42 -33 83q-1 5 -3 6t-7 1h-31h-2h-5q-5 0 -5 -5v-2v-1v-18v-25v-133v-12v-16q0 -5 1.5 -7t7.5 -2h18h15h1h3q5 1 5 5v3v1v11v30v18q0 1 -1 3v32q0 7 -1 14zM654 882v0v2v3v18q-1 16 -1 32v36v16v5v11q0 3 1 3.5t3 0.5h16h12h8h1q4 0 4 -3v-3v-13v-31
q0 -19 -1 -38v-63v-36q1 -11 1 -21q0 -2 -1 -4v-2h-2h-3h-34h-4.5t-2 1.5t-1.5 3.5l-22 56q-11 29 -22 57q-1 0 -1 1l-2 4q0 1 -1 2l-1 1q-1 -1 -1 -2v-2v-1v-16v-38v-37q1 -13 1 -27v-2v-1h-2h-3h-35q-3 0 -4 0.5t-1 4.5v8v6v159v26v4q0 4 1 5t5 1h4h17h12q4 0 5.5 -1
t2.5 -5l20 -50q12 -30 24 -61q1 -4 3 -8q1 -1 2 -1v-1h2zM607 1240v0v1q-1 2 -1 3v39v21v1q1 1 0 3q0 4 -4 5h-3h-1h-11h-24q-6 0 -8 -1.5t-2 -8.5v-35v-40v-91v-29v-4v-6q0 -6 6 -6h41q6 0 6 6v3v1v20v50q0 3 1 4t4 0q16 1 32 0q3 1 4 0t1 -5v-2v-1v-13q-1 -27 -1 -55
q0 -2 1 -4q0 -3 3 -4h3h1h34h2h5q5 0 5 5v3v1v33v75v36v61q0 4 -1.5 5.5t-5.5 1.5h-32h-7h-3q-2 -1 -3 -2t-2 -4v-3v-1v-19q0 -20 1 -39q0 -4 -1 -5t-5 -1h-31h-3q0 1 -1 1zM603 1309v0v-2v-4v-59v-1v-1q0 -6 6 -6h16h11h6h2q4 0 5.5 1.5t1.5 5.5v29v12v6v16q0 2 0.5 3
t2.5 1h38h3q1 0 1 -1h1v0v-2q1 -1 1 -2v-207q0 -1 -1 -2v0h-46v2v3v44v26q0 6 -2 7.5t-7 1.5q-11 -1 -21 0h-9h-1h-2q-6 -1 -6 -6v-3v-1v-51v-18v-3v-2q-2 0 -8 -0.5t-14.5 -0.5t-15 0.5t-8.5 0.5q0 1 -1 1v4v137v57v4v6t1 4t4 1h8q4 -1 8 -1q6 0 12 1h8h4q1 -1 2 -1z
M692 645v0v1v2q0 16 -6 31q-11 29 -43 37q-19 4 -39 -2q-26 -6 -37 -31q-15 -36 0 -72q6 -17 23 -25l22 -10l10 -4t9 -3q7 -3 12 -10q5 -10 -4 -16q-9 -5 -17.5 -2t-11.5 13v2q-1 4 -3 5.5t-6 1.5h-30h-3h-5q-6 -1 -6 -6q0 -3 1 -5v-2q2 -21 13 -38q12 -18 32 -25
q18 -5 37 -2q38 5 51 40q9 27 4 55q-6 31 -34 43q-7 4 -15 7h-2l-8 4q-5 1 -10 3q-7 3 -12 8q-3 5 -2 10t6 7q15 6 22 -9q1 -2 2 -3q1 -4 1.5 -4.5t4.5 -0.5h39h3h2zM689 649v0h-43q-1 0 -1 1q0 2 -1 3q-9 20 -28 12q-6 -2 -7.5 -9t3.5 -13q6 -7 14 -10q5 -2 10 -3
q7 -3 13 -5q8 -3 16 -8q21 -11 26 -34q6 -27 -2 -54q-11 -35 -47 -41q-21 -3 -40 3q-16 6 -26 19q-14 21 -15 46v2v0v1h2h3h35h3t1.5 -1l1.5 -3q0 -2 1 -4q5 -11 15.5 -13.5t19.5 4.5q8 8 3 18q-3 6 -8 9q-6 3 -12 5l-14 6q-10 4 -20 9q-17 7 -23 25q-12 32 0 64
q10 27 38 34q22 5 43 -2q20 -7 30 -26q8 -17 9 -35z" />
    <glyph glyph-name="greater" unicode="&#x3e;" horiz-adv-x="1229" 
d="M799 264v0l1 1l1 1q5 6 10 11q10 12 21 25q58 73 104 154q65 116 113 239q47 118 82 240q30 101 53 205q2 8 3 16q3 15 6 29q2 6 0 12h-5q-6 1 -11 1q-8 1 -15 2q-20 1 -39 3q-35 5 -70 14q-61 16 -113 52q-56 37 -85 97q-14 27 -18 57v5v2h-419v-2q-1 -1 -1 -3t-1 -5
q0 -5 -1 -11q-10 -42 -36 -77q-37 -51 -94 -81q-51 -27 -107 -39q-25 -6 -51 -9q-6 -1 -12 -1q-10 -2 -21 -3q-10 0 -20 -1q-6 0 -12 -1h-1h-1v-2v-1q0 -9 2 -17q1 -2 2 -5q13 -65 29 -129q41 -161 100 -316q41 -110 95 -215q45 -87 102 -167q29 -41 62 -78q2 -2 2.5 -3
t-0.5 -3q-10 -24 -14 -50q-1 -7 -1 -13q0 -7 7 -7q4 -1 8 -1q3 -1 6 -1q5 -1 7 4v3v1q1 3 1 5q1 5 2 9q8 36 23 70q8 18 17 36q3 7 7 14v0q1 2 1 4t-1 3q-2 0 -4 -1t-3 -3l-4 -2q-23 45 -41 93q29 -4 57 -8l1 -1q0 -2 1 -3q0 -4 1 -8q1 -5 2 -9q0 -5 1 -10q3 -16 6 -33
q1 -4 -1 -8q-15 -24 -27 -50q-21 -50 -32 -102q-1 -5 0 -7t6 -3q14 -4 28 -4h31q9 0 9 10v1q0 3 1 6q7 45 26 86q21 44 50 83q2 2 3 5l2 2h7v-1v0l-8 -12q-39 -52 -61 -113q-10 -28 -13 -58q-1 -6 1 -8t8 -1q28 2 53 11q8 3 10 11q12 46 38 86q21 32 47 61q2 2 5 2q2 0 3 2
v4q1 3 1 6q4 23 9 47q0 3 1 5v3q30 4 58 8q-1 -5 -6.5 -19t-13 -30t-13.5 -28.5t-9 -14.5h-1l-2 2l-6 4q-6 4 -12 9q-3 1 -4.5 1t-3.5 -2l-12 -14q-3 -4 -3 -6t4 -5q15 -12 28 -26q39 -40 68 -89q1 -3 3 -6t5 -7v0q0 -1 1 -1.5t2 -0.5v1q1 2 1 3q-1 35 -16 68zM626 372v0
l-2 -2q-1 -2 -1 -3q-29 -39 -50 -83q-20 -41 -27 -86q-1 -3 -1 -6v-4q0 -6 -6 -6h-3q-23 -1 -46 2q-5 1 -9 2t-4.5 2t0.5 4q7 32 18 63q15 47 41 90q3 4 2 8q-3 14 -6 29q0 2 -1 5q-2 14 -5 28q0 5 -5 6l-20 2q-12 2 -24 3l-10 2h-1h-2q-4 0 -3 -4q0 -1 1 -2v0
q18 -44 39 -87v-1q1 -1 2 -3q3 -4 7 -1q0 1 1 1q0 1 1 2q1 -1 0.5 -2t-0.5 -2l-1 -1q-17 -34 -31 -70q-11 -29 -16 -60v-2v0q-1 -3 -2 -3.5t-4 -0.5l-10 2q-4 0 -5 1t-1 5q1 7 2 15q4 23 13 45q2 4 -1 8q-95 108 -161 237q-50 96 -89 197q-60 152 -101 309q-21 80 -38 160
q-2 9 -4 17v4v2h1h1q6 1 12 1q10 1 21 2q92 5 176 44q65 31 108 89q25 35 35 77q1 5 2 11q1 2 1 4t1 3v2h412q1 -3 1 -6q1 -6 3 -13q11 -50 44 -90q40 -48 96 -75q46 -23 98 -34q26 -6 52 -9q16 -2 32 -3q6 -1 12 -1q6 -1 13 -1q3 -1 6 -1v-3v-6q-3 -17 -7 -33q0 -2 -1 -4
q-22 -102 -51 -202q-30 -105 -68 -208q-39 -103 -88 -202q-50 -100 -115 -191q-26 -37 -56 -70q-1 -1 -2 -3l-4 -4q-3 -3 -1 -8q8 -18 12 -39l2 -14q1 -4 1 -7h-1l-1 1q-1 2 -2 3q-25 44 -59 82q-18 21 -40 38q-3 2 -3 3.5t2 3.5l10 10q2 3 4 5q1 -1 3 -2t5 -3l2 -2
q6 -4 11 -8q4 -2 6 -1.5t4 4.5l26 56q5 11 9 21l4 10v0q0 1 1 2q0 5 -5 5q-4 -1 -9 -1q-6 -1 -13 -2q-2 -1 -3 -1q-13 -2 -26 -3q-6 0 -7.5 -1.5t-2.5 -7.5q-2 -11 -4 -21q-2 -14 -5 -28q0 -4 -1 -6v-2q-1 -1 -3 -1l-3 -3q-28 -30 -50 -64q-25 -40 -37 -85q-2 -7 -8 -9
q-26 -10 -53 -11h-3h-2v5q1 5 1 10q6 35 20 68q21 51 54 95q1 1 2 3q3 3 5 6t6 3q19 -3 38 -8q1 -1 3 -1q1 0 2 -1v2q1 2 1 4q1 8 3 15l8 50q5 30 9 59q4 27 8 55l6 40q0 2 1 5v6q3 20 6 41q1 11 2 21q1 8 2 15q1 9 2 17l2 18q2 12 3 25q1 6 2 13q0 6 1 12q1 13 3 25
q2 18 4 35v5l2 16l6 54l2 22l2 18q0 7 1 14l2 16q0 8 1 15t1 14q1 10 2 21q2 12 3 25q1 9 2 19q0 8 1 15q1 9 1 18q1 8 2 17q2 19 3 38l1 1v5q2 24 4 47q1 12 2 25q1 12 2 25l2 22q1 14 3 28q1 14 2 27v1q1 11 1 23q1 17 3 33v4q1 2 1 3q0 3 -1 4.5t-4 1.5h-3h-1h-337
q-6 0 -7 -1t0 -7l2 -26q1 -16 2 -33t3 -34q1 -11 2 -21q0 -9 1 -18l2 -22l2 -30q1 -10 2 -21l2 -16q0 -10 1 -20q1 -11 2 -21q1 -8 2 -15q0 -7 1 -13q0 -8 1 -16q1 -13 3 -27q1 -10 1 -20l2 -14q1 -10 2 -21l2 -24l2 -18l2 -24l4 -42l4 -36q1 -10 3 -21q0 -7 1 -15
q1 -11 3 -23l6 -52l4 -36q1 -9 2 -17q1 -13 3 -27q1 -10 3 -21l2 -16l2 -20q2 -12 3 -23q3 -23 6 -45l10 -62q5 -34 11 -67q2 -14 5 -29l2 -12v-1v-2q1 -3 2.5 -4t4.5 0l8 2q7 2 15 3q15 4 32 3zM454 1393v0h346v-6q-1 -8 -1 -16q-1 -3 -1 -6q0 -8 -1 -15q-1 -15 -2 -29
q-2 -18 -3 -37q-1 -8 -1 -15l-2 -16q-1 -16 -2 -31l-2 -20q-1 -8 -1 -16l-2 -22l-4 -42q-1 -15 -3 -29q0 -8 -1 -15q-1 -10 -2 -19l-2 -24l-2 -20q-1 -8 -1 -16q-1 -10 -2 -21l-2 -20l-2 -12q0 -6 -1 -12q0 -6 -1 -13q-2 -20 -4 -41l-4 -32l-2 -22q-1 -9 -2 -17q0 -6 -1 -12
l-2 -20q-2 -11 -3 -23q-1 -6 -1 -13l-2 -14q-1 -12 -3 -24q-1 -14 -3 -27q-1 -5 -1 -9q-1 -7 -2 -15q-2 -17 -4 -35q-5 -34 -10 -69q-5 -40 -12 -79q-3 -24 -7 -48q-2 -11 -4 -23q-1 -7 -3 -15q-1 -5 -2 -11v-4q0 -1 -1 -2q-59 18 -118 0v2q-1 2 -1 3q-2 13 -5 25l-10 64
q-4 23 -7 46q-2 11 -3 22q-2 9 -3 17l-4 32q-2 9 -3 19q-1 7 -2 15q-1 11 -3 22q-1 12 -3 24q-1 10 -2 21q-1 8 -2 15q-1 10 -2 19q-2 12 -3 23q-1 10 -2 19l-2 12q-1 11 -2 21q-1 8 -2 17q-1 13 -3 26v5q-1 5 -1 10q-2 14 -3 28q-1 10 -2 19t-2 17q-1 7 -1 13q-1 7 -2 15
q-1 7 -1 15q-1 7 -2 13q-1 11 -2 21t-2 21q-1 16 -3 31v7q-2 23 -5 47q-2 22 -4 45q0 7 -1 15q-1 9 -1 17q-2 22 -4 43l-2 22q-1 9 -1 18l-2 22q-2 14 -3 28t-2 27q0 7 -1 14q0 6 -1 13l-2 26v7v4zM816 175v0q-1 1 -1 2q-1 3 -2 5q-1 3 -2 5t-2 3q-21 39 -48 72
q-26 30 -54 57l-2 2t-2 1q-3 2 -6 0q-1 -1 -3 -2q-22 -23 -35 -53q-1 -2 -0.5 -3.5t2.5 -3.5l2 -2q1 0 1 -1q29 -21 52 -49q41 -51 66 -113v0l2 -4q3 -3 5 0l2 4q0 1 1 2q20 36 24 78zM700 320v0q1 0 1 -1q1 0 2 -1l4 -4q26 -25 50 -53q27 -32 47 -68q0 -1 1 -2q2 -4 5 -9
q2 -4 1 -8q-2 -39 -21 -73q-1 -2 -2 -5q-1 -1 -2 -3q0 2 -1 3q-1 2 -1 3q-25 60 -65 111q-23 29 -53 50l-1 1h-1q-2 2 -2.5 3t1.5 3q7 17 17 31l12 14q2 3 5 5l2 2q0 1 1 1zM462 100v0q0 -2 1 -4l2 -4v0q20 -34 53 -57q6 -5 15 -5h9h3q26 0 51 2q29 3 57 10q26 6 51 13
q2 1 4 1q4 1 5 3t-1 7l-2 4q-4 8 -8 15q-8 16 -18 31q-3 6 -6 6.5t-9 -1.5q-1 0 -2 -1l-6 -2q-47 -19 -99 -21q-44 -3 -88 3l-1 1h-5t-6 -1zM466 98v0h4q4 -1 8 -1q32 -5 64 -4q23 1 47 3q37 4 72 18q5 3 11 5q3 1 4.5 0.5t3.5 -3.5l1 -1q7 -11 13 -22q6 -10 11 -20l4 -8
q0 -1 1 -3v-1l-1 -1q-2 -1 -3 -1q-39 -12 -78 -19q-37 -7 -74 -6q-10 0 -19 -1q-9 0 -16 5q-31 22 -51 55q0 1 -1 3q-1 1 -1 2zM633 196v0q-1 -7 6 -13q46 -46 71 -106q6 -14 11 -28q3 -7 5 -14t8 -2q26 18 45 43q4 6 1 13q-22 54 -56 100q-27 39 -65 66q-4 3 -6 2.5
t-3 -4.5q-6 -12 -11 -24q-5 -15 -6 -33zM730 35v0q-1 3 -3 7q-2 8 -5 16q-15 41 -40 78q-18 27 -41 50q-5 4 -5 11q1 16 6 30q4 9 7 18l4 6q0 1 1 2v1q4 -2 7 -5q7 -5 14 -11q37 -32 63 -74q22 -36 39 -76q2 -5 -1 -11q-19 -24 -44 -42h-1h-1zM539 102v0q22 0 45 2
q26 3 51 10q18 5 34 13q4 1 4.5 3t-1.5 5q-1 1 -2 3q-6 11 -13 21q-10 14 -25 23q-5 3 -10 1l-18 -4q-27 -6 -54 -7q-43 -1 -84 8q-2 1 -5 1q-9 2 -17 3q-3 1 -4 0t-1 -4v-4q1 -2 1 -4q2 -30 14 -57q2 -7 9 -7q6 -1 13 -2l24 -2q14 -1 27 -2h12zM671 131v0q-4 -2 -7 -3
q-6 -3 -13 -5q-27 -10 -55 -14q-39 -5 -78 -3q-27 0 -55 5q-5 1 -6 5q-7 15 -10 32q-2 9 -3 19q-1 3 -1 7q0 2 -1 5v3q2 -1 4 -1q3 -1 7 -2l14 -2l34 -6q30 -4 59 -2q31 2 62 11q5 2 9 -1q2 -2 5 -4l12 -10q13 -15 23 -34zM627 0v0q15 -1 31 2q32 6 61 21q4 2 4.5 4t-1.5 6
q-2 5 -3 9q-1 3 -3 5q-1 3 -2.5 4t-4.5 -1q-2 -1 -5 -2l-6 -2q-56 -18 -116 -21q-10 0 -21 -1h-12v0q-2 -1 -3 -1t-1.5 -0.5t-0.5 -1.5v-1t1 -2h0.5h1.5v-1q36 -17 77 -17h2h1zM713 48v0q1 -2 2 -5q2 -5 4 -11q1 -2 1 -3.5t-3 -2.5q-22 -12 -45 -18q-5 -1 -11 -2q-4 0 -7 -1
q-24 -4 -47 -1q-22 1 -42 9q-3 2 -7 3q-3 1 -6 3q-1 0 -2 1h-1q3 1 6 1q6 0 12 1h12q16 1 31 3q51 4 99 22q1 0 2 1h2zM807 1013v0v0v0q5 0 9 1q10 1 19 2q13 1 25 2q19 2 38 3q18 2 35 4q5 1 10 1q3 1 4.5 2t2.5 4q3 18 6 35q6 37 13 74q4 27 9 54q1 6 -1 8t-8 1
q-11 -2 -23 -3q-8 -1 -17 -1q-4 -1 -8 -1q-7 -1 -13 -1l-28 -2l-30 -2q-9 -1 -19 -1q-2 -1 -4 -1h-5t-4.5 -1t-1.5 -5q-1 -9 -1 -18l-2 -20l-2 -28q-2 -23 -5 -47q-1 -17 -3 -34q0 -4 -1 -8q-1 -7 -1 -14q0 -2 1 -3t3 -1h2v0zM804 1016v0l8 90l8 82q5 1 9 1q10 1 21 2
q12 1 23 1l30 2q20 2 39 4q11 1 23 2q5 0 10 1v-2v-4q-9 -52 -18 -105q-3 -14 -5 -28q-3 -14 -5 -28q-1 -4 -5 -4q-7 -1 -13 -2q-4 0 -8 -1h-5q-12 -2 -24 -3t-24 -3q-10 0 -20 -1l-20 -2q-7 -1 -13 -1q-4 -1 -8 -1h-2h-1zM453 1019v0v1v2q-1 5 -1 11q-2 12 -3 24l-2 24
q0 5 -1 10q0 8 -1 16q-2 17 -3 35q-1 8 -2 15q0 10 -1 20q-1 4 -1 8q-1 2 -1 3q0 3 -3 4h-2q-4 0 -8 1q-10 0 -20 1l-28 2q-16 1 -33 2q-7 1 -13 1q-2 1 -5 1q-5 0 -10 1q-7 0 -14 1q-10 1 -19 2q-8 1 -6 -6q1 -6 2 -11q0 -4 1 -8q2 -10 3 -20q3 -20 7 -40l10 -56
q2 -13 5 -26q0 -5 1 -7t3 -2.5t7 -1.5v0v0q8 -1 15 -2q18 -1 37 -3q2 -1 5 -1q18 -2 35 -4q20 -1 40 -3q4 0 5 1t1 5zM450 1016v0h-3t-4 1q-8 0 -17 1q-14 1 -29 3q-12 1 -25 2l-16 2q-15 1 -29 3q-6 0 -11 1h-1h-1q-3 0 -4 0.5t-1.5 2t-1.5 3.5l-2 14q-7 38 -14 75
q-4 27 -8 53q-2 9 -4 19v3v2l24 -2q27 -3 53 -5l54 -4q12 -1 24 -1q0 -3 1 -5q0 -5 1 -10q1 -10 2 -21q0 -8 1 -16q2 -23 4 -47v-1v-3q2 -17 3 -34q1 -9 2 -19q1 -6 2 -13v-3v-1zM310 836v0q5 0 4 4q-3 11 -5 23q-2 11 -5 22q-9 44 -18 87l-4 22q-1 7 -8 8q-5 0 -10 1h-3
l-10 2q-12 1 -24 3q-12 1 -24 3l-12 2q-10 1 -20 3q-9 1 -17 2q-3 1 -6 1q-4 1 -8 1q-7 1 -5 -5q0 -1 1 -3v0q1 -5 2 -9l6 -20q7 -25 15 -51q11 -35 21 -70q2 -8 10 -8q3 0 6 -1h2q7 -1 15 -3q19 -3 38 -5l26 -4l10 -2q9 -1 17 -2q3 -1 6 -1zM310 839v0q-4 1 -8 1
q-10 2 -18 3q-5 1 -10 1q-13 2 -27 4q-20 3 -40 7q-6 0 -11 1q-2 0 -3 1q-2 0 -5 1q-3 0 -4 4q-3 8 -5 16l-4 12q-19 61 -36 123q0 1 -1 2v2h4q5 -1 9 -1q25 -4 51 -8q7 -1 13 -2q12 -2 23 -3q10 -1 19 -2q4 -1 8 -1q1 -1 3 -1h4q4 -1 5.5 -2t1.5 -5q2 -11 4 -21l6 -30
q4 -19 8 -37q3 -13 5 -26l6 -26q1 -4 1 -8q1 -2 1 -3v-2zM1120 1021v0q-1 0 -3 -1h-5q-13 -2 -27 -4l-16 -2q-4 -1 -9 -2q-14 -2 -27 -3q-15 -2 -29 -4q-3 0 -5 -1q-4 0 -9 -1q-5 0 -11 -1t-7 -7q-2 -12 -5 -24v-3q-9 -43 -17 -85q-3 -13 -6 -25q-1 -8 -3 -15q-2 -9 6 -7
l10 2v0l16 2l26 4l42 6l14 2l10 2t8 5l2 6q24 75 44 151q1 1 1 3v2zM1116 1017v0l-2 -8q-2 -7 -4 -15q-18 -65 -38 -129q-2 -8 -10 -8q-1 0 -2 -1h-1q-8 -1 -15 -2q-27 -4 -55 -8q-16 -3 -32 -5q-5 -1 -11 -1q0 -1 -1 -1h-1q0 4 1 7q1 6 3 12l4 20q8 43 17 86l4 20l2 10
q0 2 1 3t5 2q7 1 15 2q7 1 14 1l38 6q12 1 23 3l14 2q12 2 25 3q2 1 4 1h1h1zM469 819v0q5 -1 4 7v0q-1 3 -1 6l-2 14q-1 11 -2 21l-2 24q-1 8 -2 15v2q-2 20 -4 39q-1 9 -2 17q0 7 -1 14q0 2 -1 3.5t-4 1.5q-6 1 -12 1h-1q-5 1 -10 1l-18 2q-13 1 -25 2q-4 1 -8 1l-20 2
l-20 2q-1 1 -2 1q-9 1 -18 1q-7 1 -6 -5q0 -2 1 -3q2 -12 5 -25q7 -34 13 -67q5 -24 11 -48l2 -12q1 -3 2 -4t4 -1q5 0 10 -1l16 -2q13 -1 25 -2q6 -1 12 -1q2 -1 5 -1q10 -1 19 -2q10 -1 21 -2q5 -1 11 -1zM315 993v0h1h1q63 -6 126 -13q5 0 11 -1q0 -8 1 -16l4 -36
q1 -12 2 -25q2 -14 3 -27q2 -18 4 -37q1 -8 1 -16q-60 6 -121 12q-17 79 -33 159zM943 995v0q-5 2 -9 1q-6 0 -11 -1q-3 0 -7 -1q-16 -1 -32 -3q-7 -1 -14 -1q-6 -1 -11 -1q-11 -1 -21 -2l-14 -2q-4 0 -9 -1q-6 0 -13 -1q-2 0 -3 -1t-2 -4v-2v-1q-1 -6 -1 -12q-1 -13 -3 -26
q-1 -10 -2 -21l-2 -16l-2 -24q-2 -15 -3 -29q0 -4 -1 -8q-1 -7 -1 -14q-1 -7 6 -6q4 0 8 1h4q4 1 8 1q12 1 23 3q9 0 18 1l16 2q7 0 14 1q11 1 21 2q6 1 8 3t3 7l10 50l16 74q2 11 4 21zM785 823v0l14 136l2 20l1 1h4l58 6q8 1 16 1l20 2q9 1 19 3q4 0 8 1v0q6 1 12 0
q-1 -4 -1 -7q-2 -8 -3 -15q-12 -55 -23 -110l-4 -20v0q0 -1 -1 -3q-1 -4 -4 -4l-34 -4h-4l-20 -2l-22 -2l-36 -4h-1q-1 0 -1 1zM980 1036v0q-1 -5 3 -5q6 1 11 1h1q7 2 15 3q11 1 22 3q7 1 14 1q9 2 17 3l30 4q3 1 6 1l24 4q6 1 7 6q1 2 1 3v1q1 5 2 9l6 26q1 2 1 5l14 58
q1 4 0 5.5t-6 2.5q-3 0 -6 1h-6q-5 1 -9 1q-16 2 -32 5q-41 7 -81 21q-4 1 -5.5 0t-2.5 -5q-1 -8 -3 -17q-1 -8 -2 -15q-8 -46 -16 -91l-2 -12q-1 -7 -2 -13q-1 -3 -1 -6zM1010 1193v0q35 -12 70 -20q35 -6 71 -9q0 -4 -1 -8q-1 -7 -3 -13q-7 -31 -14 -61q-2 -10 -5 -20v-1
q0 -1 -1 -2q-1 -5 -5 -5l-10 -2q-14 -2 -27 -4q-31 -4 -62 -9q-7 0 -13 -1q-11 -2 -21 -3h-4h-2q14 79 27 158zM274 1037v0v0v2q-3 15 -6 31l-12 70q-2 15 -5 30q-2 10 -3 21q-1 4 -2.5 4.5t-4.5 -0.5q-39 -13 -78 -20q-28 -6 -56 -8q-5 0 -6.5 -2t-0.5 -7q2 -7 4 -15
q2 -11 5 -22q4 -20 9 -40l6 -24q1 -6 7 -6q6 -1 11 -2h5l12 -2q14 -2 28 -5l44 -6l38 -4q6 -1 5 5zM244 1193v0q9 -54 18 -107q5 -26 9 -51h-4q-3 0 -7 1q-4 0 -9 1q-13 2 -27 3q-19 3 -37 6q-13 2 -27 4q-7 1 -15 2h-3l-10 2q-4 0 -5 5q-4 14 -7 29l-10 40l-4 18
q-1 6 -2 13q-1 3 -0.5 4t4.5 1q64 5 125 25q4 1 7 2zM357 653v0v3q0 2 -1 4q-18 69 -33 139q-1 4 -2.5 5.5t-5.5 1.5q-5 1 -10 1q-14 2 -27 4q-29 4 -58 9q-10 1 -21 3q-6 1 -4 -5q1 -3 2 -5q3 -9 6 -17q21 -61 45 -120q2 -5 8 -6q10 -1 20 -3l8 -2l14 -2q25 -4 49 -9h6
q2 -1 4 -1zM354 657v0q-3 0 -6 1q-6 0 -12 1q-13 3 -27 5q-26 5 -51 9q-6 1 -7 6q-26 64 -49 129q-1 4 -3 8q0 2 -1 4q2 0 3 -1h7q17 -3 35 -6q6 -1 13 -2q5 -1 11 -2q15 -2 29 -4l18 -2q3 0 4 -1t2 -4q1 -7 3 -15q4 -17 8 -35q8 -30 15 -60q3 -13 7 -26v-3q1 -1 1 -2z
M897 654v0h1q2 -1 3 -1v1q5 0 9 1q16 2 32 5l54 10q8 1 10 8l16 40q9 24 19 48q7 19 13 38q3 6 5 13q3 8 -6 6q-3 0 -5 -1l-28 -4l-38 -6q-10 -1 -20 -3q-4 0 -9 -1l-16 -2q-4 -1 -5 -5v-1l-1 -1q-1 -7 -3 -13q-3 -14 -6 -27q-8 -33 -16 -65q-4 -18 -8 -35q-1 -2 -1 -3v-2z
M900 657v0q1 3 2 5q1 6 3 12q14 62 29 124v0l1.5 3t1.5 1.5t3 0.5q10 1 19 2q18 3 36 5l38 6q9 2 17 3q2 1 4 1h2v-1q0 -1 -1 -2q-23 -70 -52 -138q-1 -5 -8 -6q-24 -4 -49 -9q-9 -2 -18 -3q-2 -1 -4 -1q-8 -1 -15 -2q-3 -1 -6 -1h-3zM358 800v0q-4 1 -5 0t0 -5v0q0 -1 1 -2
q1 -7 3 -14q15 -62 30 -123q1 -5 3.5 -7t7.5 -2q11 -1 21 -2q28 -4 55 -7q4 0 9 -1h2q2 0 3 -1q7 -1 6 6v1v1q-1 4 -1 9l-4 26l-2 24q-2 12 -3 23t-3 23q-1 11 -2 21q-1 3 -1 5q0 4 -1 8q0 4 -2 5.5t-6 1.5h-3h-6l-40 4q-10 1 -19 2q-6 1 -13 1q-10 1 -21 3h-9zM490 639v0
q-9 1 -19 2q-23 3 -45 6q-14 1 -28 3h-1q-3 0 -4.5 1.5t-1.5 4.5q-18 69 -35 139v1v1h1h3q10 -1 19 -2q22 -2 43 -4l18 -2q5 0 10 -1h8q6 -1 12 -1q2 0 3 -1.5t1 -2.5q1 -3 1 -7q0 -5 1 -9q1 -14 3 -27l2 -18q3 -21 5 -43l2 -10v-5l2 -20q1 -1 0 -3v-2zM766 636v0q4 1 8 1
q10 1 20 3l20 2q5 0 9 1q5 0 10 1q12 1 24 3q7 0 9 7q0 1 1 2v4q3 9 5 18q12 46 23 91q3 14 6 27q1 6 -4 5q-12 -1 -25 -3q-6 0 -13 -1q-12 -2 -24 -3l-28 -2q-6 -1 -12 -1q-5 0 -10 -1q-4 0 -6 -1.5t-2 -6.5v-3q0 -1 -1 -1q-1 -9 -1 -17q-3 -18 -5 -37q0 -5 -1 -9
q-2 -17 -4 -35q-1 -10 -3 -21l-2 -16q-1 -4 0.5 -5.5t5.5 -1.5zM898 798v0l-2 -8q-1 -8 -3 -16q-12 -46 -23 -91q-3 -11 -5 -22q-1 -2 -1 -3q-2 -5 -3.5 -6.5t-6.5 -1.5q-15 -2 -31 -4l-22 -2q-12 -2 -24 -3l-12 -2h-1h-1v1v2q2 16 4 31q3 25 6 51q3 18 5 36q1 11 2 21
q0 4 1 5t5 1q5 1 9 1h8q24 3 49 5q14 1 29 3q5 0 11 1q2 0 4 1h2zM989 636v0q-2 2 -4 2h-3h-1l-8 -2q-26 -4 -51 -9l-28 -4q-5 0 -7 -4l-2 -6q-19 -71 -44 -140q-1 -5 4 -6q1 0 2 1h1q5 1 9 2q8 1 17 3h1l30 6q6 2 10 8q38 69 70 140l2 6q1 2 2 3zM844 471v0q2 3 3 6l4 14
q20 60 37 120q0 2 1 4q1 4 6 5q28 5 55 9q15 3 29 5h3h2q0 -1 -1 -1q0 -2 -1 -3q-32 -72 -70 -142q-3 -5 -8 -5l-38 -8q-10 -2 -19 -4h-2h-1zM407 468v0q7 -1 5 5q0 1 -1 3v2q-4 13 -9 26q-10 33 -20 65q-7 22 -13 43q0 3 -1 5q-1 5 -6 6q-4 0 -9 1q-2 0 -3 1q-6 1 -13 2
l-28 4q-13 2 -26 5q-5 1 -11 2h-2t-2 -1t-1 -2.5t1 -2.5q2 -5 4 -9l6 -16q23 -49 49 -97q4 -7 7 -13l4 -8q5 -9 15 -10h2q7 -2 14 -3q11 -3 21 -5l12 -2q3 -1 5 -1zM270 635v0q3 -1 6 -1l10 -2l50 -8q2 -1 5 -1q10 -2 20 -3q2 0 3 -1.5t1 -3.5v0q3 -11 7 -22q7 -26 15 -51
l14 -46q4 -10 7 -20q0 -2 1 -3q0 -1 1 -2h-2h-2l-26 6q-12 2 -23 5q-3 0 -5 1q-7 0 -11 6q-1 4 -3 7q-1 1 -1 3q-5 9 -10 19q-12 21 -23 43q-11 24 -23 49q-4 10 -9 20q-1 1 -1 3q-1 1 -1 2zM740 451v0h2q3 0 5 1q5 0 9 1q22 3 43 6q8 1 11 9q19 55 35 112q1 3 2 7
q4 11 7 23q2 8 -6 7q-4 0 -7 -1l-16 -2q-19 -2 -37 -4h-2l-10 -2q-8 0 -15 -1q-3 -1 -4.5 -2t-1.5 -5q-1 -6 -1 -11q-3 -17 -5 -33q-1 -9 -3 -18l-2 -14q-2 -16 -4 -31l-4 -22l-2 -12q-1 -9 6 -8zM851 614v0v-2q0 -2 -1 -3q-19 -70 -43 -139q-2 -7 -10 -8q-17 -2 -35 -5
q-10 -1 -20 -3h-3h-2v1q0 2 1 3q1 9 3 18q2 18 5 36q2 11 3 22q1 7 2 15l4 24l2 20q1 2 1 4v3t1 3t3 1q8 1 17 2l38 4q10 1 21 2l10 2h2h1zM513 451v0q4 -1 5.5 0.5t1.5 5.5q-1 4 -1 7q-1 2 -1 5v3l-6 40q-2 14 -4 29q-2 10 -3 21l-6 40q-1 3 -2 4t-3 1q-4 0 -7 1h-6
q-15 2 -30 3q-13 2 -27 4l-16 2v0h-4q-5 0 -5 -5q1 -2 1 -4q1 0 1 -1l6 -22q8 -27 17 -54l14 -42q4 -11 8 -23q1 -6 7 -7q12 -1 25 -3l12 -2l16 -2q4 -1 7 -1zM402 614v0q20 -2 40 -5q27 -3 53 -6q4 -24 7 -47q7 -51 15 -102q-2 -1 -4 -0.5t-4 0.5q-2 1 -3 1q-14 2 -27 4
q-12 1 -23 3q-6 0 -8 6q-20 56 -36 112q0 1 -1 2q-3 12 -7 24v3q-1 1 -1 3q0 1 -1 2zM474 293v0q2 1 3 2q2 3 4 5q3 4 1 9q-2 4 -4 7q-26 51 -46 105q-2 3 -3 7q-4 7 -12 8q-3 1 -6 1q-5 1 -9 2l-32 6v0q-1 1 -2 1t-2 -1v-2v-2v0q0 -1 1 -2v0q2 -4 4 -7q43 -70 96 -131
q2 -3 5 -5q1 -2 2 -3zM369 442v0q3 0 6 -1q7 -2 13 -3l26 -4q9 -1 12 -9q3 -5 5 -11q0 -1 1 -3q19 -49 44 -96v-1q1 -1 1 -2q3 -5 2.5 -7.5t-5.5 -6.5q0 1 -1 2q-2 2 -4 3q-23 27 -44 56q-29 39 -55 81v1t-1 1zM780 294v0q12 11 37 44t47 65.5t25 41.5q-1 1 -2.5 1h-2.5
t-1 -1q-6 -1 -13 -2q-17 -4 -35 -7q-8 -2 -11 -10q-18 -48 -40 -94q-2 -4 -5 -8l-6 -12q-5 -12 7 -18zM780 298v0q-4 3 -5 5.5t1 5.5q1 3 2 5q28 54 49 110q2 8 10 9q16 3 31 6q6 1 13 3h2h2q-46 -77 -105 -144zM424 1338v0q-4 -3 -6 -7q0 -1 -1 -2q-36 -57 -93 -94v0
l-1.5 -1.5t-0.5 -2.5q0 -1 1.5 -1.5t2.5 -0.5h2q7 -1 14 -1q7 -1 15 -2q12 -1 23 -2q17 -1 35 -2q7 -1 14 -1h1h2q3 0 3 3t-1 5v11q-1 6 -2 13l-2 20l-2 38q-1 9 -1 18q0 4 -3 9zM423 1331v0q1 -17 3 -34q3 -36 5 -73q-41 2 -83 6l-22 2q1 1 2 1l2 2q26 18 49 40
q24 24 41 52q1 2 2 3v1h1zM831 1337v0l-1 -1q-1 0 -1 -1v-2q-1 -4 -1 -9q-2 -16 -3 -33q-1 -7 -1 -15q-1 -24 -5 -48q-1 -6 6 -6h2h1h9l30 2q9 1 18 1q11 1 23 2q5 1 10 1h3q4 0 7 1q2 0 3.5 0.5t1.5 3.5q-63 40 -102 104zM928 1232v0q-20 -1 -39 -3q-33 -3 -66 -4
q3 38 6 75l2 28l1 1v0q12 -19 27 -37q15 -17 33 -32l24 -20zM602 908v0h2v-1q1 -2 2 -3q14 -36 28 -73q2 -3 3 -7q5 -13 10 -27q2 -5 8 -6h14h26q6 0 6 5v2v1v205v1v2q0 2 -1.5 3.5t-3.5 1.5h-2h-1h-10h-27q-6 0 -7 -6v-2v-1v-6v-13q1 -29 1 -58v-27v-3v-2l-2 4v0
q-5 12 -9 24q-16 42 -33 83q-1 5 -3 6t-7 1h-31h-2h-5q-5 0 -5 -5v-2v-1v-18v-25v-133v-12v-16q0 -5 1.5 -7t7.5 -2h18h15h1h3q5 1 5 5v3v1v11v30v18q0 1 -1 3v32q0 7 -1 14zM654 882v0v2v3v18q-1 16 -1 32v36v16v5v11q0 3 1 3.5t3 0.5h16h12h8h1q4 0 4 -3v-3v-13v-31
q0 -19 -1 -38v-63v-36q1 -11 1 -21q0 -2 -1 -4v-2h-2h-3h-34h-4.5t-2 1.5t-1.5 3.5l-22 56q-11 29 -22 57q-1 0 -1 1l-2 4q0 1 -1 2l-1 1q-1 -1 -1 -2v-2v-1v-16v-38v-37q1 -13 1 -27v-2v-1h-2h-3h-35q-3 0 -4 0.5t-1 4.5v8v6v159v26v4q0 4 1 5t5 1h4h17h12q4 0 5.5 -1
t2.5 -5l20 -50q12 -30 24 -61q1 -4 3 -8q1 -1 2 -1v-1h2zM607 1240v0v1q-1 2 -1 3v39v21v1q1 1 0 3q0 4 -4 5h-3h-1h-11h-24q-6 0 -8 -1.5t-2 -8.5v-35v-40v-91v-29v-4v-6q0 -6 6 -6h41q6 0 6 6v3v1v20v50q0 3 1 4t4 0q16 1 32 0q3 1 4 0t1 -5v-2v-1v-13q-1 -27 -1 -55
q0 -2 1 -4q0 -3 3 -4h3h1h34h2h5q5 0 5 5v3v1v33v75v36v61q0 4 -1.5 5.5t-5.5 1.5h-32h-7h-3q-2 -1 -3 -2t-2 -4v-3v-1v-19q0 -20 1 -39q0 -4 -1 -5t-5 -1h-31h-3q0 1 -1 1zM603 1309v0v-2v-4v-59v-1v-1q0 -6 6 -6h16h11h6h2q4 0 5.5 1.5t1.5 5.5v29v12v6v16q0 2 0.5 3
t2.5 1h38h3q1 0 1 -1h1v0v-2q1 -1 1 -2v-207q0 -1 -1 -2v0h-46v2v3v44v26q0 6 -2 7.5t-7 1.5q-11 -1 -21 0h-9h-1h-2q-6 -1 -6 -6v-3v-1v-51v-18v-3v-2q-2 0 -8 -0.5t-14.5 -0.5t-15 0.5t-8.5 0.5q0 1 -1 1v4v137v57v4v6t1 4t4 1h8q4 -1 8 -1q6 0 12 1h8h4q1 -1 2 -1z
M692 645v0v1v2q0 16 -6 31q-11 29 -43 37q-19 4 -39 -2q-26 -6 -37 -31q-15 -36 0 -72q6 -17 23 -25l22 -10l10 -4t9 -3q7 -3 12 -10q5 -10 -4 -16q-9 -5 -17.5 -2t-11.5 13v2q-1 4 -3 5.5t-6 1.5h-30h-3h-5q-6 -1 -6 -6q0 -3 1 -5v-2q2 -21 13 -38q12 -18 32 -25
q18 -5 37 -2q38 5 51 40q9 27 4 55q-6 31 -34 43q-7 4 -15 7h-2l-8 4q-5 1 -10 3q-7 3 -12 8q-3 5 -2 10t6 7q15 6 22 -9q1 -2 2 -3q1 -4 1.5 -4.5t4.5 -0.5h39h3h2zM689 649v0h-43q-1 0 -1 1q0 2 -1 3q-9 20 -28 12q-6 -2 -7.5 -9t3.5 -13q6 -7 14 -10q5 -2 10 -3
q7 -3 13 -5q8 -3 16 -8q21 -11 26 -34q6 -27 -2 -54q-11 -35 -47 -41q-21 -3 -40 3q-16 6 -26 19q-14 21 -15 46v2v0v1h2h3h35h3t1.5 -1l1.5 -3q0 -2 1 -4q5 -11 15.5 -13.5t19.5 4.5q8 8 3 18q-3 6 -8 9q-6 3 -12 5l-14 6q-10 4 -20 9q-17 7 -23 25q-12 32 0 64
q10 27 38 34q22 5 43 -2q20 -7 30 -26q8 -17 9 -35z" />
    <glyph glyph-name="question" unicode="?" horiz-adv-x="1229" 
d="M799 264v0l1 1l1 1q5 6 10 11q10 12 21 25q58 73 104 154q65 116 113 239q47 118 82 240q30 101 53 205q2 8 3 16q3 15 6 29q2 6 0 12h-5q-6 1 -11 1q-8 1 -15 2q-20 1 -39 3q-35 5 -70 14q-61 16 -113 52q-56 37 -85 97q-14 27 -18 57v5v2h-419v-2q-1 -1 -1 -3t-1 -5
q0 -5 -1 -11q-10 -42 -36 -77q-37 -51 -94 -81q-51 -27 -107 -39q-25 -6 -51 -9q-6 -1 -12 -1q-10 -2 -21 -3q-10 0 -20 -1q-6 0 -12 -1h-1h-1v-2v-1q0 -9 2 -17q1 -2 2 -5q13 -65 29 -129q41 -161 100 -316q41 -110 95 -215q45 -87 102 -167q29 -41 62 -78q2 -2 2.5 -3
t-0.5 -3q-10 -24 -14 -50q-1 -7 -1 -13q0 -7 7 -7q4 -1 8 -1q3 -1 6 -1q5 -1 7 4v3v1q1 3 1 5q1 5 2 9q8 36 23 70q8 18 17 36q3 7 7 14v0q1 2 1 4t-1 3q-2 0 -4 -1t-3 -3l-4 -2q-23 45 -41 93q29 -4 57 -8l1 -1q0 -2 1 -3q0 -4 1 -8q1 -5 2 -9q0 -5 1 -10q3 -16 6 -33
q1 -4 -1 -8q-15 -24 -27 -50q-21 -50 -32 -102q-1 -5 0 -7t6 -3q14 -4 28 -4h31q9 0 9 10v1q0 3 1 6q7 45 26 86q21 44 50 83q2 2 3 5l2 2h7v-1v0l-8 -12q-39 -52 -61 -113q-10 -28 -13 -58q-1 -6 1 -8t8 -1q28 2 53 11q8 3 10 11q12 46 38 86q21 32 47 61q2 2 5 2q2 0 3 2
v4q1 3 1 6q4 23 9 47q0 3 1 5v3q30 4 58 8q-1 -5 -6.5 -19t-13 -30t-13.5 -28.5t-9 -14.5h-1l-2 2l-6 4q-6 4 -12 9q-3 1 -4.5 1t-3.5 -2l-12 -14q-3 -4 -3 -6t4 -5q15 -12 28 -26q39 -40 68 -89q1 -3 3 -6t5 -7v0q0 -1 1 -1.5t2 -0.5v1q1 2 1 3q-1 35 -16 68zM626 372v0
l-2 -2q-1 -2 -1 -3q-29 -39 -50 -83q-20 -41 -27 -86q-1 -3 -1 -6v-4q0 -6 -6 -6h-3q-23 -1 -46 2q-5 1 -9 2t-4.5 2t0.5 4q7 32 18 63q15 47 41 90q3 4 2 8q-3 14 -6 29q0 2 -1 5q-2 14 -5 28q0 5 -5 6l-20 2q-12 2 -24 3l-10 2h-1h-2q-4 0 -3 -4q0 -1 1 -2v0
q18 -44 39 -87v-1q1 -1 2 -3q3 -4 7 -1q0 1 1 1q0 1 1 2q1 -1 0.5 -2t-0.5 -2l-1 -1q-17 -34 -31 -70q-11 -29 -16 -60v-2v0q-1 -3 -2 -3.5t-4 -0.5l-10 2q-4 0 -5 1t-1 5q1 7 2 15q4 23 13 45q2 4 -1 8q-95 108 -161 237q-50 96 -89 197q-60 152 -101 309q-21 80 -38 160
q-2 9 -4 17v4v2h1h1q6 1 12 1q10 1 21 2q92 5 176 44q65 31 108 89q25 35 35 77q1 5 2 11q1 2 1 4t1 3v2h412q1 -3 1 -6q1 -6 3 -13q11 -50 44 -90q40 -48 96 -75q46 -23 98 -34q26 -6 52 -9q16 -2 32 -3q6 -1 12 -1q6 -1 13 -1q3 -1 6 -1v-3v-6q-3 -17 -7 -33q0 -2 -1 -4
q-22 -102 -51 -202q-30 -105 -68 -208q-39 -103 -88 -202q-50 -100 -115 -191q-26 -37 -56 -70q-1 -1 -2 -3l-4 -4q-3 -3 -1 -8q8 -18 12 -39l2 -14q1 -4 1 -7h-1l-1 1q-1 2 -2 3q-25 44 -59 82q-18 21 -40 38q-3 2 -3 3.5t2 3.5l10 10q2 3 4 5q1 -1 3 -2t5 -3l2 -2
q6 -4 11 -8q4 -2 6 -1.5t4 4.5l26 56q5 11 9 21l4 10v0q0 1 1 2q0 5 -5 5q-4 -1 -9 -1q-6 -1 -13 -2q-2 -1 -3 -1q-13 -2 -26 -3q-6 0 -7.5 -1.5t-2.5 -7.5q-2 -11 -4 -21q-2 -14 -5 -28q0 -4 -1 -6v-2q-1 -1 -3 -1l-3 -3q-28 -30 -50 -64q-25 -40 -37 -85q-2 -7 -8 -9
q-26 -10 -53 -11h-3h-2v5q1 5 1 10q6 35 20 68q21 51 54 95q1 1 2 3q3 3 5 6t6 3q19 -3 38 -8q1 -1 3 -1q1 0 2 -1v2q1 2 1 4q1 8 3 15l8 50q5 30 9 59q4 27 8 55l6 40q0 2 1 5v6q3 20 6 41q1 11 2 21q1 8 2 15q1 9 2 17l2 18q2 12 3 25q1 6 2 13q0 6 1 12q1 13 3 25
q2 18 4 35v5l2 16l6 54l2 22l2 18q0 7 1 14l2 16q0 8 1 15t1 14q1 10 2 21q2 12 3 25q1 9 2 19q0 8 1 15q1 9 1 18q1 8 2 17q2 19 3 38l1 1v5q2 24 4 47q1 12 2 25q1 12 2 25l2 22q1 14 3 28q1 14 2 27v1q1 11 1 23q1 17 3 33v4q1 2 1 3q0 3 -1 4.5t-4 1.5h-3h-1h-337
q-6 0 -7 -1t0 -7l2 -26q1 -16 2 -33t3 -34q1 -11 2 -21q0 -9 1 -18l2 -22l2 -30q1 -10 2 -21l2 -16q0 -10 1 -20q1 -11 2 -21q1 -8 2 -15q0 -7 1 -13q0 -8 1 -16q1 -13 3 -27q1 -10 1 -20l2 -14q1 -10 2 -21l2 -24l2 -18l2 -24l4 -42l4 -36q1 -10 3 -21q0 -7 1 -15
q1 -11 3 -23l6 -52l4 -36q1 -9 2 -17q1 -13 3 -27q1 -10 3 -21l2 -16l2 -20q2 -12 3 -23q3 -23 6 -45l10 -62q5 -34 11 -67q2 -14 5 -29l2 -12v-1v-2q1 -3 2.5 -4t4.5 0l8 2q7 2 15 3q15 4 32 3zM454 1393v0h346v-6q-1 -8 -1 -16q-1 -3 -1 -6q0 -8 -1 -15q-1 -15 -2 -29
q-2 -18 -3 -37q-1 -8 -1 -15l-2 -16q-1 -16 -2 -31l-2 -20q-1 -8 -1 -16l-2 -22l-4 -42q-1 -15 -3 -29q0 -8 -1 -15q-1 -10 -2 -19l-2 -24l-2 -20q-1 -8 -1 -16q-1 -10 -2 -21l-2 -20l-2 -12q0 -6 -1 -12q0 -6 -1 -13q-2 -20 -4 -41l-4 -32l-2 -22q-1 -9 -2 -17q0 -6 -1 -12
l-2 -20q-2 -11 -3 -23q-1 -6 -1 -13l-2 -14q-1 -12 -3 -24q-1 -14 -3 -27q-1 -5 -1 -9q-1 -7 -2 -15q-2 -17 -4 -35q-5 -34 -10 -69q-5 -40 -12 -79q-3 -24 -7 -48q-2 -11 -4 -23q-1 -7 -3 -15q-1 -5 -2 -11v-4q0 -1 -1 -2q-59 18 -118 0v2q-1 2 -1 3q-2 13 -5 25l-10 64
q-4 23 -7 46q-2 11 -3 22q-2 9 -3 17l-4 32q-2 9 -3 19q-1 7 -2 15q-1 11 -3 22q-1 12 -3 24q-1 10 -2 21q-1 8 -2 15q-1 10 -2 19q-2 12 -3 23q-1 10 -2 19l-2 12q-1 11 -2 21q-1 8 -2 17q-1 13 -3 26v5q-1 5 -1 10q-2 14 -3 28q-1 10 -2 19t-2 17q-1 7 -1 13q-1 7 -2 15
q-1 7 -1 15q-1 7 -2 13q-1 11 -2 21t-2 21q-1 16 -3 31v7q-2 23 -5 47q-2 22 -4 45q0 7 -1 15q-1 9 -1 17q-2 22 -4 43l-2 22q-1 9 -1 18l-2 22q-2 14 -3 28t-2 27q0 7 -1 14q0 6 -1 13l-2 26v7v4zM816 175v0q-1 1 -1 2q-1 3 -2 5q-1 3 -2 5t-2 3q-21 39 -48 72
q-26 30 -54 57l-2 2t-2 1q-3 2 -6 0q-1 -1 -3 -2q-22 -23 -35 -53q-1 -2 -0.5 -3.5t2.5 -3.5l2 -2q1 0 1 -1q29 -21 52 -49q41 -51 66 -113v0l2 -4q3 -3 5 0l2 4q0 1 1 2q20 36 24 78zM700 320v0q1 0 1 -1q1 0 2 -1l4 -4q26 -25 50 -53q27 -32 47 -68q0 -1 1 -2q2 -4 5 -9
q2 -4 1 -8q-2 -39 -21 -73q-1 -2 -2 -5q-1 -1 -2 -3q0 2 -1 3q-1 2 -1 3q-25 60 -65 111q-23 29 -53 50l-1 1h-1q-2 2 -2.5 3t1.5 3q7 17 17 31l12 14q2 3 5 5l2 2q0 1 1 1zM462 100v0q0 -2 1 -4l2 -4v0q20 -34 53 -57q6 -5 15 -5h9h3q26 0 51 2q29 3 57 10q26 6 51 13
q2 1 4 1q4 1 5 3t-1 7l-2 4q-4 8 -8 15q-8 16 -18 31q-3 6 -6 6.5t-9 -1.5q-1 0 -2 -1l-6 -2q-47 -19 -99 -21q-44 -3 -88 3l-1 1h-5t-6 -1zM466 98v0h4q4 -1 8 -1q32 -5 64 -4q23 1 47 3q37 4 72 18q5 3 11 5q3 1 4.5 0.5t3.5 -3.5l1 -1q7 -11 13 -22q6 -10 11 -20l4 -8
q0 -1 1 -3v-1l-1 -1q-2 -1 -3 -1q-39 -12 -78 -19q-37 -7 -74 -6q-10 0 -19 -1q-9 0 -16 5q-31 22 -51 55q0 1 -1 3q-1 1 -1 2zM633 196v0q-1 -7 6 -13q46 -46 71 -106q6 -14 11 -28q3 -7 5 -14t8 -2q26 18 45 43q4 6 1 13q-22 54 -56 100q-27 39 -65 66q-4 3 -6 2.5
t-3 -4.5q-6 -12 -11 -24q-5 -15 -6 -33zM730 35v0q-1 3 -3 7q-2 8 -5 16q-15 41 -40 78q-18 27 -41 50q-5 4 -5 11q1 16 6 30q4 9 7 18l4 6q0 1 1 2v1q4 -2 7 -5q7 -5 14 -11q37 -32 63 -74q22 -36 39 -76q2 -5 -1 -11q-19 -24 -44 -42h-1h-1zM539 102v0q22 0 45 2
q26 3 51 10q18 5 34 13q4 1 4.5 3t-1.5 5q-1 1 -2 3q-6 11 -13 21q-10 14 -25 23q-5 3 -10 1l-18 -4q-27 -6 -54 -7q-43 -1 -84 8q-2 1 -5 1q-9 2 -17 3q-3 1 -4 0t-1 -4v-4q1 -2 1 -4q2 -30 14 -57q2 -7 9 -7q6 -1 13 -2l24 -2q14 -1 27 -2h12zM671 131v0q-4 -2 -7 -3
q-6 -3 -13 -5q-27 -10 -55 -14q-39 -5 -78 -3q-27 0 -55 5q-5 1 -6 5q-7 15 -10 32q-2 9 -3 19q-1 3 -1 7q0 2 -1 5v3q2 -1 4 -1q3 -1 7 -2l14 -2l34 -6q30 -4 59 -2q31 2 62 11q5 2 9 -1q2 -2 5 -4l12 -10q13 -15 23 -34zM627 0v0q15 -1 31 2q32 6 61 21q4 2 4.5 4t-1.5 6
q-2 5 -3 9q-1 3 -3 5q-1 3 -2.5 4t-4.5 -1q-2 -1 -5 -2l-6 -2q-56 -18 -116 -21q-10 0 -21 -1h-12v0q-2 -1 -3 -1t-1.5 -0.5t-0.5 -1.5v-1t1 -2h0.5h1.5v-1q36 -17 77 -17h2h1zM713 48v0q1 -2 2 -5q2 -5 4 -11q1 -2 1 -3.5t-3 -2.5q-22 -12 -45 -18q-5 -1 -11 -2q-4 0 -7 -1
q-24 -4 -47 -1q-22 1 -42 9q-3 2 -7 3q-3 1 -6 3q-1 0 -2 1h-1q3 1 6 1q6 0 12 1h12q16 1 31 3q51 4 99 22q1 0 2 1h2zM807 1013v0v0v0q5 0 9 1q10 1 19 2q13 1 25 2q19 2 38 3q18 2 35 4q5 1 10 1q3 1 4.5 2t2.5 4q3 18 6 35q6 37 13 74q4 27 9 54q1 6 -1 8t-8 1
q-11 -2 -23 -3q-8 -1 -17 -1q-4 -1 -8 -1q-7 -1 -13 -1l-28 -2l-30 -2q-9 -1 -19 -1q-2 -1 -4 -1h-5t-4.5 -1t-1.5 -5q-1 -9 -1 -18l-2 -20l-2 -28q-2 -23 -5 -47q-1 -17 -3 -34q0 -4 -1 -8q-1 -7 -1 -14q0 -2 1 -3t3 -1h2v0zM804 1016v0l8 90l8 82q5 1 9 1q10 1 21 2
q12 1 23 1l30 2q20 2 39 4q11 1 23 2q5 0 10 1v-2v-4q-9 -52 -18 -105q-3 -14 -5 -28q-3 -14 -5 -28q-1 -4 -5 -4q-7 -1 -13 -2q-4 0 -8 -1h-5q-12 -2 -24 -3t-24 -3q-10 0 -20 -1l-20 -2q-7 -1 -13 -1q-4 -1 -8 -1h-2h-1zM453 1019v0v1v2q-1 5 -1 11q-2 12 -3 24l-2 24
q0 5 -1 10q0 8 -1 16q-2 17 -3 35q-1 8 -2 15q0 10 -1 20q-1 4 -1 8q-1 2 -1 3q0 3 -3 4h-2q-4 0 -8 1q-10 0 -20 1l-28 2q-16 1 -33 2q-7 1 -13 1q-2 1 -5 1q-5 0 -10 1q-7 0 -14 1q-10 1 -19 2q-8 1 -6 -6q1 -6 2 -11q0 -4 1 -8q2 -10 3 -20q3 -20 7 -40l10 -56
q2 -13 5 -26q0 -5 1 -7t3 -2.5t7 -1.5v0v0q8 -1 15 -2q18 -1 37 -3q2 -1 5 -1q18 -2 35 -4q20 -1 40 -3q4 0 5 1t1 5zM450 1016v0h-3t-4 1q-8 0 -17 1q-14 1 -29 3q-12 1 -25 2l-16 2q-15 1 -29 3q-6 0 -11 1h-1h-1q-3 0 -4 0.5t-1.5 2t-1.5 3.5l-2 14q-7 38 -14 75
q-4 27 -8 53q-2 9 -4 19v3v2l24 -2q27 -3 53 -5l54 -4q12 -1 24 -1q0 -3 1 -5q0 -5 1 -10q1 -10 2 -21q0 -8 1 -16q2 -23 4 -47v-1v-3q2 -17 3 -34q1 -9 2 -19q1 -6 2 -13v-3v-1zM310 836v0q5 0 4 4q-3 11 -5 23q-2 11 -5 22q-9 44 -18 87l-4 22q-1 7 -8 8q-5 0 -10 1h-3
l-10 2q-12 1 -24 3q-12 1 -24 3l-12 2q-10 1 -20 3q-9 1 -17 2q-3 1 -6 1q-4 1 -8 1q-7 1 -5 -5q0 -1 1 -3v0q1 -5 2 -9l6 -20q7 -25 15 -51q11 -35 21 -70q2 -8 10 -8q3 0 6 -1h2q7 -1 15 -3q19 -3 38 -5l26 -4l10 -2q9 -1 17 -2q3 -1 6 -1zM310 839v0q-4 1 -8 1
q-10 2 -18 3q-5 1 -10 1q-13 2 -27 4q-20 3 -40 7q-6 0 -11 1q-2 0 -3 1q-2 0 -5 1q-3 0 -4 4q-3 8 -5 16l-4 12q-19 61 -36 123q0 1 -1 2v2h4q5 -1 9 -1q25 -4 51 -8q7 -1 13 -2q12 -2 23 -3q10 -1 19 -2q4 -1 8 -1q1 -1 3 -1h4q4 -1 5.5 -2t1.5 -5q2 -11 4 -21l6 -30
q4 -19 8 -37q3 -13 5 -26l6 -26q1 -4 1 -8q1 -2 1 -3v-2zM1120 1021v0q-1 0 -3 -1h-5q-13 -2 -27 -4l-16 -2q-4 -1 -9 -2q-14 -2 -27 -3q-15 -2 -29 -4q-3 0 -5 -1q-4 0 -9 -1q-5 0 -11 -1t-7 -7q-2 -12 -5 -24v-3q-9 -43 -17 -85q-3 -13 -6 -25q-1 -8 -3 -15q-2 -9 6 -7
l10 2v0l16 2l26 4l42 6l14 2l10 2t8 5l2 6q24 75 44 151q1 1 1 3v2zM1116 1017v0l-2 -8q-2 -7 -4 -15q-18 -65 -38 -129q-2 -8 -10 -8q-1 0 -2 -1h-1q-8 -1 -15 -2q-27 -4 -55 -8q-16 -3 -32 -5q-5 -1 -11 -1q0 -1 -1 -1h-1q0 4 1 7q1 6 3 12l4 20q8 43 17 86l4 20l2 10
q0 2 1 3t5 2q7 1 15 2q7 1 14 1l38 6q12 1 23 3l14 2q12 2 25 3q2 1 4 1h1h1zM469 819v0q5 -1 4 7v0q-1 3 -1 6l-2 14q-1 11 -2 21l-2 24q-1 8 -2 15v2q-2 20 -4 39q-1 9 -2 17q0 7 -1 14q0 2 -1 3.5t-4 1.5q-6 1 -12 1h-1q-5 1 -10 1l-18 2q-13 1 -25 2q-4 1 -8 1l-20 2
l-20 2q-1 1 -2 1q-9 1 -18 1q-7 1 -6 -5q0 -2 1 -3q2 -12 5 -25q7 -34 13 -67q5 -24 11 -48l2 -12q1 -3 2 -4t4 -1q5 0 10 -1l16 -2q13 -1 25 -2q6 -1 12 -1q2 -1 5 -1q10 -1 19 -2q10 -1 21 -2q5 -1 11 -1zM315 993v0h1h1q63 -6 126 -13q5 0 11 -1q0 -8 1 -16l4 -36
q1 -12 2 -25q2 -14 3 -27q2 -18 4 -37q1 -8 1 -16q-60 6 -121 12q-17 79 -33 159zM943 995v0q-5 2 -9 1q-6 0 -11 -1q-3 0 -7 -1q-16 -1 -32 -3q-7 -1 -14 -1q-6 -1 -11 -1q-11 -1 -21 -2l-14 -2q-4 0 -9 -1q-6 0 -13 -1q-2 0 -3 -1t-2 -4v-2v-1q-1 -6 -1 -12q-1 -13 -3 -26
q-1 -10 -2 -21l-2 -16l-2 -24q-2 -15 -3 -29q0 -4 -1 -8q-1 -7 -1 -14q-1 -7 6 -6q4 0 8 1h4q4 1 8 1q12 1 23 3q9 0 18 1l16 2q7 0 14 1q11 1 21 2q6 1 8 3t3 7l10 50l16 74q2 11 4 21zM785 823v0l14 136l2 20l1 1h4l58 6q8 1 16 1l20 2q9 1 19 3q4 0 8 1v0q6 1 12 0
q-1 -4 -1 -7q-2 -8 -3 -15q-12 -55 -23 -110l-4 -20v0q0 -1 -1 -3q-1 -4 -4 -4l-34 -4h-4l-20 -2l-22 -2l-36 -4h-1q-1 0 -1 1zM980 1036v0q-1 -5 3 -5q6 1 11 1h1q7 2 15 3q11 1 22 3q7 1 14 1q9 2 17 3l30 4q3 1 6 1l24 4q6 1 7 6q1 2 1 3v1q1 5 2 9l6 26q1 2 1 5l14 58
q1 4 0 5.5t-6 2.5q-3 0 -6 1h-6q-5 1 -9 1q-16 2 -32 5q-41 7 -81 21q-4 1 -5.5 0t-2.5 -5q-1 -8 -3 -17q-1 -8 -2 -15q-8 -46 -16 -91l-2 -12q-1 -7 -2 -13q-1 -3 -1 -6zM1010 1193v0q35 -12 70 -20q35 -6 71 -9q0 -4 -1 -8q-1 -7 -3 -13q-7 -31 -14 -61q-2 -10 -5 -20v-1
q0 -1 -1 -2q-1 -5 -5 -5l-10 -2q-14 -2 -27 -4q-31 -4 -62 -9q-7 0 -13 -1q-11 -2 -21 -3h-4h-2q14 79 27 158zM274 1037v0v0v2q-3 15 -6 31l-12 70q-2 15 -5 30q-2 10 -3 21q-1 4 -2.5 4.5t-4.5 -0.5q-39 -13 -78 -20q-28 -6 -56 -8q-5 0 -6.5 -2t-0.5 -7q2 -7 4 -15
q2 -11 5 -22q4 -20 9 -40l6 -24q1 -6 7 -6q6 -1 11 -2h5l12 -2q14 -2 28 -5l44 -6l38 -4q6 -1 5 5zM244 1193v0q9 -54 18 -107q5 -26 9 -51h-4q-3 0 -7 1q-4 0 -9 1q-13 2 -27 3q-19 3 -37 6q-13 2 -27 4q-7 1 -15 2h-3l-10 2q-4 0 -5 5q-4 14 -7 29l-10 40l-4 18
q-1 6 -2 13q-1 3 -0.5 4t4.5 1q64 5 125 25q4 1 7 2zM357 653v0v3q0 2 -1 4q-18 69 -33 139q-1 4 -2.5 5.5t-5.5 1.5q-5 1 -10 1q-14 2 -27 4q-29 4 -58 9q-10 1 -21 3q-6 1 -4 -5q1 -3 2 -5q3 -9 6 -17q21 -61 45 -120q2 -5 8 -6q10 -1 20 -3l8 -2l14 -2q25 -4 49 -9h6
q2 -1 4 -1zM354 657v0q-3 0 -6 1q-6 0 -12 1q-13 3 -27 5q-26 5 -51 9q-6 1 -7 6q-26 64 -49 129q-1 4 -3 8q0 2 -1 4q2 0 3 -1h7q17 -3 35 -6q6 -1 13 -2q5 -1 11 -2q15 -2 29 -4l18 -2q3 0 4 -1t2 -4q1 -7 3 -15q4 -17 8 -35q8 -30 15 -60q3 -13 7 -26v-3q1 -1 1 -2z
M897 654v0h1q2 -1 3 -1v1q5 0 9 1q16 2 32 5l54 10q8 1 10 8l16 40q9 24 19 48q7 19 13 38q3 6 5 13q3 8 -6 6q-3 0 -5 -1l-28 -4l-38 -6q-10 -1 -20 -3q-4 0 -9 -1l-16 -2q-4 -1 -5 -5v-1l-1 -1q-1 -7 -3 -13q-3 -14 -6 -27q-8 -33 -16 -65q-4 -18 -8 -35q-1 -2 -1 -3v-2z
M900 657v0q1 3 2 5q1 6 3 12q14 62 29 124v0l1.5 3t1.5 1.5t3 0.5q10 1 19 2q18 3 36 5l38 6q9 2 17 3q2 1 4 1h2v-1q0 -1 -1 -2q-23 -70 -52 -138q-1 -5 -8 -6q-24 -4 -49 -9q-9 -2 -18 -3q-2 -1 -4 -1q-8 -1 -15 -2q-3 -1 -6 -1h-3zM358 800v0q-4 1 -5 0t0 -5v0q0 -1 1 -2
q1 -7 3 -14q15 -62 30 -123q1 -5 3.5 -7t7.5 -2q11 -1 21 -2q28 -4 55 -7q4 0 9 -1h2q2 0 3 -1q7 -1 6 6v1v1q-1 4 -1 9l-4 26l-2 24q-2 12 -3 23t-3 23q-1 11 -2 21q-1 3 -1 5q0 4 -1 8q0 4 -2 5.5t-6 1.5h-3h-6l-40 4q-10 1 -19 2q-6 1 -13 1q-10 1 -21 3h-9zM490 639v0
q-9 1 -19 2q-23 3 -45 6q-14 1 -28 3h-1q-3 0 -4.5 1.5t-1.5 4.5q-18 69 -35 139v1v1h1h3q10 -1 19 -2q22 -2 43 -4l18 -2q5 0 10 -1h8q6 -1 12 -1q2 0 3 -1.5t1 -2.5q1 -3 1 -7q0 -5 1 -9q1 -14 3 -27l2 -18q3 -21 5 -43l2 -10v-5l2 -20q1 -1 0 -3v-2zM766 636v0q4 1 8 1
q10 1 20 3l20 2q5 0 9 1q5 0 10 1q12 1 24 3q7 0 9 7q0 1 1 2v4q3 9 5 18q12 46 23 91q3 14 6 27q1 6 -4 5q-12 -1 -25 -3q-6 0 -13 -1q-12 -2 -24 -3l-28 -2q-6 -1 -12 -1q-5 0 -10 -1q-4 0 -6 -1.5t-2 -6.5v-3q0 -1 -1 -1q-1 -9 -1 -17q-3 -18 -5 -37q0 -5 -1 -9
q-2 -17 -4 -35q-1 -10 -3 -21l-2 -16q-1 -4 0.5 -5.5t5.5 -1.5zM898 798v0l-2 -8q-1 -8 -3 -16q-12 -46 -23 -91q-3 -11 -5 -22q-1 -2 -1 -3q-2 -5 -3.5 -6.5t-6.5 -1.5q-15 -2 -31 -4l-22 -2q-12 -2 -24 -3l-12 -2h-1h-1v1v2q2 16 4 31q3 25 6 51q3 18 5 36q1 11 2 21
q0 4 1 5t5 1q5 1 9 1h8q24 3 49 5q14 1 29 3q5 0 11 1q2 0 4 1h2zM989 636v0q-2 2 -4 2h-3h-1l-8 -2q-26 -4 -51 -9l-28 -4q-5 0 -7 -4l-2 -6q-19 -71 -44 -140q-1 -5 4 -6q1 0 2 1h1q5 1 9 2q8 1 17 3h1l30 6q6 2 10 8q38 69 70 140l2 6q1 2 2 3zM844 471v0q2 3 3 6l4 14
q20 60 37 120q0 2 1 4q1 4 6 5q28 5 55 9q15 3 29 5h3h2q0 -1 -1 -1q0 -2 -1 -3q-32 -72 -70 -142q-3 -5 -8 -5l-38 -8q-10 -2 -19 -4h-2h-1zM407 468v0q7 -1 5 5q0 1 -1 3v2q-4 13 -9 26q-10 33 -20 65q-7 22 -13 43q0 3 -1 5q-1 5 -6 6q-4 0 -9 1q-2 0 -3 1q-6 1 -13 2
l-28 4q-13 2 -26 5q-5 1 -11 2h-2t-2 -1t-1 -2.5t1 -2.5q2 -5 4 -9l6 -16q23 -49 49 -97q4 -7 7 -13l4 -8q5 -9 15 -10h2q7 -2 14 -3q11 -3 21 -5l12 -2q3 -1 5 -1zM270 635v0q3 -1 6 -1l10 -2l50 -8q2 -1 5 -1q10 -2 20 -3q2 0 3 -1.5t1 -3.5v0q3 -11 7 -22q7 -26 15 -51
l14 -46q4 -10 7 -20q0 -2 1 -3q0 -1 1 -2h-2h-2l-26 6q-12 2 -23 5q-3 0 -5 1q-7 0 -11 6q-1 4 -3 7q-1 1 -1 3q-5 9 -10 19q-12 21 -23 43q-11 24 -23 49q-4 10 -9 20q-1 1 -1 3q-1 1 -1 2zM740 451v0h2q3 0 5 1q5 0 9 1q22 3 43 6q8 1 11 9q19 55 35 112q1 3 2 7
q4 11 7 23q2 8 -6 7q-4 0 -7 -1l-16 -2q-19 -2 -37 -4h-2l-10 -2q-8 0 -15 -1q-3 -1 -4.5 -2t-1.5 -5q-1 -6 -1 -11q-3 -17 -5 -33q-1 -9 -3 -18l-2 -14q-2 -16 -4 -31l-4 -22l-2 -12q-1 -9 6 -8zM851 614v0v-2q0 -2 -1 -3q-19 -70 -43 -139q-2 -7 -10 -8q-17 -2 -35 -5
q-10 -1 -20 -3h-3h-2v1q0 2 1 3q1 9 3 18q2 18 5 36q2 11 3 22q1 7 2 15l4 24l2 20q1 2 1 4v3t1 3t3 1q8 1 17 2l38 4q10 1 21 2l10 2h2h1zM513 451v0q4 -1 5.5 0.5t1.5 5.5q-1 4 -1 7q-1 2 -1 5v3l-6 40q-2 14 -4 29q-2 10 -3 21l-6 40q-1 3 -2 4t-3 1q-4 0 -7 1h-6
q-15 2 -30 3q-13 2 -27 4l-16 2v0h-4q-5 0 -5 -5q1 -2 1 -4q1 0 1 -1l6 -22q8 -27 17 -54l14 -42q4 -11 8 -23q1 -6 7 -7q12 -1 25 -3l12 -2l16 -2q4 -1 7 -1zM402 614v0q20 -2 40 -5q27 -3 53 -6q4 -24 7 -47q7 -51 15 -102q-2 -1 -4 -0.5t-4 0.5q-2 1 -3 1q-14 2 -27 4
q-12 1 -23 3q-6 0 -8 6q-20 56 -36 112q0 1 -1 2q-3 12 -7 24v3q-1 1 -1 3q0 1 -1 2zM474 293v0q2 1 3 2q2 3 4 5q3 4 1 9q-2 4 -4 7q-26 51 -46 105q-2 3 -3 7q-4 7 -12 8q-3 1 -6 1q-5 1 -9 2l-32 6v0q-1 1 -2 1t-2 -1v-2v-2v0q0 -1 1 -2v0q2 -4 4 -7q43 -70 96 -131
q2 -3 5 -5q1 -2 2 -3zM369 442v0q3 0 6 -1q7 -2 13 -3l26 -4q9 -1 12 -9q3 -5 5 -11q0 -1 1 -3q19 -49 44 -96v-1q1 -1 1 -2q3 -5 2.5 -7.5t-5.5 -6.5q0 1 -1 2q-2 2 -4 3q-23 27 -44 56q-29 39 -55 81v1t-1 1zM780 294v0q12 11 37 44t47 65.5t25 41.5q-1 1 -2.5 1h-2.5
t-1 -1q-6 -1 -13 -2q-17 -4 -35 -7q-8 -2 -11 -10q-18 -48 -40 -94q-2 -4 -5 -8l-6 -12q-5 -12 7 -18zM780 298v0q-4 3 -5 5.5t1 5.5q1 3 2 5q28 54 49 110q2 8 10 9q16 3 31 6q6 1 13 3h2h2q-46 -77 -105 -144zM424 1338v0q-4 -3 -6 -7q0 -1 -1 -2q-36 -57 -93 -94v0
l-1.5 -1.5t-0.5 -2.5q0 -1 1.5 -1.5t2.5 -0.5h2q7 -1 14 -1q7 -1 15 -2q12 -1 23 -2q17 -1 35 -2q7 -1 14 -1h1h2q3 0 3 3t-1 5v11q-1 6 -2 13l-2 20l-2 38q-1 9 -1 18q0 4 -3 9zM423 1331v0q1 -17 3 -34q3 -36 5 -73q-41 2 -83 6l-22 2q1 1 2 1l2 2q26 18 49 40
q24 24 41 52q1 2 2 3v1h1zM831 1337v0l-1 -1q-1 0 -1 -1v-2q-1 -4 -1 -9q-2 -16 -3 -33q-1 -7 -1 -15q-1 -24 -5 -48q-1 -6 6 -6h2h1h9l30 2q9 1 18 1q11 1 23 2q5 1 10 1h3q4 0 7 1q2 0 3.5 0.5t1.5 3.5q-63 40 -102 104zM928 1232v0q-20 -1 -39 -3q-33 -3 -66 -4
q3 38 6 75l2 28l1 1v0q12 -19 27 -37q15 -17 33 -32l24 -20zM602 908v0h2v-1q1 -2 2 -3q14 -36 28 -73q2 -3 3 -7q5 -13 10 -27q2 -5 8 -6h14h26q6 0 6 5v2v1v205v1v2q0 2 -1.5 3.5t-3.5 1.5h-2h-1h-10h-27q-6 0 -7 -6v-2v-1v-6v-13q1 -29 1 -58v-27v-3v-2l-2 4v0
q-5 12 -9 24q-16 42 -33 83q-1 5 -3 6t-7 1h-31h-2h-5q-5 0 -5 -5v-2v-1v-18v-25v-133v-12v-16q0 -5 1.5 -7t7.5 -2h18h15h1h3q5 1 5 5v3v1v11v30v18q0 1 -1 3v32q0 7 -1 14zM654 882v0v2v3v18q-1 16 -1 32v36v16v5v11q0 3 1 3.5t3 0.5h16h12h8h1q4 0 4 -3v-3v-13v-31
q0 -19 -1 -38v-63v-36q1 -11 1 -21q0 -2 -1 -4v-2h-2h-3h-34h-4.5t-2 1.5t-1.5 3.5l-22 56q-11 29 -22 57q-1 0 -1 1l-2 4q0 1 -1 2l-1 1q-1 -1 -1 -2v-2v-1v-16v-38v-37q1 -13 1 -27v-2v-1h-2h-3h-35q-3 0 -4 0.5t-1 4.5v8v6v159v26v4q0 4 1 5t5 1h4h17h12q4 0 5.5 -1
t2.5 -5l20 -50q12 -30 24 -61q1 -4 3 -8q1 -1 2 -1v-1h2zM607 1240v0v1q-1 2 -1 3v39v21v1q1 1 0 3q0 4 -4 5h-3h-1h-11h-24q-6 0 -8 -1.5t-2 -8.5v-35v-40v-91v-29v-4v-6q0 -6 6 -6h41q6 0 6 6v3v1v20v50q0 3 1 4t4 0q16 1 32 0q3 1 4 0t1 -5v-2v-1v-13q-1 -27 -1 -55
q0 -2 1 -4q0 -3 3 -4h3h1h34h2h5q5 0 5 5v3v1v33v75v36v61q0 4 -1.5 5.5t-5.5 1.5h-32h-7h-3q-2 -1 -3 -2t-2 -4v-3v-1v-19q0 -20 1 -39q0 -4 -1 -5t-5 -1h-31h-3q0 1 -1 1zM603 1309v0v-2v-4v-59v-1v-1q0 -6 6 -6h16h11h6h2q4 0 5.5 1.5t1.5 5.5v29v12v6v16q0 2 0.5 3
t2.5 1h38h3q1 0 1 -1h1v0v-2q1 -1 1 -2v-207q0 -1 -1 -2v0h-46v2v3v44v26q0 6 -2 7.5t-7 1.5q-11 -1 -21 0h-9h-1h-2q-6 -1 -6 -6v-3v-1v-51v-18v-3v-2q-2 0 -8 -0.5t-14.5 -0.5t-15 0.5t-8.5 0.5q0 1 -1 1v4v137v57v4v6t1 4t4 1h8q4 -1 8 -1q6 0 12 1h8h4q1 -1 2 -1z
M692 645v0v1v2q0 16 -6 31q-11 29 -43 37q-19 4 -39 -2q-26 -6 -37 -31q-15 -36 0 -72q6 -17 23 -25l22 -10l10 -4t9 -3q7 -3 12 -10q5 -10 -4 -16q-9 -5 -17.5 -2t-11.5 13v2q-1 4 -3 5.5t-6 1.5h-30h-3h-5q-6 -1 -6 -6q0 -3 1 -5v-2q2 -21 13 -38q12 -18 32 -25
q18 -5 37 -2q38 5 51 40q9 27 4 55q-6 31 -34 43q-7 4 -15 7h-2l-8 4q-5 1 -10 3q-7 3 -12 8q-3 5 -2 10t6 7q15 6 22 -9q1 -2 2 -3q1 -4 1.5 -4.5t4.5 -0.5h39h3h2zM689 649v0h-43q-1 0 -1 1q0 2 -1 3q-9 20 -28 12q-6 -2 -7.5 -9t3.5 -13q6 -7 14 -10q5 -2 10 -3
q7 -3 13 -5q8 -3 16 -8q21 -11 26 -34q6 -27 -2 -54q-11 -35 -47 -41q-21 -3 -40 3q-16 6 -26 19q-14 21 -15 46v2v0v1h2h3h35h3t1.5 -1l1.5 -3q0 -2 1 -4q5 -11 15.5 -13.5t19.5 4.5q8 8 3 18q-3 6 -8 9q-6 3 -12 5l-14 6q-10 4 -20 9q-17 7 -23 25q-12 32 0 64
q10 27 38 34q22 5 43 -2q20 -7 30 -26q8 -17 9 -35z" />
    <glyph glyph-name="at" unicode="@" horiz-adv-x="668" 
d="M493 0v0l157 211h-334l-10 13v433l15 22h178l121 157v576h-560l147 -211h202v-293l-14 -18h-188l-112 -169v-567l114 -154h284z" />
    <glyph glyph-name="A" unicode="A" horiz-adv-x="689" 
d="M417 1430v0h98l144 -190v-408v-240v-592h-242v592h-115v-592h-242v592v240v408v190h242h115zM417 832v0v408h-115v-408h115z" />
    <glyph glyph-name="B" unicode="B" 
d="M302 1430v0h195l157 -182v-393l-88 -56l88 -57v-538l-149 -204h-93h-110h-98h-144v1430h94h148zM412 201v0v462l-110 -70v-392h110zM412 863v0v377h-110v-457z" />
    <glyph glyph-name="C" unicode="C" horiz-adv-x="699" 
d="M664 1211v0h-364v-982h364l-122 -229h-339l-143 171v58v982v219h240h232z" />
    <glyph glyph-name="D" unicode="D" horiz-adv-x="694" 
d="M442 1430v0h58l158 -190v-877v-155l-155 -208h-227h-164h-52v1430h52h164h166zM442 190v0v1050h-166v-1050h166z" />
    <glyph glyph-name="E" unicode="E" horiz-adv-x="670" 
d="M649 1224v0h-354v-390h183v-240h-183v-380h354l-139 -214h-215h-235v214v380v240v390v206h235h222z" />
    <glyph glyph-name="F" unicode="F" horiz-adv-x="682" 
d="M649 1224v0h-354v-390h216v-240h-216v-594h-235v594v240v390v206h235h231z" />
    <glyph glyph-name="G" unicode="G" 
d="M423 834v0h226h9v-648l-159 -186h-76h-128h-86l-149 184v1040v206h235h231l123 -206h-354v-984h128v354h-79l44 240h35z" />
    <glyph glyph-name="H" unicode="H" 
d="M419 1430v0h78l157 -149v-1281h-235v589h-124v-589h-235v1430h235v-594h124v594z" />
    <glyph glyph-name="I" unicode="I" horiz-adv-x="322" 
d="M60 0v0v1430h235v-1430h-235z" />
    <glyph glyph-name="J" unicode="J" horiz-adv-x="703" 
d="M437 178v0v1252h235v-1236l-178 -194h-57h-142h-57l-178 200v636h235v-1v1l57 -108v-18v-108h-57v-424h142z" />
    <glyph glyph-name="K" unicode="K" horiz-adv-x="751" 
d="M486 1430v0h235l-264 -635l254 -795h-234l-152 476l-30 -73v-403h-235v1430h235v-462z" />
    <glyph glyph-name="L" unicode="L" horiz-adv-x="701" 
d="M295 1430v0v-1195h365l-138 -235h-227h-235v235v1195h235z" />
    <glyph glyph-name="M" unicode="M" horiz-adv-x="819" 
d="M555 1430v0h86l148 -190v-1240h-234v1084l-130 -209l-130 190v-1065h-235v1430h235h17l109 -169l109 169h25z" />
    <glyph glyph-name="N" unicode="N" horiz-adv-x="677" 
d="M422 1430v0h87l147 -178v-1252h-234v1236h-127v-1236h-235v1430h40h195h127z" />
    <glyph glyph-name="O" unicode="O" horiz-adv-x="682" 
d="M417 1430v0h104l130 -176v-926v-137l-166 -191h-190h-54l-181 194v1236h85h150h122zM417 186v0v1058h-122v-1058h122z" />
    <glyph glyph-name="P" unicode="P" horiz-adv-x="689" 
d="M399 1430v0h64l191 -173v-358v-8l-210 -277h-149v-614h-235v1430h189h46h104zM419 875v0v369h-124v-423h82z" />
    <glyph glyph-name="Q" unicode="Q" horiz-adv-x="730" 
d="M651 1254v0v-1000l63 -77v-177h-114l-58 66l-57 -66h-190h-54l-181 194v1236h85h150h122h104zM417 186v0v22l-122 139v-161h122zM417 492v0v752h-122v-618z" />
    <glyph glyph-name="R" unicode="R" horiz-adv-x="768" 
d="M654 891v0l-128 -168l220 -723h-235l-187 614h-29v-614h-235v1430h189h46h104h64l191 -173v-358v-8zM419 875v0v369h-124v-423h82z" />
    <glyph glyph-name="S" unicode="S" horiz-adv-x="679" 
d="M645 1215v0h-350v-388h174l176 -199v-38v-353v-237h-252h-212l-121 237h333v353h-98h-83l-152 181v473v186h235h230z" />
    <glyph glyph-name="T" unicode="T" horiz-adv-x="807" 
d="M528 1430v0h157l86 -186h-243v-1244h-235v1244h-233v186h233h235z" />
    <glyph glyph-name="U" unicode="U" 
d="M412 1430v0h103l131 -186v-1056v-188h-234h-117h-91l-144 181v1249h235v-1242h117v1242z" />
    <glyph glyph-name="V" unicode="V" horiz-adv-x="679" 
d="M551 1430v0h95l9 -1234l-139 -196h-104h-117h-91l-144 181v1249h85l150 -162v-1045h117v1023z" />
    <glyph glyph-name="W" unicode="W" horiz-adv-x="853" 
d="M593 1430v0h75l159 -186v-1244h-4h-230h-5l-145 190l-145 -190h-235v1430h235v-1080l145 217l150 -223v1086z" />
    <glyph glyph-name="X" unicode="X" horiz-adv-x="689" 
d="M427 1430v0h80l155 -125v-497l-86 -93l86 -106v-609h-235v599h-132v-599h-235v617l82 98l-82 91v624h235v-596h132v596z" />
    <glyph glyph-name="Y" unicode="Y" horiz-adv-x="670" 
d="M399 1430v0h94l141 -144v-482l-179 -210v-594h-234v594l-161 219v617h235v-574l22 -30h52l30 32v572z" />
    <glyph glyph-name="Z" unicode="Z" horiz-adv-x="629" 
d="M600 1430v0l-262 -1226h262v-204h-305h-235l262 1226h-262v204h306h234z" />
    <glyph glyph-name="asciicircum" unicode="^" horiz-adv-x="642" 
d="M461 0v0l128 181v539l-125 175h-181v293h337l-145 227h-411l-4 -1228l126 -187h275zM289 223v0l-6 9v440h83v-438l-10 -11h-67z" />
    <glyph glyph-name="underscore" unicode="_" horiz-adv-x="1024" 
d="M0 -100h1024v-60h-1024v60z" />
    <glyph glyph-name="grave" unicode="`" horiz-adv-x="1024" 
d="M673 1079h-69l-330 202q-31 20 -46.5 40t-15.5 42q0 31 20.5 51t53.5 20q20 0 40.5 -12t55.5 -47z" />
    <glyph glyph-name="a" unicode="a" horiz-adv-x="689" 
d="M417 1430v0h98l144 -190v-408v-240v-592h-242v592h-115v-592h-242v592v240v408v190h242h115zM417 832v0v408h-115v-408h115z" />
    <glyph glyph-name="b" unicode="b" 
d="M302 1430v0h195l157 -182v-393l-88 -56l88 -57v-538l-149 -204h-93h-110h-98h-144v1430h94h148zM412 201v0v462l-110 -70v-392h110zM412 863v0v377h-110v-457z" />
    <glyph glyph-name="c" unicode="c" horiz-adv-x="699" 
d="M664 1211v0h-364v-982h364l-122 -229h-339l-143 171v58v982v219h240h232z" />
    <glyph glyph-name="d" unicode="d" horiz-adv-x="694" 
d="M442 1430v0h58l158 -190v-877v-155l-155 -208h-227h-164h-52v1430h52h164h166zM442 190v0v1050h-166v-1050h166z" />
    <glyph glyph-name="e" unicode="e" horiz-adv-x="670" 
d="M649 1224v0h-354v-390h183v-240h-183v-380h354l-139 -214h-215h-235v214v380v240v390v206h235h222z" />
    <glyph glyph-name="f" unicode="f" horiz-adv-x="682" 
d="M649 1224v0h-354v-390h216v-240h-216v-594h-235v594v240v390v206h235h231z" />
    <glyph glyph-name="g" unicode="g" 
d="M423 834v0h226h9v-648l-159 -186h-76h-128h-86l-149 184v1040v206h235h231l123 -206h-354v-984h128v354h-79l44 240h35z" />
    <glyph glyph-name="h" unicode="h" 
d="M419 1430v0h78l157 -149v-1281h-235v589h-124v-589h-235v1430h235v-594h124v594z" />
    <glyph glyph-name="i" unicode="i" horiz-adv-x="322" 
d="M60 0v0v1430h235v-1430h-235z" />
    <glyph glyph-name="j" unicode="j" horiz-adv-x="703" 
d="M437 178v0v1252h235v-1236l-178 -194h-57h-142h-57l-178 200v636h235v-1v1l57 -108v-18v-108h-57v-424h142z" />
    <glyph glyph-name="k" unicode="k" horiz-adv-x="751" 
d="M486 1430v0h235l-264 -635l254 -795h-234l-152 476l-30 -73v-403h-235v1430h235v-462z" />
    <glyph glyph-name="l" unicode="l" horiz-adv-x="701" 
d="M295 1430v0v-1195h365l-138 -235h-227h-235v235v1195h235z" />
    <glyph glyph-name="m" unicode="m" horiz-adv-x="819" 
d="M555 1430v0h86l148 -190v-1240h-234v1084l-130 -209l-130 190v-1065h-235v1430h235h17l109 -169l109 169h25z" />
    <glyph glyph-name="n" unicode="n" horiz-adv-x="677" 
d="M422 1430v0h87l147 -178v-1252h-234v1236h-127v-1236h-235v1430h40h195h127z" />
    <glyph glyph-name="o" unicode="o" horiz-adv-x="682" 
d="M417 1430v0h104l130 -176v-926v-137l-166 -191h-190h-54l-181 194v1236h85h150h122zM417 186v0v1058h-122v-1058h122z" />
    <glyph glyph-name="p" unicode="p" horiz-adv-x="689" 
d="M399 1430v0h64l191 -173v-358v-8l-210 -277h-149v-614h-235v1430h189h46h104zM419 875v0v369h-124v-423h82z" />
    <glyph glyph-name="q" unicode="q" horiz-adv-x="730" 
d="M651 1254v0v-1000l63 -77v-177h-114l-58 66l-57 -66h-190h-54l-181 194v1236h85h150h122h104zM417 186v0v22l-122 139v-161h122zM417 492v0v752h-122v-618z" />
    <glyph glyph-name="r" unicode="r" horiz-adv-x="768" 
d="M654 891v0l-128 -168l220 -723h-235l-187 614h-29v-614h-235v1430h189h46h104h64l191 -173v-358v-8zM419 875v0v369h-124v-423h82z" />
    <glyph glyph-name="s" unicode="s" horiz-adv-x="679" 
d="M645 1215v0h-350v-388h174l176 -199v-38v-353v-237h-252h-212l-121 237h333v353h-98h-83l-152 181v473v186h235h230z" />
    <glyph glyph-name="t" unicode="t" horiz-adv-x="807" 
d="M528 1430v0h157l86 -186h-243v-1244h-235v1244h-233v186h233h235z" />
    <glyph glyph-name="u" unicode="u" 
d="M412 1430v0h103l131 -186v-1056v-188h-234h-117h-91l-144 181v1249h235v-1242h117v1242z" />
    <glyph glyph-name="v" unicode="v" horiz-adv-x="679" 
d="M551 1430v0h95l9 -1234l-139 -196h-104h-117h-91l-144 181v1249h85l150 -162v-1045h117v1023z" />
    <glyph glyph-name="w" unicode="w" horiz-adv-x="853" 
d="M593 1430v0h75l159 -186v-1244h-4h-230h-5l-145 190l-145 -190h-235v1430h235v-1080l145 217l150 -223v1086z" />
    <glyph glyph-name="x" unicode="x" horiz-adv-x="689" 
d="M427 1430v0h80l155 -125v-497l-86 -93l86 -106v-609h-235v599h-132v-599h-235v617l82 98l-82 91v624h235v-596h132v596z" />
    <glyph glyph-name="y" unicode="y" horiz-adv-x="670" 
d="M399 1430v0h94l141 -144v-482l-179 -210v-594h-234v594l-161 219v617h235v-574l22 -30h52l30 32v572z" />
    <glyph glyph-name="z" unicode="z" horiz-adv-x="629" 
d="M600 1430v0l-262 -1226h262v-204h-305h-235l262 1226h-262v204h306h234z" />
    <glyph glyph-name="uni00A0" unicode="&#xa0;" horiz-adv-x="508" 
 />
    <glyph glyph-name="uni00AD" unicode="&#xad;" horiz-adv-x="519" 
d="M465 540h-352v113h352v-113z" />
    <glyph glyph-name="uni2000" unicode="&#x2000;" horiz-adv-x="788" 
 />
    <glyph glyph-name="uni2001" unicode="&#x2001;" horiz-adv-x="1577" 
 />
    <glyph glyph-name="uni2002" unicode="&#x2002;" horiz-adv-x="788" 
 />
    <glyph glyph-name="uni2003" unicode="&#x2003;" horiz-adv-x="1577" 
 />
    <glyph glyph-name="uni2004" unicode="&#x2004;" horiz-adv-x="525" 
 />
    <glyph glyph-name="uni2005" unicode="&#x2005;" horiz-adv-x="394" 
 />
    <glyph glyph-name="uni2006" unicode="&#x2006;" horiz-adv-x="262" 
 />
    <glyph glyph-name="uni2007" unicode="&#x2007;" horiz-adv-x="262" 
 />
    <glyph glyph-name="uni2008" unicode="&#x2008;" horiz-adv-x="197" 
 />
    <glyph glyph-name="uni2009" unicode="&#x2009;" horiz-adv-x="315" 
 />
    <glyph glyph-name="uni200A" unicode="&#x200a;" horiz-adv-x="87" 
 />
    <glyph glyph-name="uni2010" unicode="&#x2010;" horiz-adv-x="519" 
d="M465 540h-352v113h352v-113z" />
    <glyph glyph-name="uni2011" unicode="&#x2011;" horiz-adv-x="519" 
d="M465 540h-352v113h352v-113z" />
    <glyph glyph-name="figuredash" unicode="&#x2012;" horiz-adv-x="519" 
d="M465 540h-352v113h352v-113z" />
    <glyph glyph-name="endash" unicode="&#x2013;" horiz-adv-x="1191" 
d="M1137 540h-1024v113h1024v-113z" />
    <glyph glyph-name="emdash" unicode="&#x2014;" horiz-adv-x="2215" 
d="M2161 540h-2048v113h2048v-113z" />
    <glyph glyph-name="uni202F" unicode="&#x202f;" horiz-adv-x="315" 
 />
    <glyph glyph-name="uni205F" unicode="&#x205f;" horiz-adv-x="394" 
 />
    <glyph glyph-name="uni25FC" unicode="&#x25fc;" horiz-adv-x="1430" 
d="M0 1430h1430v-1430h-1430v1430z" />
  </font>
</defs>
</svg>
